<svg version="1.2" xmlns="http://www.w3.org/2000/svg" viewBox="0 0 167 125" width="167" height="125">
	<title>quotes-svg</title>
	<style>
		.s0 { opacity: .8;fill: #2699dd } 
	</style>
	<path id="Layer" fill-rule="evenodd" class="s0" d="m79 87.5q0 15.6-10.8 26.6-10.7 10.9-26.4 10.9-18.7 0-30.3-13.1-11.5-13.1-11.5-34.6 0-21.1 5.3-35.9 5.3-14.8 15-23.8 9.8-9 24.1-13.3 14.3-4.3 32.6-4.3v23.4q-11.7 0-19.9 2.8-8.2 2.7-13.3 7-5.5 4.3-8.2 9.6-2.7 5.2-3.5 10.7 0.8-0.8 3.7-1.7 0.7-0.3 1.5-0.5 0.7-0.2 1.5-0.3 0.7-0.1 1.5-0.2 0.8 0 1.5 0 17.3 0 27.2 10.7 10 10.8 10 26zm78-26q-9.9-10.7-27.2-10.7-0.7 0-1.5 0-0.8 0.1-1.5 0.2-0.8 0.1-1.5 0.3-0.8 0.2-1.5 0.5-2.9 0.9-3.7 1.7 0.8-5.5 3.3-10.7 2.5-5.3 8-9.6 5.5-4.3 13.7-7 8.2-2.8 19.9-2.8v-23.4q-18.3 0-32.6 4.3-14.3 4.3-24.3 13.3-9.9 9-15 23.8-5.1 14.8-5.1 35.9 0 21.5 11.5 34.6 11.6 13.1 30.3 13.1 15.7 0 26.4-10.9 10.8-11 10.8-26.6 0-15.2-10-26z"/>
</svg>