<svg id="Group_11" data-name="Group 11" xmlns="http://www.w3.org/2000/svg" xmlns:xlink="http://www.w3.org/1999/xlink" width="44" height="44" viewBox="0 0 44 44">
  <defs>
    <clipPath id="clip-path">
      <rect id="Rectangle_7" data-name="Rectangle 7" width="44" height="44" fill="none"/>
    </clipPath>
  </defs>
  <g id="Group_10" data-name="Group 10" clip-path="url(#clip-path)">
    <path id="Path_110" data-name="Path 110" d="M345.6,343.132l-3.986-3.985a10.487,10.487,0,0,1-2.45,2.45l3.985,3.986a16.114,16.114,0,0,0,2.45-2.45" transform="translate(-311.132 -311.119)" fill="#2b98d3"/>
    <path id="Path_111" data-name="Path 111" d="M309.2,29.68H298.943v2.5a2.817,2.817,0,0,1-.029.359,16.814,16.814,0,0,1,7.435,3.167.455.455,0,0,1,.176.106.427.427,0,0,1,.033.051,17.047,17.047,0,0,1,3.022,3.023c.016.012.034.018.048.031a.448.448,0,0,1,.105.174,16.818,16.818,0,0,1,3.168,7.437,2.834,2.834,0,0,1,.359-.029h2.5V36.243A6.57,6.57,0,0,0,309.2,29.68Z" transform="translate(-274.212 -27.227)" fill="#2b98d3"/>
    <path id="Path_112" data-name="Path 112" d="M119.411,339.153l-3.984,3.986a16.165,16.165,0,0,0,2.449,2.449l3.985-3.985a10.5,10.5,0,0,1-2.45-2.45Z" transform="translate(-105.888 -311.125)" fill="#2b98d3"/>
    <path id="Path_113" data-name="Path 113" d="M247.992,470.13a1.58,1.58,0,0,0-.035-.216,17.248,17.248,0,0,1-1.77.094,16.976,16.976,0,0,1-1.77-.094,1.592,1.592,0,0,0-.035.216v3.147a1.81,1.81,0,0,0,1.8,1.8,1.806,1.806,0,0,0,1.8-1.8Z" transform="translate(-224.186 -431.08)"/>
    <path id="Path_114" data-name="Path 114" d="M78.187,163.4a10.331,10.331,0,0,1,1.425-5.231l-4.032-4.032a15.892,15.892,0,0,0,0,18.528l4.031-4.033a10.335,10.335,0,0,1-1.424-5.232Z" transform="translate(-66.6 -141.395)"/>
    <path id="Path_115" data-name="Path 115" d="M315.762,298.944h-2.5a2.837,2.837,0,0,1-.359-.029,16.815,16.815,0,0,1-3.167,7.435.443.443,0,0,1-.106.176.413.413,0,0,1-.051.033,17.009,17.009,0,0,1-3.022,3.022.54.54,0,0,1-.032.049.454.454,0,0,1-.174.106,16.829,16.829,0,0,1-7.436,3.167,2.672,2.672,0,0,1,.029.359v2.5H309.2a6.57,6.57,0,0,0,6.562-6.562Z" transform="translate(-274.214 -274.213)" fill="#2b98d3"/>
    <path id="Path_116" data-name="Path 116" d="M29.677,46.5h2.5a3.015,3.015,0,0,1,.359.029A16.805,16.805,0,0,1,35.7,39.09a.448.448,0,0,1,.106-.174.376.376,0,0,1,.048-.031,17.023,17.023,0,0,1,3.026-3.026.512.512,0,0,1,.031-.047.437.437,0,0,1,.172-.1,16.828,16.828,0,0,1,7.438-3.169,2.774,2.774,0,0,1-.029-.36v-2.5H36.24a6.571,6.571,0,0,0-6.563,6.563Z" transform="translate(-27.224 -27.227)" fill="#2b98d3"/>
    <path id="Path_117" data-name="Path 117" d="M244.381,4.952a1.553,1.553,0,0,0,.035.216,17.244,17.244,0,0,1,1.77-.093,16.966,16.966,0,0,1,1.77.094,1.592,1.592,0,0,0,.035-.216V1.806a1.764,1.764,0,0,0-.527-1.271A1.769,1.769,0,0,0,246.186,0a1.807,1.807,0,0,0-1.8,1.8Z" transform="translate(-224.185 0)"/>
    <path id="Path_118" data-name="Path 118" d="M168.623,375.023a10.32,10.32,0,0,1-10.461,0l-4.033,4.032a15.9,15.9,0,0,0,18.528,0Z" transform="translate(-141.392 -344.031)"/>
    <path id="Path_119" data-name="Path 119" d="M1.806,247.993H4.952a1.578,1.578,0,0,0,.216-.035,17.243,17.243,0,0,1-.093-1.77,16.966,16.966,0,0,1,.094-1.77,1.567,1.567,0,0,0-.216-.035H1.806a1.759,1.759,0,0,0-1.271.527A1.769,1.769,0,0,0,0,246.188,1.807,1.807,0,0,0,1.806,247.993Z" transform="translate(0 -224.187)"/>
    <path id="Path_120" data-name="Path 120" d="M115.412,117.878l3.985,3.985a10.47,10.47,0,0,1,2.45-2.45l-3.985-3.985a16.069,16.069,0,0,0-2.45,2.45" transform="translate(-105.874 -105.889)" fill="#2b98d3"/>
    <path id="Path_121" data-name="Path 121" d="M473.277,244.382h-3.147a1.579,1.579,0,0,0-.216.035,17.265,17.265,0,0,1,.094,1.77,16.962,16.962,0,0,1-.094,1.77,1.591,1.591,0,0,0,.216.035h3.147a1.81,1.81,0,0,0,1.8-1.8,1.805,1.805,0,0,0-1.8-1.8Z" transform="translate(-431.081 -224.186)"/>
    <path id="Path_122" data-name="Path 122" d="M379.046,154.123l-4.031,4.032a10.323,10.323,0,0,1,0,10.462l4.031,4.032a15.889,15.889,0,0,0,0-18.526Z" transform="translate(-344.024 -141.386)"/>
    <path id="Path_123" data-name="Path 123" d="M36.251,315.758H46.506v-2.5a3.032,3.032,0,0,1,.029-.359,16.815,16.815,0,0,1-7.435-3.167.445.445,0,0,1-.175-.106.345.345,0,0,1-.033-.05,17.068,17.068,0,0,1-3.021-3.021c-.017-.013-.035-.019-.05-.033a.441.441,0,0,1-.107-.175,16.824,16.824,0,0,1-3.167-7.436,2.66,2.66,0,0,1-.359.029h-2.5V309.2a6.57,6.57,0,0,0,6.563,6.562Z" transform="translate(-27.235 -274.21)" fill="#2b98d3"/>
    <path id="Path_124" data-name="Path 124" d="M158.156,79.605a10.32,10.32,0,0,1,10.462,0l4.032-4.031a15.891,15.891,0,0,0-18.527,0Z" transform="translate(-141.386 -66.595)"/>
    <path id="Path_125" data-name="Path 125" d="M341.6,121.864l3.986-3.985a16.094,16.094,0,0,0-2.449-2.449l-3.986,3.984a10.484,10.484,0,0,1,2.45,2.45Z" transform="translate(-311.126 -105.89)" fill="#2b98d3"/>
    <path id="Path_126" data-name="Path 126" d="M195.533,200.622a1.751,1.751,0,0,0,.5-3.433v-.881a.163.163,0,0,1,.163-.163h7.091a.164.164,0,0,1,.163.163v.9a1.759,1.759,0,1,0,1.083,0v-.9a1.247,1.247,0,0,0-1.246-1.246h-3v-1.3h1.317a1.515,1.515,0,0,0,1.516-1.51v-3.107a1.516,1.516,0,0,0-1.516-1.51h-3.719a1.511,1.511,0,0,0-1.51,1.51v3.107a1.511,1.511,0,0,0,1.51,1.51H199.2v1.3h-3a1.247,1.247,0,0,0-1.245,1.246v.909a1.752,1.752,0,0,0,.586,3.405Z" transform="translate(-177.76 -172.125)" fill="#2b98d3"/>
  </g>
</svg>
