<svg id="Group_6" data-name="Group 6" xmlns="http://www.w3.org/2000/svg" xmlns:xlink="http://www.w3.org/1999/xlink" width="40" height="40" viewBox="0 0 40 40">
  <defs>
    <clipPath id="clip-path">
      <rect id="Rectangle_4" data-name="Rectangle 4" width="40" height="40" fill="none"/>
    </clipPath>
  </defs>
  <g id="Group_5" data-name="Group 5" clip-path="url(#clip-path)">
    <path id="Path_75" data-name="Path 75" d="M36.735,40H3.265A3.269,3.269,0,0,1,0,36.735V3.265A3.269,3.269,0,0,1,3.265,0H36.734A3.27,3.27,0,0,1,40,3.265V36.734A3.27,3.27,0,0,1,36.735,40ZM3.265,2.5a.765.765,0,0,0-.765.765v33.47a.765.765,0,0,0,.765.765h33.47a.766.766,0,0,0,.765-.766V3.265a.766.766,0,0,0-.766-.765ZM31.25,36.25a5,5,0,1,1,5-5,5.005,5.005,0,0,1-5,5m0-7.5a2.5,2.5,0,1,0,2.5,2.5,2.5,2.5,0,0,0-2.5-2.5M20,36.25a5,5,0,1,1,5-5,5.005,5.005,0,0,1-5,5m0-7.5a2.5,2.5,0,1,0,2.5,2.5,2.5,2.5,0,0,0-2.5-2.5M8.75,36.25a5,5,0,1,1,5-5,5.005,5.005,0,0,1-5,5m0-7.5a2.5,2.5,0,1,0,2.5,2.5,2.5,2.5,0,0,0-2.5-2.5M31.25,25a5,5,0,1,1,5-5,5.005,5.005,0,0,1-5,5m0-7.5a2.5,2.5,0,1,0,2.5,2.5,2.5,2.5,0,0,0-2.5-2.5M20,25a5,5,0,1,1,5-5,5.005,5.005,0,0,1-5,5m0-7.5A2.5,2.5,0,1,0,22.5,20,2.5,2.5,0,0,0,20,17.5M8.75,25a5,5,0,1,1,5-5,5.005,5.005,0,0,1-5,5m0-7.5a2.5,2.5,0,1,0,2.5,2.5,2.5,2.5,0,0,0-2.5-2.5m22.5-3.75a5,5,0,1,1,5-5,5.005,5.005,0,0,1-5,5m0-7.5a2.5,2.5,0,1,0,2.5,2.5,2.5,2.5,0,0,0-2.5-2.5M20,13.75a5,5,0,1,1,5-5,5.005,5.005,0,0,1-5,5m0-7.5a2.5,2.5,0,1,0,2.5,2.5A2.5,2.5,0,0,0,20,6.25M8.75,13.75a5,5,0,1,1,5-5,5.005,5.005,0,0,1-5,5m0-7.5a2.5,2.5,0,1,0,2.5,2.5,2.5,2.5,0,0,0-2.5-2.5" fill="#2b98d3"/>
    <path id="Path_76" data-name="Path 76" d="M378.753,376.257a2.5,2.5,0,1,0,2.5,2.5,2.5,2.5,0,0,0-2.5-2.5" transform="translate(-347.503 -347.507)" fill="#2b98d3"/>
    <path id="Path_77" data-name="Path 77" d="M231.523,376.257a2.5,2.5,0,1,0,2.5,2.5,2.5,2.5,0,0,0-2.5-2.5" transform="translate(-211.523 -347.507)" fill="#2b98d3"/>
    <path id="Path_78" data-name="Path 78" d="M84.293,376.257a2.5,2.5,0,1,0,2.5,2.5,2.5,2.5,0,0,0-2.5-2.5" transform="translate(-75.543 -347.507)" fill="#2b98d3"/>
    <path id="Path_79" data-name="Path 79" d="M378.753,229.027a2.5,2.5,0,1,0,2.5,2.5,2.5,2.5,0,0,0-2.5-2.5" transform="translate(-347.503 -211.527)" fill="#2b98d3"/>
    <path id="Path_80" data-name="Path 80" d="M231.523,229.027a2.5,2.5,0,1,0,2.5,2.5,2.5,2.5,0,0,0-2.5-2.5" transform="translate(-211.523 -211.527)" fill="#2b98d3"/>
    <path id="Path_81" data-name="Path 81" d="M84.293,229.027a2.5,2.5,0,1,0,2.5,2.5,2.5,2.5,0,0,0-2.5-2.5" transform="translate(-75.543 -211.527)" fill="#2b98d3"/>
    <path id="Path_82" data-name="Path 82" d="M378.753,81.8a2.5,2.5,0,1,0,2.5,2.5,2.5,2.5,0,0,0-2.5-2.5" transform="translate(-347.503 -75.547)" fill="#2b98d3"/>
    <path id="Path_83" data-name="Path 83" d="M231.523,81.8a2.5,2.5,0,1,0,2.5,2.5,2.5,2.5,0,0,0-2.5-2.5" transform="translate(-211.523 -75.547)" fill="#2b98d3"/>
    <path id="Path_84" data-name="Path 84" d="M49.862,55.213a5.349,5.349,0,1,1,5.349-5.349,5.354,5.354,0,0,1-5.349,5.349" transform="translate(-41.112 -41.114)"/>
    <path id="Path_85" data-name="Path 85" d="M42.241,347.758a5.349,5.349,0,1,1,5.349,5.349,5.354,5.354,0,0,1-5.349-5.349" transform="translate(-39.013 -316.245)"/>
    <path id="Path_86" data-name="Path 86" d="M340.241,347.758a5.349,5.349,0,1,1,5.349,5.349,5.354,5.354,0,0,1-5.349-5.349" transform="translate(-314.243 -316.245)"/>
    <path id="Path_87" data-name="Path 87" d="M190.741,194.258a5.349,5.349,0,1,1,5.349,5.349,5.354,5.354,0,0,1-5.349-5.349" transform="translate(-176.166 -174.474)"/>
    <path id="Path_88" data-name="Path 88" d="M341.241,46.758a5.349,5.349,0,1,1,5.349,5.349,5.354,5.354,0,0,1-5.349-5.349" transform="translate(-315.166 -38.245)"/>
  </g>
</svg>
