<svg id="USA" xmlns="http://www.w3.org/2000/svg" width="50" height="30" viewBox="0 0 50 30">
  <g id="Group_124" data-name="Group 124">
    <path id="Path_187" data-name="Path 187" d="M0,0H50V2.309H0ZM0,4.617H50V6.926H0ZM0,9.229H50v2.314H0Zm0,4.617H50v2.309H0Zm0,4.617H50v2.309H0Zm0,4.611H50v2.309H0Zm0,4.617H50V30H0Z" fill="#bd3d44" fill-rule="evenodd"/>
    <path id="Path_188" data-name="Path 188" d="M0,36.938H50v2.309H0Zm0,4.617H50v2.3H0Zm0,4.611H50v2.309H0Zm0,4.617H50v2.309H0ZM0,55.4H50v2.309H0Zm0,4.611H50V62.32H0Z" transform="translate(0 -34.629)" fill="#fff" fill-rule="evenodd"/>
  </g>
  <path id="Path_189" data-name="Path 189" d="M0,0H22.8V16.154H0Z" fill="#192f5d" fill-rule="evenodd"/>
  <path id="Path_190" data-name="Path 190" d="M17.191,11.063l.211.639h.668l-.539.393.2.645-.545-.4-.539.393.2-.639-.545-.393h.68Zm3.8,0,.2.639h.674l-.545.393.2.645-.539-.4-.545.393.2-.639-.539-.393h.668Zm3.8,0L25,11.7h.662l-.539.393.2.645-.545-.4-.539.393.2-.639L23.9,11.7h.674Zm3.8,0,.2.639h.674l-.545.393.211.645-.545-.4-.545.393.211-.639-.545-.393h.668Zm3.8,0,.211.639h.668l-.539.393.205.645-.545-.4-.539.393.2-.639-.539-.393h.668Zm3.8,0,.205.639h.674l-.545.393.211.645-.545-.4-.545.393.211-.639-.545-.393h.674ZM19.1,12.68l.2.639h.674l-.545.393.2.639-.527-.393-.545.393.193-.639-.527-.393H18.9Zm3.8,0,.211.639h.668l-.545.393.211.639-.545-.393-.545.393.211-.639-.545-.393h.674Zm3.8,0,.2.639h.674l-.545.393.2.639-.539-.393-.545.393.2-.639-.539-.393h.668Zm3.8,0,.211.639h.668l-.545.393.211.639-.545-.393-.539.393.2-.639-.545-.393h.68Zm3.8,0,.205.639h.674l-.545.393.205.639-.539-.393-.545.393.205-.639-.539-.393h.668ZM17.2,14.291l.211.65h.668l-.539.393.2.639-.545-.4-.539.4.2-.645-.545-.393H17Zm3.8,0,.2.645h.674l-.545.393.2.639-.539-.4-.545.4.2-.645-.539-.393h.668Zm3.8,0,.211.645h.662l-.539.393.2.639-.545-.4-.539.4.2-.645-.545-.393h.674Zm3.8,0,.2.645h.674l-.545.393.211.639-.545-.4-.545.4.211-.645-.545-.393h.668Zm3.8,0,.211.645h.668l-.539.393.205.639-.545-.4-.539.4.2-.645-.539-.393h.668Zm3.8,0,.205.645h.674l-.545.393.211.639-.545-.4-.545.4.211-.645-.545-.393H36ZM19.1,15.908l.2.639h.674l-.545.393.2.645-.539-.4-.545.393.2-.639-.539-.393h.668Zm3.8,0,.211.639h.668l-.545.393.211.645-.545-.4-.545.393.211-.639-.545-.393h.674Zm3.8,0,.2.639h.674l-.545.393.2.645-.539-.4-.545.393.2-.639-.539-.393h.668Zm3.8,0,.211.639h.668l-.539.393.2.645-.545-.4-.539.393.2-.639-.545-.393h.68Zm3.8,0,.205.639h.674l-.545.393.205.645-.539-.4-.545.393.205-.639-.539-.393h.668ZM17.2,17.525l.211.639h.668l-.539.393.2.645-.545-.4-.539.393.2-.639-.545-.393H17Zm3.8,0,.2.639h.674l-.545.393.2.639L21,18.8l-.545.393.2-.639-.539-.393h.668Zm3.8,0,.211.639h.662l-.539.393.2.645-.545-.4-.539.393.2-.639-.545-.393h.674Zm3.8,0,.2.639h.674l-.545.393.211.645-.545-.4-.545.393.211-.639-.545-.393h.668Zm3.8,0,.211.639h.668l-.539.393.205.645-.545-.4-.539.393.2-.639-.539-.393h.668Zm3.8,0,.205.639h.674l-.545.393.211.645-.545-.4-.545.393.211-.639-.545-.393H36ZM19.1,19.143l.2.639h.674l-.545.393.2.639-.539-.4-.545.4.2-.645-.539-.393h.668Zm3.8,0,.211.639h.668l-.545.393.211.639-.545-.4-.545.4.211-.645-.545-.393h.674Zm3.8,0,.2.639h.674l-.545.393.2.639-.539-.4-.545.4.2-.645-.539-.393h.668Zm3.8,0,.211.639h.668l-.539.393.2.639-.545-.4-.539.4.2-.645-.545-.393h.68Zm3.8,0,.205.639h.674l-.545.393.205.639-.539-.4-.545.4.205-.645-.539-.393h.668ZM17.2,20.754l.211.645h.668l-.539.393.2.633-.545-.393-.539.393.2-.639-.545-.393H17Zm3.8,0,.2.645h.674l-.545.393.211.633L21,22.032l-.545.393.211-.639-.545-.393h.668Zm3.8,0,.2.646h.662l-.539.393.2.633-.545-.393-.539.393.2-.639-.545-.393h.674Zm3.8,0,.2.645h.674l-.545.393.211.633-.545-.393-.545.393.211-.639-.545-.393h.668Zm3.8,0,.211.645h.668l-.539.393.205.633-.545-.393-.539.393.2-.639-.539-.393h.668Zm3.8,0,.205.645h.674l-.545.393.211.633-.545-.393-.545.393.211-.639-.545-.393H36ZM19.1,22.371l.2.639h.674l-.545.393.2.645-.539-.4-.545.393.2-.639-.539-.393h.668Zm3.8,0,.211.639h.668l-.545.393.211.645-.545-.4-.545.393.211-.639-.545-.393h.674Zm3.8,0,.2.639h.674l-.545.393.2.645-.539-.4-.545.393.2-.639-.539-.393h.668Zm3.8,0,.211.639h.668l-.539.393.2.645-.545-.4-.539.393.2-.639-.545-.393h.68Zm3.8,0,.205.639h.674l-.545.393.205.645-.539-.4-.545.393.205-.639-.539-.393h.668ZM17.2,23.988l.211.639h.668l-.539.393.2.639-.545-.393-.539.393.2-.645-.545-.393H17Zm3.8,0,.2.639h.674l-.545.393.211.639L21,25.266l-.545.393.211-.645-.545-.393h.668Zm3.8,0,.211.639h.662l-.527.393.2.639-.545-.393-.539.393.2-.645-.545-.393H24.6Zm3.8,0,.2.639h.674l-.545.393.211.639-.545-.393-.545.393.211-.645-.545-.393h.668Zm3.8,0,.211.639h.668l-.539.393.205.639-.545-.393-.539.393.2-.645-.539-.393h.668Zm3.8,0,.205.639h.674l-.545.393.211.639-.545-.393-.545.393.211-.645-.545-.393H36Z" transform="translate(-15.293 -10.371)" fill="#fff" fill-rule="evenodd"/>
</svg>
