<svg xmlns="http://www.w3.org/2000/svg" width="40.662" height="43.79" viewBox="0 0 40.662 43.79">
  <path id="noun-science-4836034" d="M195.7,106.294c-3.376-5.907-9.755-16.479-11.221-18.9V78.277h.918a2.094,2.094,0,0,0,0-4.187H169.081a2.094,2.094,0,0,0,0,4.187H170v9.115c-1.465,2.421-7.846,12.993-11.221,18.9-2.014,3.519-2.408,6.4-1.17,8.564,1.115,1.952,3.422,3.024,6.5,3.024H190.36c3.077,0,5.388-1.072,6.5-3.024,1.238-2.16.844-5.043-1.166-8.562Zm-24.141-.054a2.708,2.708,0,1,1,2.683-2.708A2.694,2.694,0,0,1,171.555,106.24Zm-.625-12.332c1.677-2.8,2.882-4.783,2.911-4.835l.306-.5V78.277h6.18V88.57l.306.5c.039.069,2.285,3.776,4.938,8.214a3.915,3.915,0,0,1-2.292,1.442,7.243,7.243,0,0,1-6.254-2.047,11.478,11.478,0,0,0-6.1-2.775ZM183.7,111.659a2.71,2.71,0,1,1,2.681-2.708A2.692,2.692,0,0,1,183.7,111.659Z" transform="translate(-156.906 -74.09)" fill="#2b98d3"/>
</svg>
