<svg xmlns="http://www.w3.org/2000/svg" width="39.692" height="43" viewBox="0 0 39.692 43">
  <path id="noun-book-3905131" d="M178.038,77.307a1.654,1.654,0,0,0,1.654-1.654V68.024a1.654,1.654,0,0,0-.806-1.421l-5.81-3.466V54.153a1.654,1.654,0,0,0-1.654-1.654H141.653A1.654,1.654,0,0,0,140,54.153V93.845a1.654,1.654,0,0,0,1.654,1.654h29.769a1.654,1.654,0,0,0,1.654-1.654V92.191h4.962a1.654,1.654,0,0,0,1.654-1.654V82.908a1.654,1.654,0,0,0-.806-1.421l-5.81-3.466v-.714Zm-1.654-8.344V74h-3.308V66.988ZM151.577,65.73h3.308V62.422a1.654,1.654,0,1,1,3.308,0V65.73H161.5a1.654,1.654,0,1,1,0,3.308h-3.308v3.308a1.654,1.654,0,1,1-3.308,0V69.038h-3.308a1.654,1.654,0,1,1,0-3.308Zm13.231,21.5H148.269a1.654,1.654,0,1,1,0-3.308h16.538a1.654,1.654,0,1,1,0,3.308Zm0-6.615H148.269a1.654,1.654,0,1,1,0-3.308h16.538a1.654,1.654,0,1,1,0,3.308Zm11.577,3.233v5.036h-3.308V81.873Z" transform="translate(-140 -52.499)" fill="#2b98d3"/>
</svg>
