<svg xmlns="http://www.w3.org/2000/svg" width="40.18" height="46.586" viewBox="0 0 40.18 46.586">
  <g id="Group_1628" data-name="Group 1628" transform="translate(-1186.361 -2983)">
    <path id="Path_204" data-name="Path 204" d="M131.94,180.541a13.879,13.879,0,0,0,3.979-27.175V145.6h-7.764v7.861a13.807,13.807,0,0,0,3.785,27.078Zm4.368-7.376a1.262,1.262,0,1,1,1.262-1.262A1.223,1.223,0,0,1,136.307,173.165Zm2.523,2.912a1.262,1.262,0,1,1,1.262-1.262A1.223,1.223,0,0,1,138.83,176.077Zm1.068-6.891a1.262,1.262,0,1,1,1.262-1.262A1.223,1.223,0,0,1,139.9,169.186ZM131.94,155.7a11.216,11.216,0,0,1,10.482,7.473H121.555A10.87,10.87,0,0,1,131.94,155.7Z" transform="translate(1068.203 2849.045)" fill="#2b98d3"/>
    <path id="Path_205" data-name="Path 205" d="M466.48,209.44h8.541v12.52H466.48Z" transform="translate(750.064 2790.739)" fill="#2b98d3"/>
    <path id="Path_206" data-name="Path 206" d="M466.479,385.973a4.27,4.27,0,1,0,8.541,0V375.2h-8.541Z" transform="translate(750.065 2639.343)" fill="#2b98d3"/>
    <path id="Path_207" data-name="Path 207" d="M204.49,301.324a1.165,1.165,0,1,1-1.164-1.165,1.164,1.164,0,0,1,1.164,1.165" transform="translate(991.479 2707.881)" fill="#2b98d3"/>
    <path id="Path_208" data-name="Path 208" d="M242.1,22.845V17.506a1.077,1.077,0,0,0-1.068-1.068h-8.541V12.266a1.077,1.077,0,0,0-1.068-1.068H220.454a1.077,1.077,0,0,0-1.068,1.068v5.241h-2.038a1.747,1.747,0,0,0,0,3.494h7.376a1.747,1.747,0,0,0,0-3.494h-3.3v-4.27h8.929v4.27a1.077,1.077,0,0,0,1.068,1.068h8.541v4.464h-2.329a1.941,1.941,0,0,0,0,3.882H245.4a1.941,1.941,0,0,0,0-3.882H242a.336.336,0,0,1,.1-.194Z" transform="translate(979.203 2971.802)" fill="#2b98d3"/>
  </g>
</svg>
