<svg xmlns="http://www.w3.org/2000/svg" width="31" height="43" viewBox="0 0 31 43">
  <path id="noun-decision-making-4485556" d="M207.432,59.448l-1.441-2a1.4,1.4,0,0,1-.267-.643,13.092,13.092,0,0,0-1.214-3.835,1.63,1.63,0,0,0-1.461-.892h-6.186a11.856,11.856,0,0,1,5.37-5.5l-.61.909a1.677,1.677,0,0,0,1.772,2.554,1.713,1.713,0,0,0,1.081-.719l3.09-4.607a1.651,1.651,0,0,0-.489-2.314l-4.7-3.025a1.751,1.751,0,0,0-1.285-.239,1.66,1.66,0,0,0-.589,3.033l1.565,1.006a14.705,14.705,0,0,0-8,7.282V40.618l1.146,1.123a1.712,1.712,0,0,0,2.914-1.181,1.651,1.651,0,0,0-.5-1.181l-3.98-3.9a1.732,1.732,0,0,0-2.414,0l-3.98,3.9a1.654,1.654,0,0,0-.5,1.181,1.711,1.711,0,0,0,2.914,1.181l1.146-1.123v9.845a14.705,14.705,0,0,0-8-7.282l1.565-1.006a1.66,1.66,0,0,0-.589-3.033,1.741,1.741,0,0,0-1.282.24l-4.7,3.025a1.65,1.65,0,0,0-.489,2.314l3.09,4.607a1.7,1.7,0,0,0,1.081.719,1.677,1.677,0,0,0,1.772-2.554l-.612-.909a11.847,11.847,0,0,1,5.37,5.5h-7.358a1.632,1.632,0,0,0-1.461.892,12.811,12.811,0,0,0-1.36,5.775,13.336,13.336,0,0,0,6.478,11.43,1.69,1.69,0,0,1,.82,1.414V76.4a1.609,1.609,0,0,0,1.626,1.593h12.171a1.609,1.609,0,0,0,1.626-1.593V72.3h1.552a3.274,3.274,0,0,0,3.322-3.217V64.813l1.325-.991a3.139,3.139,0,0,0,.676-4.375Z" transform="translate(-177.035 -34.992)" fill="#2b98d3"/>
</svg>
