<svg xmlns="http://www.w3.org/2000/svg" width="46" height="42" viewBox="0 0 46 42">
  <g id="Group_1610" data-name="Group 1610" transform="translate(1045.205 -2131.962)">
    <path id="Path_184" data-name="Path 184" d="M235.213,36.4v-2.78a1.965,1.965,0,0,0-.581-1.394,1.988,1.988,0,0,0-1.4-.577H228.9a3.886,3.886,0,0,0-7.264,0h-4.33a1.989,1.989,0,0,0-1.4.577,1.966,1.966,0,0,0-.581,1.394V36.4h-.007a1.624,1.624,0,0,0-1.145.471,1.606,1.606,0,0,0-.474,1.138V40.7a1.605,1.605,0,0,0,.474,1.138,1.624,1.624,0,0,0,1.145.472h.007V45.1a1.965,1.965,0,0,0,.581,1.394,1.988,1.988,0,0,0,1.4.577H233.23a1.989,1.989,0,0,0,1.4-.577,1.965,1.965,0,0,0,.581-1.394V42.314a1.624,1.624,0,0,0,1.145-.472,1.605,1.605,0,0,0,.474-1.138V38.009a1.606,1.606,0,0,0-.474-1.138,1.624,1.624,0,0,0-1.145-.471Zm-12.017,4a2.261,2.261,0,0,1-1.14,1.957,2.289,2.289,0,0,1-2.275,0,2.262,2.262,0,0,1-1.14-1.957V37.286a2.261,2.261,0,0,1,1.14-1.957,2.289,2.289,0,0,1,2.275,0,2.261,2.261,0,0,1,1.14,1.957Zm8.693,0a2.253,2.253,0,0,1-.665,1.6,2.283,2.283,0,0,1-3.218,0,2.254,2.254,0,0,1-.665-1.6V37.286a2.251,2.251,0,0,1,.665-1.6,2.28,2.28,0,0,1,3.215,0,2.22,2.22,0,0,1,.668,1.6Z" transform="translate(-1247.47 2102.819)" fill="#2b98d3"/>
    <path id="Path_185" data-name="Path 185" d="M85.923,273.2H83.506a5.23,5.23,0,0,0-5.278,4.773h0a5.114,5.114,0,0,0,5.1,5.454v9.667a1.847,1.847,0,1,0,3.693,0V274.3a1.1,1.1,0,0,0-1.1-1.1Z" transform="translate(-1123.422 1879.022)" fill="#2b98d3"/>
    <path id="Path_186" data-name="Path 186" d="M526.21,277.977a5.23,5.23,0,0,0-5.278-4.773h-2.417a1.1,1.1,0,0,0-1.1,1.1V293.1h0a1.846,1.846,0,0,0,3.693,0v-9.667a5.114,5.114,0,0,0,5.1-5.454Z" transform="translate(-1525.426 1879.018)" fill="#2b98d3"/>
    <path id="Path_187" data-name="Path 187" d="M239.6,273.2H219.614a1.1,1.1,0,0,0-1.1,1.1v8.715h4.929l2.533-2.534a3.21,3.21,0,1,1,1.946,1.946l-2.936,2.937h0a1.376,1.376,0,0,1-.973.4h-5.5v8.072a1.1,1.1,0,0,0,1.1,1.1H239.6a1.1,1.1,0,0,0,1.1-1.1v-8.715h-4.929l-2.534,2.533h0a3.21,3.21,0,1,1-1.946-1.946l2.936-2.937h0a1.376,1.376,0,0,1,.973-.4h5.5V274.3a1.1,1.1,0,0,0-1.1-1.1Z" transform="translate(-1251.813 1879.022)" fill="#2b98d3"/>
  </g>
</svg>
