<svg xmlns="http://www.w3.org/2000/svg" width="45.087" height="45.087" viewBox="0 0 45.087 45.087">
  <g id="Group_1611" data-name="Group 1611" transform="translate(-1357.461 -3133)">
    <path id="Path_201" data-name="Path 201" d="M169.57,363.88h45.087v2.6a4.335,4.335,0,0,1-4.335,4.335H173.906a4.335,4.335,0,0,1-4.335-4.335Z" transform="translate(1187.891 2800.335)" fill="#2b98d3"/>
    <path id="Path_202" data-name="Path 202" d="M271.91,437.606a.867.867,0,0,1-.867.867H246.764a.867.867,0,1,1,0-1.735h3.468v-3.468h17.341v3.468h3.468a.868.868,0,0,1,.867.867Z" transform="translate(1121.1 2739.614)" fill="#2b98d3"/>
    <path id="Path_203" data-name="Path 203" d="M210.323,114.05H173.906a4.335,4.335,0,0,0-4.335,4.335V143.53h45.087V118.385a4.335,4.335,0,0,0-4.335-4.335Zm-26.012,6.937A5.411,5.411,0,1,1,178.9,126.4,5.411,5.411,0,0,1,184.311,120.987Zm7.336,19.674a2.722,2.722,0,0,1-2.229,1.136H179.108a2.721,2.721,0,0,1-2.2-1.136,2.6,2.6,0,0,1-.347-2.393,8.133,8.133,0,0,1,15.373,0,2.6,2.6,0,0,1-.312,2.393Zm19.544-1.466a2.6,2.6,0,0,1-2.6,2.6h-8.671a2.6,2.6,0,0,1-2.6-2.6v-8.671a2.6,2.6,0,0,1,2.6-2.6h8.671a2.6,2.6,0,0,1,2.6,2.6Zm-2.6-9.538h-8.671a.867.867,0,0,0-.867.867V139.2a.867.867,0,0,0,.867.867h.156a2.03,2.03,0,0,1,.1-.5,4.17,4.17,0,0,1,2.644-2.6,2.939,2.939,0,1,1,2.6,0,4.171,4.171,0,0,1,2.6,2.6,2.053,2.053,0,0,1,.1.5h.477a.867.867,0,0,0,.867-.867v-8.671a.868.868,0,0,0-.868-.867Z" transform="translate(1187.89 3018.95)" fill="#2b98d3"/>
  </g>
</svg>
