<svg xmlns="http://www.w3.org/2000/svg" width="37.73" height="43.79" viewBox="0 0 37.73 43.79">
  <g id="noun-symptom-checker-3344421" transform="translate(-116.061 -8.519)">
    <path id="Path_191" data-name="Path 191" d="M298.237,13.5a4.977,4.977,0,1,1-4.977-4.977,4.978,4.978,0,0,1,4.977,4.977" transform="translate(-158.332)" fill="#2b98d3"/>
    <path id="Path_192" data-name="Path 192" d="M186.076,158.136a2.488,2.488,0,1,1-2.488-2.488,2.488,2.488,0,0,1,2.488,2.488" transform="translate(-59.794 -135.263)" fill="#2b98d3"/>
    <path id="Path_193" data-name="Path 193" d="M398.1,264.13a2.488,2.488,0,1,1-2.488-2.488,2.488,2.488,0,0,1,2.488,2.488" transform="translate(-254.715 -232.709)" fill="#2b98d3"/>
    <path id="Path_194" data-name="Path 194" d="M121.346,165.143a3.394,3.394,0,0,1,.564-1.873l-2.849.323a2.19,2.19,0,1,0,.493,4.352l2.869-.326a3.4,3.4,0,0,1-1.076-2.475Z" transform="translate(-0.971 -142.271)" fill="#2b98d3"/>
    <path id="Path_195" data-name="Path 195" d="M266.838,151.594l-11.849-1.341c-1.823-.214-2.874.657-4.988.657s-3.165-.872-4.988-.657l-3.784.43a3.4,3.4,0,0,1,.48,4.352l1.567-.176.542,8.765c0,.337.072,3.315.072,3.657v2.695a3.417,3.417,0,1,1,0,6.24v3.758a2.608,2.608,0,1,0,5.217,0V168.7h1.787v11.271a2.607,2.607,0,1,0,5.214,0V167.279c0-.2.025-1.254.045-2.19-.064.005-.123.019-.187.019a3.417,3.417,0,0,1,0-6.835,3.754,3.754,0,0,1,.545.053l.214-3.469,9.62,1.088a2.19,2.19,0,0,0,.5-4.352Z" transform="translate(-115.073 -130.272)" fill="#2b98d3"/>
    <path id="Path_196" data-name="Path 196" d="M265.522,405.486A2.488,2.488,0,1,1,263.034,403a2.488,2.488,0,0,1,2.488,2.488" transform="translate(-132.833 -362.665)" fill="#2b98d3"/>
    <path id="Path_197" data-name="Path 197" d="M163.381,67.736a16.29,16.29,0,0,1,4.426-3.157,7.29,7.29,0,0,1-.379-2.221c0-.235.048-.46.07-.69a19.008,19.008,0,0,0-8.111,6.525Z" transform="translate(-39.832 -48.863)" fill="#2b98d3"/>
    <path id="Path_198" data-name="Path 198" d="M440.607,67.736l3.993.457a18.987,18.987,0,0,0-8.11-6.525c.022.23.07.454.07.69a7.208,7.208,0,0,1-.382,2.221,16.373,16.373,0,0,1,4.429,3.157Z" transform="translate(-294.301 -48.863)" fill="#2b98d3"/>
    <path id="Path_199" data-name="Path 199" d="M126.713,259.906a16.061,16.061,0,0,1-7.888-13.795,15.326,15.326,0,0,1,.27-2.726l-2.847.326a17.329,17.329,0,0,0-.187,2.4,18.864,18.864,0,0,0,10.651,16.955v-3.16Z" transform="translate(0 -215.925)" fill="#2b98d3"/>
    <path id="Path_200" data-name="Path 200" d="M462.3,243.707l-2.847-.326a15.572,15.572,0,0,1,.267,2.726,16.071,16.071,0,0,1-7.886,13.806v3.149a18.862,18.862,0,0,0,10.651-16.955,17.332,17.332,0,0,0-.186-2.4Z" transform="translate(-308.691 -215.921)" fill="#2b98d3"/>
  </g>
</svg>
