<?xml version="1.0" encoding="UTF-8"?>
<svg width="910px" height="940px" viewBox="0 0 910 940" version="1.1" xmlns="http://www.w3.org/2000/svg" xmlns:xlink="http://www.w3.org/1999/xlink">
    <!-- Generator: Sketch 50.2 (55047) - http://www.bohemiancoding.com/sketch -->
    <title>Badge_Monocolor_Web</title>
    <desc>Created with Sketch.</desc>
    <defs></defs>
    <g id="main-1" stroke="none" stroke-width="1" fill="none" fill-rule="evenodd">
        <g id="Artboard-6" transform="translate(-5080.000000, -2347.000000)" fill="#000000">
            <g id="Badge_Monocolor_Web" transform="translate(5079.000000, 2347.000000)">
                <g id="Badge_Monocolor">
                    <g id="Base" transform="translate(1.000000, 0.000000)">
                        <path d="M455,70.7924764 L115,283.292476 L115,661.523294 L455,869.773294 L795,661.523294 L795,283.292476 L455,70.7924764 Z M805,604 L805,667.125 L455,881.5 L105,667.125 L105,604 L115,604 L115,336 L105,336 L105,277.75 L455,59 L805,277.75 L805,336 L795,336 L795,604 L805,604 Z" id="Combined-Shape" fill-rule="nonzero"></path>
                        <path d="M835,336 L855,336 L855,604 L835,604 L835,683.796589 L455,916.546589 L75,683.796589 L75,604 L55,604 L55,336 L75,336 L75,261.084953 L455,23.5849528 L835,261.084953 L835,336 Z M455,0 L855,250 L855,695 L455,940 L55,695 L55,250 L455,0 Z" id="Combined-Shape"></path>
                        <path d="M0,320 L910,320 L910,620 L0,620 L0,320 Z M16,336 L16,604 L894,604 L894,336 L16,336 Z" id="Combined-Shape"></path>
                    </g>
                    <g id="Text" transform="translate(0.000000, 191.000000)">
                        <path d="M386,0 L400.078314,0 C401.532419,0 402.746909,0.330473661 403.721821,0.991430647 C404.696733,1.65238763 405.332894,2.52814224 405.630325,3.61872161 L415.54463,41.2930816 C415.842061,42.5158519 416.139487,43.8212224 416.436918,45.2092323 C416.734348,46.5972418 417.031774,48.0513255 417.329205,49.5715263 C417.924066,46.4650287 418.651108,43.7055745 419.510352,41.2930816 L431.209232,3.61872161 C431.506663,2.69338183 432.142824,1.85893609 433.117736,1.11535953 C434.092648,0.371782524 435.274091,0 436.6621,0 L441.619253,0 C443.073358,0 444.246539,0.33873525 445.138831,1.01621633 C446.031123,1.69369741 446.708594,2.56119043 447.171264,3.61872161 L458.771001,41.2930816 C459.630245,43.6064308 460.357287,46.2336955 460.952148,49.1749545 C461.216531,47.7208491 461.489172,46.3328599 461.770078,45.0109459 C462.050985,43.689032 462.34015,42.4497564 462.63758,41.2930816 L472.551885,3.61872161 C472.816268,2.66033363 473.444168,1.8176263 474.435603,1.09057339 C475.427039,0.363520935 476.616744,0 478.004753,0 L491.190779,0 L468.883592,72.2257139 L453.714705,72.2257139 L440.132107,27.4626257 C439.636389,26.0415681 439.157203,24.4057239 438.694533,22.5550443 C438.231863,24.4057239 437.752676,26.0415681 437.256958,27.4626257 L423.476074,72.2257139 L408.307187,72.2257139 L386,0 Z M516.569359,0.0646584104 L526.863345,0.0646584104 L506.662377,65.2059792 C505.364484,69.3912491 501.492997,72.244034 497.111101,72.244034 L487.165365,72.244034 L507.003725,7.14941735 C508.286416,2.9405864 512.16941,0.0646584104 516.569359,0.0646584104 Z" id="Combined-Shape"></path>
                        <path d="M278.93,522 L266.93,488.76 L275.39,488.76 L281.51,509.04 L287.03,488.76 L293.27,488.76 L298.79,509.04 L304.91,488.76 L313.37,488.76 L301.37,522 L296.45,522 L290.15,500.46 L283.85,522 L278.93,522 Z M350.63,488.76 L350.63,522 L343.31,522 L343.31,517.5 L343.19,517.5 C341.789993,519.380009 340.12001,520.769996 338.18,521.67 C336.23999,522.570005 334.210011,523.04 332.09,523.08 C327.649978,523.08 323.830016,521.480016 320.63,518.28 C317.429984,515.079984 315.83,510.880026 315.83,505.68 C315.83,500.519974 317.419984,496.230017 320.6,492.81 C323.780016,489.389983 327.689977,487.68 332.33,487.68 C334.650012,487.68 336.739991,488.169995 338.6,489.15 C340.460009,490.130005 341.989994,491.559991 343.19,493.44 L343.31,493.44 L343.31,488.76 L350.63,488.76 Z M333.59,495.24 C330.709986,495.24 328.360009,496.22999 326.54,498.21 C324.719991,500.19001 323.81,502.679985 323.81,505.68 C323.77,508.560014 324.659991,510.919991 326.48,512.76 C328.300009,514.600009 330.669985,515.52 333.59,515.52 C336.430014,515.52 338.729991,514.580009 340.49,512.7 C342.250009,510.819991 343.13,508.360015 343.13,505.32 C343.13,502.439986 342.250009,500.04001 340.49,498.12 C338.729991,496.19999 336.430014,495.24 333.59,495.24 Z M390.29,477.6 L390.29,522 L382.97,522 L382.97,517.5 L382.85,517.5 C381.529993,519.340009 379.940009,520.719995 378.08,521.64 C376.219991,522.560005 374.170011,523.04 371.93,523.08 C367.409977,523.08 363.540016,521.400017 360.32,518.04 C357.099984,514.679983 355.49,510.500025 355.49,505.5 C355.45,500.379974 357.049984,496.130017 360.29,492.75 C363.530016,489.369983 367.489977,487.68 372.17,487.68 C374.330011,487.72 376.249992,488.129996 377.93,488.91 C379.610008,489.690004 381.029994,490.779993 382.19,492.18 L382.31,492.18 L382.31,477.6 L390.29,477.6 Z M373.07,495.24 C370.309986,495.24 368.020009,496.189991 366.2,498.09 C364.379991,499.99001 363.47,502.419985 363.47,505.38 C363.47,508.300015 364.359991,510.71999 366.14,512.64 C367.920009,514.56001 370.229986,515.52 373.07,515.52 C375.870014,515.56 378.189991,514.62001 380.03,512.7 C381.870009,510.77999 382.79,508.340015 382.79,505.38 C382.79,502.459985 381.860009,500.04001 380,498.12 C378.139991,496.19999 375.830014,495.24 373.07,495.24 Z M396.71,522 L396.71,477.6 L404.69,477.6 L404.69,522 L396.71,522 Z M411.11,522 L411.11,488.76 L419.09,488.76 L419.09,522 L411.11,522 Z M411.11,484.92 L411.11,477.6 L419.09,477.6 L419.09,484.92 L411.11,484.92 Z M425.51,522 L425.51,488.76 L432.83,488.76 L432.83,491.82 L432.95,491.82 C433.990005,490.499993 435.279992,489.480004 436.82,488.76 C438.360008,488.039996 440.10999,487.68 442.07,487.68 C445.950019,487.68 449.079988,489.009987 451.46,491.67 C453.840012,494.330013 455.03,497.959977 455.03,502.56 L455.03,522 L447.05,522 L447.05,504.36 C447.01,501.319985 446.410006,499.040008 445.25,497.52 C444.089994,495.999992 442.47001,495.24 440.39,495.24 C438.069988,495.24 436.330006,496.019992 435.17,497.58 C434.009994,499.140008 433.45,501.399985 433.49,504.36 L433.49,522 L425.51,522 Z M494.69,508.92 L468.65,508.92 C469.130002,510.96001 470.159992,512.569994 471.74,513.75 C473.320008,514.930006 475.189989,515.52 477.35,515.52 C478.950008,515.56 480.379994,515.310003 481.64,514.77 C482.900006,514.229997 483.949996,513.440005 484.79,512.4 L493.79,512.4 C492.389993,515.720017 490.270014,518.329991 487.43,520.23 C484.589986,522.13001 481.330018,523.08 477.65,523.08 C472.649975,523.08 468.470017,521.400017 465.11,518.04 C461.749983,514.679983 460.07,510.540025 460.07,505.62 C460.07,500.699975 461.759983,496.480018 465.14,492.96 C468.520017,489.439982 472.729975,487.68 477.77,487.68 C482.770025,487.68 486.859984,489.379983 490.04,492.78 C493.220016,496.180017 494.83,500.379975 494.87,505.38 C494.87,506.180004 494.85,506.849997 494.81,507.39 C494.77,507.930003 494.73,508.439998 494.69,508.92 Z M468.53,501.84 L486.53,501.84 C485.969997,499.79999 484.890008,498.190006 483.29,497.01 C481.689992,495.829994 479.85001,495.24 477.77,495.24 C475.569989,495.28 473.640008,495.889994 471.98,497.07 C470.319992,498.250006 469.170003,499.83999 468.53,501.84 Z M501.05,522 L501.05,514.02 L509.03,514.02 L509.03,522 L501.05,522 Z M541.07,511.2 L550.07,511.2 C548.749993,514.840018 546.680014,517.729989 543.86,519.87 C541.039986,522.010011 537.63002,523.08 533.63,523.08 C528.349974,523.08 523.970017,521.400017 520.49,518.04 C517.009983,514.679983 515.27,510.380026 515.27,505.14 C515.27,500.179975 516.979983,496.030017 520.4,492.69 C523.820017,489.349983 528.129974,487.68 533.33,487.68 C537.450021,487.68 540.989985,488.779989 543.95,490.98 C546.910015,493.180011 548.949994,496.119982 550.07,499.8 L541.07,499.8 C540.269996,498.319993 539.200007,497.200004 537.86,496.44 C536.519993,495.679996 534.970009,495.28 533.21,495.24 C530.129985,495.24 527.700009,496.20999 525.92,498.15 C524.139991,500.09001 523.25,502.459986 523.25,505.26 C523.25,508.220015 524.159991,510.67999 525.98,512.64 C527.800009,514.60001 530.209985,515.56 533.21,515.52 C534.890008,515.52 536.419993,515.170004 537.8,514.47 C539.180007,513.769997 540.269996,512.680007 541.07,511.2 Z M571.07,487.68 C576.070025,487.68 580.259983,489.419983 583.64,492.9 C587.020017,496.380017 588.71,500.559976 588.71,505.44 C588.71,510.360025 587.020017,514.529983 583.64,517.95 C580.259983,521.370017 576.070025,523.08 571.07,523.08 C566.029975,523.08 561.830017,521.370017 558.47,517.95 C555.109983,514.529983 553.43,510.360025 553.43,505.44 C553.43,500.559976 555.109983,496.380017 558.47,492.9 C561.830017,489.419983 566.029975,487.68 571.07,487.68 Z M571.07,495.24 C568.189986,495.24 565.860009,496.23999 564.08,498.24 C562.299991,500.24001 561.41,502.639986 561.41,505.44 C561.37,508.240014 562.249991,510.61999 564.05,512.58 C565.850009,514.54001 568.189986,515.52 571.07,515.52 C573.910014,515.56 576.229991,514.59001 578.03,512.61 C579.830009,510.62999 580.73,508.240014 580.73,505.44 C580.73,502.639986 579.830009,500.24001 578.03,498.24 C576.229991,496.23999 573.910014,495.24 571.07,495.24 Z M593.51,522 L593.51,488.76 L600.83,488.76 L600.83,491.82 L600.95,491.82 C601.870005,490.499993 603.099992,489.480004 604.64,488.76 C606.180008,488.039996 607.829991,487.68 609.59,487.68 C611.63001,487.68 613.509991,488.149995 615.23,489.09 C616.950009,490.030005 618.309995,491.279992 619.31,492.84 C620.550006,491.159992 622.059991,489.880004 623.84,489 C625.620009,488.119996 627.649989,487.68 629.93,487.68 C634.01002,487.68 637.289988,489.009987 639.77,491.67 C642.250012,494.330013 643.49,497.959977 643.49,502.56 L643.49,522 L635.51,522 L635.51,504.36 C635.51,501.359985 634.970005,499.090008 633.89,497.55 C632.809995,496.009992 631.170011,495.24 628.97,495.24 C626.769989,495.28 625.140005,496.059992 624.08,497.58 C623.019995,499.100008 622.49,501.359985 622.49,504.36 L622.49,522 L614.51,522 L614.51,504.36 C614.51,501.359985 613.970005,499.090008 612.89,497.55 C611.809995,496.009992 610.170011,495.24 607.97,495.24 C605.769989,495.24 604.130005,496.009992 603.05,497.55 C601.969995,499.090008 601.45,501.359985 601.49,504.36 L601.49,522 L593.51,522 Z" id="wadline.com"></path>
                        <path d="M282.7625,263 L282.7625,208.37 L270.4325,208.37 L270.4325,196.4 L307.4225,196.4 L307.4225,208.37 L295.0925,208.37 L295.0925,263 L282.7625,263 Z M344.1875,195.23 C354.08755,195.23 362.412466,198.619966 369.1625,205.4 C375.912534,212.180034 379.2875,220.399952 379.2875,230.06 C379.2875,239.720048 375.897534,247.894967 369.1175,254.585 C362.337466,261.275033 354.027549,264.62 344.1875,264.62 C334.287451,264.62 325.947534,261.275033 319.1675,254.585 C312.387466,247.894967 309.0275,239.720048 309.0875,230.06 C309.0875,220.399952 312.447466,212.180034 319.1675,205.4 C325.887534,198.619966 334.22745,195.23 344.1875,195.23 Z M344.0975,252.65 C350.577532,252.65 356.007478,250.415022 360.3875,245.945 C364.767522,241.474978 366.9575,236.090031 366.9575,229.79 C366.9575,223.549969 364.767522,218.225022 360.3875,213.815 C356.007478,209.404978 350.607532,207.2 344.1875,207.2 C337.707468,207.2 332.292522,209.404978 327.9425,213.815 C323.592478,218.225022 321.4175,223.549969 321.4175,229.79 C321.4175,236.150032 323.592478,241.549978 327.9425,245.99 C332.292522,250.430022 337.677468,252.65 344.0975,252.65 Z M389.1425,263 L389.1425,196.4 L407.7725,196.4 C415.392538,196.46 421.272479,198.334982 425.4125,202.025 C429.552521,205.715018 431.6225,210.769968 431.6225,217.19 C431.6225,223.25003 429.61252,228.199981 425.5925,232.04 C421.57248,235.880019 415.632539,237.8 407.7725,237.8 L401.4725,237.8 L401.4725,263 L389.1425,263 Z M401.4725,208.37 L401.4725,225.83 L408.7625,225.83 C412.122517,225.83 414.702491,225.110007 416.5025,223.67 C418.302509,222.229993 419.2325,220.040015 419.2925,217.1 C419.2925,214.219986 418.377509,212.045007 416.5475,210.575 C414.717491,209.104993 412.122517,208.37 408.7625,208.37 L401.4725,208.37 Z M476.4425,263 L457.0925,196.4 L469.6925,196.4 L481.3025,243.02 L492.6425,196.4 L501.6425,196.4 L512.9825,243.02 L524.5925,196.4 L537.1925,196.4 L517.8425,263 L508.0325,263 L497.1425,218.99 L486.2525,263 L476.4425,263 Z M544.8875,263 L544.8875,196.4 L580.6175,196.4 L580.6175,208.37 L557.2175,208.37 L557.2175,223.76 L579.6275,223.76 L579.6275,235.73 L557.2175,235.73 L557.2175,251.03 L580.6175,251.03 L580.6175,263 L544.8875,263 Z M592.8125,263 L592.8125,196.4 L608.8325,196.4 C616.572539,196.46 622.362481,198.034985 626.2025,201.125 C630.042519,204.215015 631.9625,208.489973 631.9625,213.95 C631.9625,216.950015 631.302507,219.514989 629.9825,221.645 C628.662493,223.775011 626.892511,225.439994 624.6725,226.64 C628.212518,227.840006 630.98749,229.879986 632.9975,232.76 C635.00751,235.640014 636.0125,238.969981 636.0125,242.75 C636.0125,249.230032 633.792522,254.224982 629.3525,257.735 C624.912478,261.245018 618.282544,263 609.4625,263 L592.8125,263 Z M605.1425,251.03 L613.1525,251.03 C616.512517,251.09 619.107491,250.370007 620.9375,248.87 C622.767509,247.369992 623.6825,245.300013 623.6825,242.66 C623.6825,240.019987 622.782509,237.935008 620.9825,236.405 C619.182491,234.874992 616.572517,234.08 613.1525,234.02 L605.1425,234.02 L605.1425,251.03 Z M605.1425,222.05 L610.9025,222.05 C613.722514,222.05 615.867493,221.435006 617.3375,220.205 C618.807507,218.974994 619.5725,217.31001 619.6325,215.21 C619.6325,212.929989 618.882507,211.220006 617.3825,210.08 C615.882492,208.939994 613.722514,208.37 610.9025,208.37 L605.1425,208.37 L605.1425,222.05 Z M191.345,363 L191.345,296.4 L209.795,296.4 C220.895055,296.4 229.624968,299.234972 235.985,304.905 C242.345032,310.575028 245.525,318.959945 245.525,330.06 C245.525,339.840049 242.585029,347.77497 236.705,353.865 C230.824971,359.95503 221.945059,363 210.065,363 L191.345,363 Z M203.675,351.03 L209.705,351.03 C217.265038,351.09 223.05498,349.410017 227.075,345.99 C231.09502,342.569983 233.135,337.260036 233.195,330.06 C233.195,322.619963 231.110021,317.145018 226.94,313.635 C222.769979,310.124982 216.815039,308.37 209.075,308.37 L203.675,308.37 L203.675,351.03 Z M255.47,363 L255.47,296.4 L291.2,296.4 L291.2,308.37 L267.8,308.37 L267.8,323.76 L290.21,323.76 L290.21,335.73 L267.8,335.73 L267.8,351.03 L291.2,351.03 L291.2,363 L255.47,363 Z M323.645,363 L297.905,296.4 L310.865,296.4 L328.775,347.07 L346.685,296.4 L359.645,296.4 L333.905,363 L323.645,363 Z M367.52,363 L367.52,296.4 L403.25,296.4 L403.25,308.37 L379.85,308.37 L379.85,323.76 L402.26,323.76 L402.26,335.73 L379.85,335.73 L379.85,351.03 L403.25,351.03 L403.25,363 L367.52,363 Z M415.445,363 L415.445,296.4 L427.775,296.4 L427.775,351.03 L448.115,351.03 L448.115,363 L415.445,363 Z M485.24,295.23 C495.140049,295.23 503.464966,298.619966 510.215,305.4 C516.965034,312.180034 520.34,320.399952 520.34,330.06 C520.34,339.720048 516.950034,347.894967 510.17,354.585 C503.389966,361.275033 495.080049,364.62 485.24,364.62 C475.33995,364.62 467.000034,361.275033 460.22,354.585 C453.439966,347.894967 450.08,339.720048 450.14,330.06 C450.14,320.399952 453.499966,312.180034 460.22,305.4 C466.940034,298.619966 475.27995,295.23 485.24,295.23 Z M485.15,352.65 C491.630032,352.65 497.059978,350.415022 501.44,345.945 C505.820022,341.474978 508.01,336.090031 508.01,329.79 C508.01,323.549969 505.820022,318.225022 501.44,313.815 C497.059978,309.404978 491.660032,307.2 485.24,307.2 C478.759968,307.2 473.345022,309.404978 468.995,313.815 C464.644978,318.225022 462.47,323.549969 462.47,329.79 C462.47,336.150032 464.644978,341.549978 468.995,345.99 C473.345022,350.430022 478.729968,352.65 485.15,352.65 Z M530.195,363 L530.195,296.4 L548.825,296.4 C556.445038,296.46 562.324979,298.334982 566.465,302.025 C570.605021,305.715018 572.675,310.769968 572.675,317.19 C572.675,323.25003 570.66502,328.199981 566.645,332.04 C562.62498,335.880019 556.685039,337.8 548.825,337.8 L542.525,337.8 L542.525,363 L530.195,363 Z M542.525,308.37 L542.525,325.83 L549.815,325.83 C553.175017,325.83 555.754991,325.110007 557.555,323.67 C559.355009,322.229993 560.285,320.040015 560.345,317.1 C560.345,314.219986 559.430009,312.045007 557.6,310.575 C555.769991,309.104993 553.175017,308.37 549.815,308.37 L542.525,308.37 Z M581.72,363 L581.72,296.4 L617.45,296.4 L617.45,308.37 L594.05,308.37 L594.05,323.76 L616.46,323.76 L616.46,335.73 L594.05,335.73 L594.05,351.03 L617.45,351.03 L617.45,363 L581.72,363 Z M629.645,363 L629.645,296.4 L648.905,296.4 C656.94504,296.4 663.124978,298.289981 667.445,302.07 C671.765022,305.850019 673.925,311.009967 673.925,317.55 C673.925,323.010027 672.260017,327.73498 668.93,331.725 C665.599983,335.71502 661.265027,337.949998 655.925,338.43 L674.645,363 L659.435,363 L642.155,338.43 L641.975,338.43 L641.975,363 L629.645,363 Z M641.975,308.37 L641.975,328.17 L649.265,328.17 C653.045019,328.17 656.044989,327.375008 658.265,325.785 C660.485011,324.194992 661.595,321.690017 661.595,318.27 C661.535,314.909983 660.410011,312.420008 658.22,310.8 C656.029989,309.179992 653.045019,308.37 649.265,308.37 L641.975,308.37 Z M678.11,344.28 L690.98,344.28 C691.04,346.860013 691.924991,348.899992 693.635,350.4 C695.345009,351.900008 697.429988,352.65 699.89,352.65 C702.530013,352.65 704.689992,351.870008 706.37,350.31 C708.050008,348.749992 708.89,346.740012 708.89,344.28 C708.89,341.879988 708.110008,339.795009 706.55,338.025 C704.989992,336.254991 702.530017,334.800006 699.17,333.66 C695.749983,332.579995 693.890001,331.980001 693.59,331.86 C693.289999,331.739999 692.990002,331.590001 692.69,331.41 C688.549979,329.729992 685.49001,327.360015 683.51,324.3 C681.52999,321.239985 680.54,317.850019 680.54,314.13 C680.54,308.729973 682.444981,304.230018 686.255,300.63 C690.065019,297.029982 694.759972,295.23 700.34,295.23 C705.680027,295.23 710.149982,296.969983 713.75,300.45 C717.350018,303.930017 719.299999,308.489972 719.6,314.13 L706.91,314.13 C706.85,312.08999 706.190006,310.425006 704.93,309.135 C703.669994,307.844994 702.02001,307.2 699.98,307.2 C697.87999,307.26 696.155007,307.904994 694.805,309.135 C693.454993,310.365006 692.81,312.059989 692.87,314.22 C692.87,316.14001 693.484994,317.729994 694.715,318.99 C695.945006,320.250006 698.179984,321.359995 701.42,322.32 C703.34001,322.980003 704.689996,323.444999 705.47,323.715 C706.250004,323.985001 706.999996,324.239999 707.72,324.48 C711.80002,326.160008 715.069988,328.589984 717.53,331.77 C719.990012,334.950016 721.22,338.879977 721.22,343.56 C721.22,349.56003 719.18002,354.56998 715.1,358.59 C711.01998,362.61002 705.860031,364.62 699.62,364.62 C693.439969,364.62 688.31002,362.670019 684.23,358.77 C680.14998,354.86998 678.11,350.040029 678.11,344.28 Z" id="Top-Web-Developers"></path>
                    </g>
                </g>
            </g>
        </g>
    </g>
</svg>