<svg xmlns="http://www.w3.org/2000/svg" width="44" height="44" viewBox="0 0 44 44">
  <g id="Group_1635" data-name="Group 1635" transform="translate(-2810.141 -3012.746)">
    <path id="Path_245" data-name="Path 245" d="M123.483,39.367h9.784a3.513,3.513,0,0,1-1.3,1.84,6.256,6.256,0,0,1-7.184,0,3.513,3.513,0,0,1-1.3-1.84Zm12.244,11.947H125.433v5.769h10.294ZM131.161,28H123.39v9.948H133.2Zm13.258,9.948L140.334,28h-7.715l2.042,9.948Zm-8.231,3.26a6.257,6.257,0,0,0,7.185,0,3.512,3.512,0,0,0,1.3-1.84h-9.784a3.518,3.518,0,0,0,1.3,1.84Zm-22.81,0a6.257,6.257,0,0,0,7.185,0,3.516,3.516,0,0,0,1.3-1.84h-9.784a3.513,3.513,0,0,0,1.3,1.84Zm-11.406,0h0a5.367,5.367,0,0,0,1.832.9.777.777,0,0,1,.088.024,6.553,6.553,0,0,0,1.672.213,5.908,5.908,0,0,0,3.593-1.134,3.512,3.512,0,0,0,1.3-1.84h-9.784a3.512,3.512,0,0,0,1.3,1.84Zm19.47,1.116a5.38,5.38,0,0,0,1.23-1.315,5.381,5.381,0,0,0,1.23,1.315,7.666,7.666,0,0,0,8.944,0,5.381,5.381,0,0,0,1.23-1.313,5.389,5.389,0,0,0,1.23,1.313,7.357,7.357,0,0,0,4.473,1.44,8.054,8.054,0,0,0,1.188-.087V68.03H120.121v-17.6a.714.714,0,0,0-.717-.71H107.937a.714.714,0,0,0-.718.71v17.6h-2.844V43.674a8.1,8.1,0,0,0,1.188.087,7.357,7.357,0,0,0,4.473-1.437,5.389,5.389,0,0,0,1.23-1.313,5.382,5.382,0,0,0,1.23,1.313,7.666,7.666,0,0,0,8.945,0ZM124,57.794a.714.714,0,0,0,.717.71h11.729a.721.721,0,0,0,.507-.208.706.706,0,0,0,.21-.5V50.608a.714.714,0,0,0-.717-.71H124.716a.714.714,0,0,0-.717.71ZM101.113,72h43.118V69.449H101.113Zm11.612-44h-7.715l-4.084,9.948h9.757Zm5.961,40.03V51.136H108.655V68.029Zm3.269-30.082V28h-7.771l-2.042,9.948Z" transform="translate(2709.469 2984.747)" fill="#2b98d3"/>
  </g>
</svg>
