<svg xmlns="http://www.w3.org/2000/svg" width="42.332" height="42.333" viewBox="0 0 42.332 42.333">
  <g id="noun-supply-chain-4908579" transform="translate(-105.008 -34.996)">
    <path id="Path_247" data-name="Path 247" d="M144.956,46.395a1.512,1.512,0,0,0-2.681,1.4,17.949,17.949,0,0,1,2.042,8.371,18.162,18.162,0,1,1-8-15.031,1.493,1.493,0,0,0-1.075,1.424,1.512,1.512,0,0,0,1.512,1.512h3.024a1.512,1.512,0,0,0,1.512-1.512V39.532a1.507,1.507,0,0,0-2.879-.627,21.1,21.1,0,1,0,6.542,7.489Z" fill="#2b98d3"/>
    <path id="Path_248" data-name="Path 248" d="M332.5,210.756v3.024a.756.756,0,0,0,.756.756h3.024a.756.756,0,0,0,.756-.756v-3.024a.756.756,0,0,0-.756-.756h-3.024A.756.756,0,0,0,332.5,210.756Z" transform="translate(-207.838 -159.885)" fill="#2b98d3"/>
    <path id="Path_249" data-name="Path 249" d="M262.5,210.756v3.024a.756.756,0,0,0,.756.756h3.024a.756.756,0,0,0,.756-.756v-3.024a.756.756,0,0,0-.756-.756h-3.024A.756.756,0,0,0,262.5,210.756Z" transform="translate(-143.885 -159.885)" fill="#2b98d3"/>
    <path id="Path_250" data-name="Path 250" d="M192.5,210.756v3.024a.756.756,0,0,0,.756.756h3.024a.756.756,0,0,0,.756-.756v-3.024a.756.756,0,0,0-.756-.756h-3.024A.756.756,0,0,0,192.5,210.756Z" transform="translate(-79.933 -159.885)" fill="#2b98d3"/>
    <path id="Path_251" data-name="Path 251" d="M231.28,140h-3.024a.756.756,0,0,0-.756.756v3.024a.756.756,0,0,0,.756.756h3.024a.756.756,0,0,0,.756-.756v-3.024A.756.756,0,0,0,231.28,140Z" transform="translate(-111.909 -95.932)" fill="#2b98d3"/>
    <path id="Path_252" data-name="Path 252" d="M301.28,140h-3.024a.756.756,0,0,0-.756.756v3.024a.756.756,0,0,0,.756.756h3.024a.756.756,0,0,0,.756-.756v-3.024A.756.756,0,0,0,301.28,140Z" transform="translate(-175.862 -95.932)" fill="#2b98d3"/>
    <path id="Path_253" data-name="Path 253" d="M175,217.559V222.1a1.512,1.512,0,0,0,1.512,1.512h1.512a3.024,3.024,0,0,0,6.048,0h12.095a3.024,3.024,0,1,0,6.047,0h1.512a1.512,1.512,0,0,0,1.512-1.512v-6.048a1.511,1.511,0,0,0-.443-1.069l-4.536-4.536A1.512,1.512,0,0,0,199.19,210h-3.024a1.512,1.512,0,0,0-1.512,1.512v4.536H176.512A1.512,1.512,0,0,0,175,217.559Zm24.19,7.559a1.512,1.512,0,1,1,1.512-1.512A1.513,1.513,0,0,1,199.19,225.119Zm-3.024-12.851a.756.756,0,0,1,.756-.756h2.268l4.536,4.536h-7.559ZM181.048,222.1a1.512,1.512,0,1,1-1.512,1.512A1.513,1.513,0,0,1,181.048,222.1Z" transform="translate(-63.945 -159.885)" fill="#2b98d3"/>
  </g>
</svg>
