<svg xmlns="http://www.w3.org/2000/svg" width="48.414" height="33.32" viewBox="0 0 48.414 33.32">
  <g id="Group_1637" data-name="Group 1637" transform="translate(910.535 -3667.039)">
    <path id="Path_257" data-name="Path 257" d="M160.411,374.733a5.93,5.93,0,0,1-5.935,5.935H117.932A5.931,5.931,0,0,1,112,374.733a1.215,1.215,0,0,1,1.213-1.213h19.1v2.307H140.1v-2.307h19.1a1.214,1.214,0,0,1,1.213,1.213Z" transform="translate(-1022.531 3319.691)" fill="#2b98d3"/>
    <path id="Path_258" data-name="Path 258" d="M183.258,116.2H146.19a2.443,2.443,0,0,0-2.443,2.443v21.451h19.359V142.4l3.235-.029v-2.278H185.7V118.643a2.443,2.443,0,0,0-2.443-2.443ZM155.9,136.516a7.786,7.786,0,1,1,7.786-7.786A7.792,7.792,0,0,1,155.9,136.516Zm24.286-.855H167.995a1.139,1.139,0,1,1,0-2.278h12.194a1.139,1.139,0,0,1,0,2.278Zm0-5.792H167.995a1.139,1.139,0,1,1,0-2.278h12.194a1.139,1.139,0,0,1,0,2.278Zm0-5.793H167.995a1.139,1.139,0,1,1,0-2.278h12.194a1.139,1.139,0,0,1,0,2.278Z" transform="translate(-1051.052 3550.839)" fill="#2b98d3"/>
  </g>
</svg>
