<svg xmlns="http://www.w3.org/2000/svg" width="41.785" height="41.785" viewBox="0 0 41.785 41.785">
  <path id="noun-loyalty-832704" d="M81.407,38.07a7.6,7.6,0,1,1,0-15.195c.065,0,.127,0,.192,0,.048.232.143.443.207.669.078.279.154.558.256.826s.215.5.334.743.258.5.4.741c.133.22.264.439.414.648a9.554,9.554,0,0,0,.674.817,9.1,9.1,0,0,0,.667.667,9.478,9.478,0,0,0,.826.684c.2.146.418.274.632.4.249.15.5.289.767.416.236.116.469.228.716.323a9.079,9.079,0,0,0,.9.281c.2.057.393.142.6.186,0,.063,0,.127,0,.192a7.605,7.605,0,0,1-7.6,7.6M100.4,3.882a7.6,7.6,0,1,1-.192,15.191c-.048-.232-.143-.442-.207-.667-.078-.279-.154-.558-.256-.826s-.215-.5-.334-.743-.258-.5-.4-.743c-.133-.22-.262-.437-.412-.646a9.554,9.554,0,0,0-.674-.817,9.1,9.1,0,0,0-.667-.667,9.479,9.479,0,0,0-.826-.684c-.2-.146-.416-.274-.631-.4-.251-.152-.505-.291-.769-.418-.236-.116-.469-.228-.716-.323a9.079,9.079,0,0,0-.9-.281c-.2-.057-.393-.142-.6-.186,0-.063,0-.127,0-.192a7.605,7.605,0,0,1,7.6-7.6m-3.82,17.24a5.678,5.678,0,0,1-5.531,5.533c-.013,0-.025.008-.038.008-.038,0-.072.011-.108.011s-.07-.01-.108-.011c-.013,0-.025-.008-.038-.008a5.678,5.678,0,0,1-5.531-5.533.585.585,0,0,1-.012-.059c0-.03-.009-.057-.009-.087s.008-.057.009-.087a.585.585,0,0,1,.012-.059A5.678,5.678,0,0,1,90.758,15.3c.013,0,.025-.008.038-.008.038,0,.072-.012.108-.012s.07.01.108.012c.013,0,.025.008.038.008a5.678,5.678,0,0,1,5.531,5.533.583.583,0,0,1,.012.059c0,.03.009.057.009.087s-.008.057-.009.087a.583.583,0,0,1-.012.059m10.107-.146A11.391,11.391,0,1,0,90.9,5.193,11.391,11.391,0,1,0,75.121,20.977,11.391,11.391,0,1,0,90.9,36.76a11.391,11.391,0,1,0,15.783-15.783" transform="translate(-70.012 -0.084)" fill="#2b98d3" fill-rule="evenodd"/>
</svg>
