<svg xmlns="http://www.w3.org/2000/svg" width="45.753" height="41.333" viewBox="0 0 45.753 41.333">
  <g id="Group_1636" data-name="Group 1636" transform="translate(-2304.479 -2842.802)">
    <path id="Path_254" data-name="Path 254" d="M445.651,456.144a2.973,2.973,0,1,1-2.972-2.973,2.972,2.972,0,0,1,2.972,2.973" transform="translate(1895.275 2425.018)" fill="#2b98d3"/>
    <path id="Path_255" data-name="Path 255" d="M283.251,456.144a2.973,2.973,0,1,1-2.973-2.973,2.973,2.973,0,0,1,2.973,2.973" transform="translate(2043.869 2425.018)" fill="#2b98d3"/>
    <path id="Path_256" data-name="Path 256" d="M126.653,49.779s-.334-1.259-.7-2.529a11.007,11.007,0,0,0-.935-2.608V44.6L91.786,40.657,86.758,36.9H82.5a1.6,1.6,0,1,0,0,3.2h3.7l2.849,2.378s4.982,24.67,5.187,25.655a1.58,1.58,0,0,0,1.187,1.219V69.4H119.1a1.584,1.584,0,0,0,0-3.169H97.074c-.126-.565-.755-2.95-.878-3.5h25.148Z" transform="translate(2223.578 2805.9)" fill="#2b98d3"/>
  </g>
</svg>
