<svg xmlns="http://www.w3.org/2000/svg" width="42.525" height="42.333" viewBox="0 0 42.525 42.333">
  <path id="Path_246" data-name="Path 246" d="M83.044,32.65a20.745,20.745,0,0,0-7.21,4.365l.02.023q.454.514.94,1a21.336,21.336,0,0,0,7.1,4.687,21.117,21.117,0,0,0,3.471,1.058,21.353,21.353,0,0,0,2.273.356l.019-.012q-.772-.857-1.482-1.767a31.394,31.394,0,0,1-4.258-7.325q-.475-1.152-.858-2.34l-.015-.045Zm17.577.015A31.424,31.424,0,0,1,94,44.137a21.238,21.238,0,0,0,13.787-7.122,20.716,20.716,0,0,0-7.17-4.35Zm-8.061-1.513V43.5l.015-.016q.783-.842,1.5-1.74a29.923,29.923,0,0,0,4.239-7.15q.485-1.16.87-2.356l.013-.04a25.859,25.859,0,0,0-6.64-1.043Zm-1.5,0a25.868,25.868,0,0,0-6.6,1.031l0,.009q.384,1.2.867,2.357A29.9,29.9,0,0,0,89.561,41.7q.716.9,1.5,1.742l0,0v-12.3Zm22.01-7.43H102.127a31.713,31.713,0,0,1-1.083,7.508,22.319,22.319,0,0,1,7.7,4.625,21.168,21.168,0,0,0,4.333-12.133Zm-31.532,0H70.55a21.168,21.168,0,0,0,4.333,12.133,22.327,22.327,0,0,1,7.738-4.64l-.008-.03q-.16-.6-.3-1.2-.278-1.228-.458-2.475t-.26-2.5q-.041-.638-.056-1.277v-.01Zm19.089,0H92.56v5.933a27.358,27.358,0,0,1,7.061,1.106,30.214,30.214,0,0,0,1.01-7.039Zm-9.567,5.933V23.722H83.038a30.223,30.223,0,0,0,1.007,7.027,27.343,27.343,0,0,1,7.019-1.094ZM84.034,15.24q-.151.57-.279,1.146-.251,1.126-.416,2.269-.171,1.185-.247,2.38-.037.585-.052,1.172v.019h8.026V16.292A27.336,27.336,0,0,1,84.046,15.2l-.011.041Zm15.586-.053a27.338,27.338,0,0,1-7.061,1.106v5.933h8.071a30.211,30.211,0,0,0-1.01-7.039Zm9.12-5.094a22.317,22.317,0,0,1-7.7,4.625l.012.045q.16.6.3,1.2.278,1.228.458,2.475t.26,2.5q.041.638.056,1.277v.01h10.947a21.168,21.168,0,0,0-4.333-12.133Zm-33.857,0a21.168,21.168,0,0,0-4.333,12.133H81.543a31.7,31.7,0,0,1,1.079-7.493,22.333,22.333,0,0,1-7.738-4.64ZM91.065,2.5a29.944,29.944,0,0,0-6.6,11.266,25.868,25.868,0,0,0,6.6,1.031Zm1.5-.048V14.8a25.856,25.856,0,0,0,6.64-1.043,29.942,29.942,0,0,0-6.64-11.3Zm-2.89-.645A21.239,21.239,0,0,0,75.834,8.933a20.731,20.731,0,0,0,7.21,4.365l.015-.045q.383-1.186.858-2.34a31.394,31.394,0,0,1,4.258-7.325q.709-.91,1.482-1.767l.013-.015Zm4.342.015q.772.857,1.482,1.767a31.394,31.394,0,0,1,4.258,7.325q.475,1.152.858,2.34l.01.03a20.727,20.727,0,0,0,7.17-4.35l-.02-.023q-.454-.514-.94-1a21.34,21.34,0,0,0-7.07-4.675,21.133,21.133,0,0,0-5.741-1.423l-.007.008Z" transform="translate(-70.55 -1.806)" fill="#2b98d3" fill-rule="evenodd"/>
</svg>
