<svg xmlns="http://www.w3.org/2000/svg" width="111.469" height="97.086" viewBox="0 0 111.469 97.086"><g transform="translate(-1 -4.989)"><path d="M20.777,47.969c-.442-.036-.885-.088-1.325-.151l-1.143-.167s-.971-3.317-.969-3.317A18.7,18.7,0,0,1,13.65,42.81l-3.035,1.661-.926-.689a21.5,21.5,0,0,1-4.417-4.408l-.69-.924s1.665-3.03,1.665-3.028a18.64,18.64,0,0,1-1.528-3.679l-3.324-.969-.167-1.141a21.545,21.545,0,0,1,0-6.232l.167-1.141s3.324-.969,3.324-.967a18.551,18.551,0,0,1,1.528-3.679l-1.665-3.03.69-.924A21.5,21.5,0,0,1,9.689,9.252l.926-.689,3.035,1.661A18.726,18.726,0,0,1,17.337,8.7l.971-3.317,1.143-.167a21.686,21.686,0,0,1,6.246,0l1.143.167.324,1.107s.647,2.21.645,2.21A18.637,18.637,0,0,1,31.5,10.224l3.037-1.661.926.689a21.5,21.5,0,0,1,4.417,4.408l.69.924S38.9,17.613,38.9,17.611a18.64,18.64,0,0,1,1.528,3.679l3.324.969.167,1.141c.063.44.115.881.151,1.322H69.4c.036-.441.088-.883.151-1.322l.167-1.141s3.324-.969,3.324-.967a18.552,18.552,0,0,1,1.528-3.679L72.9,14.583l.69-.924a21.5,21.5,0,0,1,4.417-4.408l.926-.689,3.035,1.661A18.726,18.726,0,0,1,85.657,8.7l.971-3.317,1.143-.167a21.686,21.686,0,0,1,6.246,0l1.143.167.324,1.107s.647,2.21.645,2.21a18.637,18.637,0,0,1,3.687,1.525l3.037-1.661.926.689a21.5,21.5,0,0,1,4.417,4.408l.69.924s-1.665,3.03-1.665,3.028a18.64,18.64,0,0,1,1.528,3.679l3.324.969.167,1.141a21.546,21.546,0,0,1,0,6.232l-.167,1.141s-3.324.969-3.324.967a18.551,18.551,0,0,1-1.528,3.679l1.665,3.03-.69.924a21.5,21.5,0,0,1-4.417,4.408l-.926.689L99.819,42.81a18.726,18.726,0,0,1-3.687,1.525l-.971,3.317-1.143.167c-.44.063-.883.115-1.325.151V59.494l17.979,8.97V92.208l-19.777,9.867L71.118,92.208V82.13H42.351V92.208l-19.777,9.867L2.8,92.208V68.463l17.979-8.97Zm23.3-19.658c-.036.441-.088.883-.151,1.322l-.167,1.141s-3.324.969-3.324.967A18.551,18.551,0,0,1,38.9,35.42l1.665,3.03-.69.924a21.5,21.5,0,0,1-4.417,4.408l-.926.689L31.5,42.81a18.726,18.726,0,0,1-3.687,1.525l-.971,3.317-1.143.167c-.44.063-.883.115-1.325.151V59.494l17.979,8.97V78.542H71.118V68.463l4.4-2.2,1.609,3.209-.8.4L87.39,76.246a5.389,5.389,0,0,1,1.706-.985V63.5l-1.214.6L86.276,60.9,89.1,59.494V47.969c-.442-.036-.885-.088-1.325-.151l-1.143-.167s-.971-3.317-.969-3.317a18.637,18.637,0,0,1-3.687-1.525l-3.037,1.661-.926-.689a21.5,21.5,0,0,1-4.417-4.408l-.69-.924s1.665-3.03,1.665-3.028a18.641,18.641,0,0,1-1.528-3.679l-3.324-.969-.167-1.141c-.063-.44-.115-.881-.151-1.322Zm30.64,44.776v14.5l10.877-6.266a5.42,5.42,0,0,1,0-1.966ZM76.33,90.8c3.042,1.516,9.592,4.785,12.767,6.369V85.411a5.389,5.389,0,0,1-1.706-.985Zm16.363,6.369L105.459,90.8,94.4,84.426a5.389,5.389,0,0,1-1.706.985Zm14.383-9.582v-14.5L96.2,79.353a5.42,5.42,0,0,1,0,1.966Zm-1.616-17.712L92.692,63.5V75.261a5.389,5.389,0,0,1,1.706.985ZM20.777,63.5,8.01,69.873l11.061,6.372a5.389,5.389,0,0,1,1.706-.985ZM6.394,73.086v14.5l10.877-6.266a5.421,5.421,0,0,1,0-1.966ZM8.01,90.8c3.042,1.516,9.592,4.785,12.767,6.369V85.411a5.389,5.389,0,0,1-1.706-.985Zm16.363,6.369L37.139,90.8,26.079,84.426a5.389,5.389,0,0,1-1.706.985Zm14.383-9.582v-14.5L27.878,79.353a5.421,5.421,0,0,1,0,1.966ZM37.139,69.873C34.1,68.358,27.548,65.089,24.373,63.5V75.261a5.389,5.389,0,0,1,1.706.985Zm53.755,8.668a1.794,1.794,0,1,0,1.8,1.794A1.8,1.8,0,0,0,90.895,78.542ZM22.575,82.13a1.794,1.794,0,1,0-1.8-1.794A1.8,1.8,0,0,0,22.575,82.13ZM83.349,62.36l1.609,3.209L79.663,68.21,78.056,65ZM24.047,8.638a17.935,17.935,0,0,0-2.945,0l-.892,3.05-1.025.237a14.993,14.993,0,0,0-4.556,1.882l-.892.556-2.792-1.527a17.769,17.769,0,0,0-2.082,2.077l1.53,2.786-.557.89a14.925,14.925,0,0,0-1.886,4.546l-.237,1.023-3.056.89a17.433,17.433,0,0,0,0,2.939l3.056.89L7.951,29.9a14.925,14.925,0,0,0,1.886,4.546l.557.89L8.864,38.12A17.769,17.769,0,0,0,10.946,40.2l2.792-1.527.892.556a14.993,14.993,0,0,0,4.556,1.882l1.025.237L21.1,44.4a17.935,17.935,0,0,0,2.945,0l.892-3.05,1.025-.237a14.993,14.993,0,0,0,4.556-1.882l.892-.556L34.2,40.2a17.769,17.769,0,0,0,2.082-2.077l-1.53-2.786.557-.89A14.924,14.924,0,0,0,37.2,29.9l.237-1.023,3.056-.89a17.818,17.818,0,0,0,0-2.939l-3.056-.89L37.2,23.135a14.924,14.924,0,0,0-1.886-4.546l-.557-.89,1.53-2.786A17.769,17.769,0,0,0,34.2,12.836l-2.792,1.527-.892-.556a14.993,14.993,0,0,0-4.556-1.882l-1.025-.237Zm-1.472,7.641A10.238,10.238,0,1,1,12.314,26.517,10.254,10.254,0,0,1,22.575,16.279Zm0,3.588a6.65,6.65,0,1,0,6.665,6.65A6.661,6.661,0,0,0,22.575,19.867ZM92.367,8.638a17.935,17.935,0,0,0-2.945,0l-.892,3.05-1.025.237a14.993,14.993,0,0,0-4.556,1.882l-.892.556-2.792-1.527a17.77,17.77,0,0,0-2.082,2.077l1.53,2.786-.557.89a14.924,14.924,0,0,0-1.886,4.546l-.237,1.023-3.056.89a17.818,17.818,0,0,0,0,2.939l3.056.89.237,1.023a14.924,14.924,0,0,0,1.886,4.546l.557.89-1.53,2.786A17.77,17.77,0,0,0,79.266,40.2l2.792-1.527.892.556a14.993,14.993,0,0,0,4.556,1.882l1.025.237.892,3.05a17.935,17.935,0,0,0,2.945,0l.892-3.05,1.025-.237a14.993,14.993,0,0,0,4.556-1.882l.892-.556,2.792,1.527a17.768,17.768,0,0,0,2.082-2.077l-1.53-2.786.557-.89a14.924,14.924,0,0,0,1.886-4.546l.237-1.023,3.056-.89a17.818,17.818,0,0,0,0-2.939l-3.056-.89-.237-1.023a14.925,14.925,0,0,0-1.886-4.546l-.557-.89,1.53-2.786a17.769,17.769,0,0,0-2.082-2.077l-2.792,1.527-.892-.556a14.993,14.993,0,0,0-4.556-1.882l-1.025-.237Zm1.823,12.1-1.562-.89,1.782-3.116,1.562.89a10.245,10.245,0,1,1-15.305,9.713l-.142-1.789,3.585-.283.142,1.789a6.664,6.664,0,1,0,9.939-6.313Zm-7.948,1.023-1.287,1.252-2.512-2.567L83.73,19.19a10.286,10.286,0,0,1,3.621-2.284l1.686-.619,1.244,3.365-1.688.621A6.676,6.676,0,0,0,86.242,21.759Z" transform="translate(0 0)" fill="#2b98d3" fill-rule="evenodd"/></g></svg>