<svg xmlns="http://www.w3.org/2000/svg" width="116.581" height="116.65" viewBox="0 0 116.581 116.65"><g transform="translate(-0.697 -0.69)"><path d="M58.36,21.28c.488,1.069.938,2.176,1.351,3.264a1.876,1.876,0,0,0,1.707,1.182,2.007,2.007,0,0,0,.657-.113,1.876,1.876,0,0,0,1.069-2.364c-.45-1.163-.938-2.345-1.463-3.489a1.826,1.826,0,1,0-3.32,1.519Z" transform="translate(49.939 15.346)" fill="#2b98d3" stroke="#2b98d3" stroke-width="1"/><path d="M60.126,26.464c.263,1.144.488,2.307.675,3.47a1.876,1.876,0,0,0,1.876,1.538h.3a1.876,1.876,0,0,0,1.444-2.064c-.206-1.238-.45-2.495-.732-3.752a1.827,1.827,0,0,0-3.564.807Z" transform="translate(51.587 20.198)" fill="#2b98d3" stroke="#2b98d3" stroke-width="1"/><path d="M57.729,19.652a1.825,1.825,0,0,0,3.1-1.932c-.657-1.069-1.369-2.12-2.1-3.133a1.876,1.876,0,1,0-2.964,2.139Q56.773,18.245,57.729,19.652Z" transform="translate(47.231 10.727)" fill="#2b98d3" stroke="#2b98d3" stroke-width="1"/><path d="M42.572,6.613c1.107.413,2.214.863,3.264,1.351a1.834,1.834,0,0,0,1.52-3.339c-1.144-.506-2.307-.994-3.489-1.444a1.876,1.876,0,0,0-1.294,3.433Z" transform="translate(35.487 1.724)" fill="#2b98d3" stroke="#2b98d3" stroke-width="1"/><path d="M47.411,8.934c1.013.619,1.988,1.294,2.945,1.876a1.876,1.876,0,1,0,2.232-2.8c-1.032-.732-2.082-1.444-3.152-2.1a1.876,1.876,0,0,0-1.876,3.1Z" transform="translate(40.16 4.074)" fill="#2b98d3" stroke="#2b98d3" stroke-width="1"/><path d="M54.43,14.818a1.8,1.8,0,1,0,2.589-2.495c-.863-.919-1.763-1.876-2.664-2.683a1.876,1.876,0,0,0-2.514,2.683A32.751,32.751,0,0,1,54.43,14.818Z" transform="translate(44.058 7.158)" fill="#2b98d3" stroke="#2b98d3" stroke-width="1"/><path d="M37.651,5.272c1.163.188,2.326.413,3.47.675a1.557,1.557,0,0,0,.413,0A1.876,1.876,0,0,0,41.946,2.4q-1.876-.413-3.752-.732a1.876,1.876,0,1,0-.582,3.621Z" transform="translate(30.167 0.308)" fill="#2b98d3" stroke="#2b98d3" stroke-width="1"/><path d="M87.809,31.766v1.763a54.176,54.176,0,0,1-53.745,54.12,1.99,1.99,0,0,0-.356,0H31.926a1.821,1.821,0,1,0-.113,3.639h1.444a1.877,1.877,0,0,0,.45.094A57.853,57.853,0,0,0,91.5,33.529c0-.638,0-1.257,0-1.876a1.876,1.876,0,0,0-3.658.131Z" transform="translate(25.274 25.458)" fill="#2b98d3" stroke="#2b98d3" stroke-width="1"/><path d="M38.647,49.176a2.926,2.926,0,0,0,2.889,2.87h8.029a2.945,2.945,0,0,0,2.908-2.983V36.8a2.926,2.926,0,0,0-2.908-2.964H41.536a2.926,2.926,0,0,0-2.889,2.851h-2.27l-3.1-7.5a4.634,4.634,0,1,0-3.564,1.688,4.127,4.127,0,0,0,.675,0l3.339,8.217a1.651,1.651,0,0,0,1.538,1.032h3.358v1.276h-5.14L30.3,39.8a1.519,1.519,0,0,0-.732-.188h-3.9a4.634,4.634,0,1,0-.094,3.3h3.6l3.189,1.595a1.67,1.67,0,0,0,.732.169h5.534v1.351H35.271a1.67,1.67,0,0,0-1.444.844L31.069,51.84a4.633,4.633,0,1,0,3.32,4.277,4.484,4.484,0,0,0-.694-2.382l2.532-4.558ZM28.367,26.1a1.351,1.351,0,0,1,1.351-1.351A1.36,1.36,0,1,1,28.367,26.1ZM21.276,42.31a1.369,1.369,0,0,1-1.351-1.369,1.351,1.351,0,0,1,1.351-1.351,1.369,1.369,0,1,1,0,2.739ZM41.911,37.1H49.19V48.726H41.93ZM29.718,57.486a1.369,1.369,0,0,1-1.351-1.369,1.351,1.351,0,0,1,1.351-1.351,1.36,1.36,0,1,1,0,2.72Z" transform="translate(13.544 17.877)" fill="#2b98d3" stroke="#2b98d3" stroke-width="1"/><path d="M32.925,16.339V40.9a1.651,1.651,0,1,0,3.283,0V16.64a5.44,5.44,0,0,1,4.952-3.527,5.628,5.628,0,0,1,5.4,5.965,3.433,3.433,0,0,1,0,.619h0a6.191,6.191,0,0,1-3.039,4.315,1.632,1.632,0,0,0-.657,2.232,1.651,1.651,0,0,0,1.444.863A1.707,1.707,0,0,0,45.1,26.9a9.38,9.38,0,0,0,4.615-6.284,5.2,5.2,0,0,1,4.108-2.007,5.628,5.628,0,0,1,5.421,5.965,6.378,6.378,0,0,1-.6,2.758h0a5.8,5.8,0,0,1-3.752,2.608,1.651,1.651,0,0,0,.263,3.264h.263a8.854,8.854,0,0,0,4.934-2.664,4.971,4.971,0,0,1,2.026-.431,5.722,5.722,0,0,1,5.44,5.965,6.378,6.378,0,0,1-.957,3.358h0a5.215,5.215,0,0,1-4.352,2.608,1.651,1.651,0,1,0,0,3.3h0a10.5,10.5,0,0,0,1.107-.131,2.288,2.288,0,0,0,.506,0,4.108,4.108,0,0,1,.675,0,6,6,0,0,1,.488,11.837l-.825-.319a1.67,1.67,0,0,0-2.026,1.163,1.651,1.651,0,0,0,1.144,2.026,5.177,5.177,0,0,1,2.139,1.2,6.322,6.322,0,0,1,1.67,4.315,5.74,5.74,0,0,1-5.421,5.984,4.727,4.727,0,0,1-1.97-.45A9.042,9.042,0,0,0,56.881,68.9a1.651,1.651,0,0,0-2.12.957,1.613,1.613,0,0,0,.938,2.064A5.946,5.946,0,0,1,57.575,73.1a1,1,0,0,0,.113.188,6.4,6.4,0,0,1,1.388,3.977,5.722,5.722,0,0,1-5.459,6.04,5.084,5.084,0,0,1-4.052-2.045,9.492,9.492,0,0,0-4.615-6.247,1.651,1.651,0,0,0-2.232.657,1.613,1.613,0,0,0,.657,2.232,6.209,6.209,0,0,1,2.945,4.183.769.769,0,0,0,0,.206,4.727,4.727,0,0,1,.131,1.051h0v.281a5.628,5.628,0,0,1-5.4,5.965A5.44,5.44,0,0,1,36.1,86.067V65.038a1.651,1.651,0,1,0-3.283,0V86.5a1.482,1.482,0,0,0,0,.563,8.7,8.7,0,0,0,8.141,5.947,8.873,8.873,0,0,0,8.535-7.5,8.329,8.329,0,0,0,3.921.994,9,9,0,0,0,8.7-9.267,9.379,9.379,0,0,0-.356-2.626,9.023,9.023,0,0,0,8.948-9.229A9.53,9.53,0,0,0,69.6,60.911a1.276,1.276,0,0,0-.244-.657,7.032,7.032,0,0,0-.657-.825,9.511,9.511,0,0,0-.188-16.883,9.567,9.567,0,0,0,2.439-6.434,9.023,9.023,0,0,0-8.7-9.267,10.187,10.187,0,0,0,.263-2.289,9.023,9.023,0,0,0-8.685-9.248,8.385,8.385,0,0,0-4.24,1.182A8.836,8.836,0,0,0,41.217,9.83a8.7,8.7,0,0,0-8.2,5.947A1.332,1.332,0,0,0,32.925,16.339Z" transform="translate(27.67 7.568)" fill="#2b98d3" stroke="#2b98d3" stroke-width="1"/><path d="M47.506,39.561a1.651,1.651,0,0,0-2.27-.525,3.583,3.583,0,0,1-2.551.356H42.46a1.164,1.164,0,0,0-.356,0,1.688,1.688,0,0,0-.3,0,.92.92,0,0,0-.3,0,1.706,1.706,0,0,0-.3.206l-.188.131h0a2.232,2.232,0,0,0-.169.281,1.032,1.032,0,0,0-.15.281h0v.225a2.574,2.574,0,0,0,0,.356.788.788,0,0,0,0,.3,1.407,1.407,0,0,0,0,.3,1.557,1.557,0,0,0,.206.281,1.966,1.966,0,0,0,.131.206,3.846,3.846,0,0,1,.582,2.476,1.632,1.632,0,0,0,1.5,1.763h.131A1.67,1.67,0,0,0,44.9,44.683a10.28,10.28,0,0,0-.15-2.214,6.772,6.772,0,0,0,2.232-.863,1.632,1.632,0,0,0,.525-2.045Z" transform="translate(34.587 32.932)" fill="#2b98d3" stroke="#2b98d3" stroke-width="1"/><path d="M40.156,26.776a.957.957,0,0,0,0,.244,1.5,1.5,0,0,0,.15.3l.188.281a.994.994,0,0,0,.188.113.976.976,0,0,0,.319.225h.263a1.088,1.088,0,0,0,.356,0h.488a3.377,3.377,0,0,1,2.532.356,1.726,1.726,0,0,0,.882.263,1.651,1.651,0,0,0,.9-3.039,7.5,7.5,0,0,0-2.251-.863,9.135,9.135,0,0,0,.15-2.214,1.651,1.651,0,0,0-1.763-1.5,1.632,1.632,0,0,0-1.519,1.763,3.864,3.864,0,0,1-.563,2.476,2.06,2.06,0,0,1-.15.188l-.188.281a1.032,1.032,0,0,0-.094.319,1.425,1.425,0,0,0,0,.3,1.032,1.032,0,0,0,.113.506Z" transform="translate(34.02 17.297)" fill="#2b98d3" stroke="#2b98d3" stroke-width="1"/><path d="M42.215,28.224a3.339,3.339,0,0,1-2.42-.863,1.651,1.651,0,0,0-2.27,2.382,6.566,6.566,0,0,0,2.007,1.294,8.892,8.892,0,0,0-.563,2.139,1.632,1.632,0,0,0,1.444,1.876h.244a1.651,1.651,0,0,0,1.632-1.463,3.977,3.977,0,0,1,1.051-2.307l.169-.169a.994.994,0,0,0,.244-.244.675.675,0,0,0,.15-.281,1.3,1.3,0,0,0,.131-.281v-.582h0a1.875,1.875,0,0,0,0-.3,1.632,1.632,0,0,0-.131-.319.638.638,0,0,0-.15-.169,1.613,1.613,0,0,0-.244-.263l-.281-.15a1.762,1.762,0,0,0-.281-.113,1.163,1.163,0,0,0-.356,0C42.365,28.243,42.309,28.205,42.215,28.224Z" transform="translate(31.455 22.603)" fill="#2b98d3" stroke="#2b98d3" stroke-width="1"/><path d="M37.488,40.812a1.613,1.613,0,0,0,1.2.525,1.651,1.651,0,0,0,1.126-.45,3.433,3.433,0,0,1,2.42-.844h.338a1.557,1.557,0,0,0,.506-.131h.188a1.238,1.238,0,0,0,.45-.431h0a.957.957,0,0,0,.131-.319,1.878,1.878,0,0,0,0-.3h0v-.6a1.875,1.875,0,0,0-.131-.281,1.032,1.032,0,0,0-.15-.281.994.994,0,0,0-.244-.244l-.169-.169A3.752,3.752,0,0,1,42.1,34.978a1.651,1.651,0,0,0-3.264.375,8.7,8.7,0,0,0,.582,2.176,6.734,6.734,0,0,0-2.026,1.257A1.632,1.632,0,0,0,37.488,40.812Z" transform="translate(31.437 28.455)" fill="#2b98d3" stroke="#2b98d3" stroke-width="1"/><path d="M49.7,32.3a1.641,1.641,0,0,0-2.889-1.557c-.356.638-1.163,1.632-1.876,1.763h-.188a1.2,1.2,0,0,0-.356.15,2.382,2.382,0,0,0-.225.188,1.069,1.069,0,0,0-.394.544.845.845,0,0,0-.113.225h0a.938.938,0,0,0,0,.319,1.032,1.032,0,0,0,0,.338h0l.131.338v.169a1.276,1.276,0,0,0,.375.45h.094a1.688,1.688,0,0,0,.45.225h0a3.377,3.377,0,0,1,1.876,1.688,1.651,1.651,0,0,0,1.5.938,1.632,1.632,0,0,0,1.5-2.326,7.691,7.691,0,0,0-1.407-1.876A8.7,8.7,0,0,0,49.7,32.3Z" transform="translate(37.18 25.13)" fill="#2b98d3" stroke="#2b98d3" stroke-width="1"/><path d="M9.41,51.044a9.38,9.38,0,0,0,5.009,8.385,7.036,7.036,0,0,0-.657.825,1.276,1.276,0,0,0-.244.657,9.53,9.53,0,0,0-1.126,4.465,9.023,9.023,0,0,0,8.723,9.267,9.38,9.38,0,0,0-.356,2.626,9,9,0,0,0,8.7,9.267,8.329,8.329,0,0,0,3.921-.994,8.873,8.873,0,0,0,8.535,7.5,8.723,8.723,0,0,0,8.16-5.984,1.482,1.482,0,0,0,.094-.563V65.038a1.651,1.651,0,1,0-3.283,0V86.2a5.44,5.44,0,0,1-4.952,3.527,5.628,5.628,0,0,1-5.4-5.965v-.281h0a4.6,4.6,0,0,1,.131-1.051V82.24a6.153,6.153,0,0,1,3.02-4.277,1.613,1.613,0,0,0,.657-2.232,1.651,1.651,0,0,0-2.232-.657A9.492,9.492,0,0,0,33.5,81.321a5.084,5.084,0,0,1-4.014,1.988,5.722,5.722,0,0,1-5.421-5.965,6.4,6.4,0,0,1,1.463-4.052.994.994,0,0,0,.113-.188,5.947,5.947,0,0,1,1.876-1.182,1.632,1.632,0,0,0,.957-2.12,1.651,1.651,0,0,0-2.12-.957,9.042,9.042,0,0,0-3.114,2.064,4.727,4.727,0,0,1-1.97.45,5.74,5.74,0,0,1-5.421-5.984,6.247,6.247,0,0,1,1.67-4.3,5.009,5.009,0,0,1,2.139-1.219,1.654,1.654,0,0,0-.882-3.189l-.825.319a6,6,0,0,1,.338-11.912,4.107,4.107,0,0,1,.675,0,2.289,2.289,0,0,0,.506,0,10.506,10.506,0,0,0,1.107.131h0a1.651,1.651,0,0,0,0-3.3,5.215,5.215,0,0,1-4.089-2.4h0a6.378,6.378,0,0,1-.957-3.358,5.722,5.722,0,0,1,5.44-5.965,4.971,4.971,0,0,1,2.026.432,8.854,8.854,0,0,0,4.933,2.664h.263a1.651,1.651,0,0,0,.263-3.264A5.8,5.8,0,0,1,24.7,27.407h0a6.4,6.4,0,0,1-.619-2.758,5.722,5.722,0,0,1,5.2-6.04,5.2,5.2,0,0,1,4.071,2.064,9.38,9.38,0,0,0,4.671,6.359,1.707,1.707,0,0,0,.788.206,1.651,1.651,0,0,0,.788-3.1,6.228,6.228,0,0,1-3.039-4.333h0v-.619a5.628,5.628,0,0,1,5.4-5.965,5.44,5.44,0,0,1,4.952,3.527V40.9a1.651,1.651,0,1,0,3.283,0V16.339a1.482,1.482,0,0,0-.094-.563A8.723,8.723,0,0,0,41.957,9.83a8.817,8.817,0,0,0-8.367,6.678,8.235,8.235,0,0,0-4.315-1.2,9.023,9.023,0,0,0-8.723,9.267,10.186,10.186,0,0,0,.263,2.289,9.023,9.023,0,0,0-8.7,9.267,9.567,9.567,0,0,0,2.439,6.434A9.38,9.38,0,0,0,9.41,51.044Z" transform="translate(7.195 7.568)" fill="#2b98d3" stroke="#2b98d3" stroke-width="1"/><path d="M24.472,37.327a.939.939,0,0,0,0-.225h0a1.557,1.557,0,0,0-.169-.3,1.257,1.257,0,0,0-.169-.263h0a1.969,1.969,0,0,0-.206-.131,1.557,1.557,0,0,0-.281-.206h-1.2a3.377,3.377,0,0,1-2.532-.356,1.651,1.651,0,1,0-1.82,2.645,6.772,6.772,0,0,0,2.232.863,8.216,8.216,0,0,0-.15,2.214,1.651,1.651,0,0,0,1.632,1.519h.15a1.651,1.651,0,0,0,1.5-1.876,3.883,3.883,0,0,1,.563-2.457.769.769,0,0,0,.131-.206l.206-.281a1.032,1.032,0,0,0,0-.319,1.426,1.426,0,0,0,0-.3A1.163,1.163,0,0,0,24.472,37.327Z" transform="translate(13.874 29.876)" fill="#2b98d3" stroke="#2b98d3" stroke-width="1"/><path d="M17.452,31.33a1.67,1.67,0,0,0,2.27.506,3.32,3.32,0,0,1,2.532-.356h.469a1.088,1.088,0,0,0,.356,0h.263a2.119,2.119,0,0,0,.338-.225l.169-.113h0a1.332,1.332,0,0,0,.188-.263,2.233,2.233,0,0,0,.15-.3h0a.939.939,0,0,0,0-.225,1.163,1.163,0,0,0,0-.356,1.876,1.876,0,0,0,0-.319,1.088,1.088,0,0,0,0-.3L23.98,29.1a.675.675,0,0,0-.131-.188,3.864,3.864,0,0,1-.563-2.476,1.651,1.651,0,0,0-1.5-1.782A1.688,1.688,0,0,0,20,26.171a8.2,8.2,0,0,0,.15,2.214,7.035,7.035,0,0,0-2.195.675,1.632,1.632,0,0,0-.506,2.27Z" transform="translate(14.01 20.547)" fill="#2b98d3" stroke="#2b98d3" stroke-width="1"/><path d="M9.9,54.6a32.445,32.445,0,0,0,2.664,2.664A1.825,1.825,0,1,0,15.063,54.6c-.863-.807-1.688-1.651-2.495-2.514A1.876,1.876,0,1,0,9.9,54.6Z" transform="translate(6.907 43.78)" fill="#2b98d3" stroke="#2b98d3" stroke-width="1"/><path d="M24.831,59.869c-1.107-.413-2.214-.882-3.264-1.351a1.876,1.876,0,1,0-1.519,3.227c1.144.525,2.307,1.013,3.489,1.444a1.632,1.632,0,0,0,.657.131,1.876,1.876,0,0,0,.638-3.452Z" transform="translate(15.073 49.767)" fill="#2b98d3" stroke="#2b98d3" stroke-width="1"/><path d="M26.6,60.106a1.876,1.876,0,1,0-.825,3.639c1.219.281,2.457.544,3.752.732h.3a1.876,1.876,0,0,0,.281-3.639C28.9,60.613,27.741,60.369,26.6,60.106Z" transform="translate(20.079 51.519)" fill="#2b98d3" stroke="#2b98d3" stroke-width="1"/><path d="M7.971,52.524a1.827,1.827,0,1,0,2.964-2.139,23.769,23.769,0,0,1-1.876-2.945,1.876,1.876,0,0,0-3.1,1.876A14.52,14.52,0,0,0,7.971,52.524Z" transform="translate(4.113 40.06)" fill="#2b98d3" stroke="#2b98d3" stroke-width="1"/><path d="M16.417,55.484a1.876,1.876,0,0,0-2.139,2.983c1.032.732,2.082,1.444,3.152,2.1a1.876,1.876,0,0,0,1.876-3.114C18.35,56.834,17.374,56.178,16.417,55.484Z" transform="translate(11.03 47.418)" fill="#2b98d3" stroke="#2b98d3" stroke-width="1"/><path d="M6.611,42.54a1.876,1.876,0,0,0-3.433,1.276Q3.854,45.6,4.641,47.3a1.876,1.876,0,1,0,3.32-1.5C7.455,44.735,7.005,43.628,6.611,42.54Z" transform="translate(1.721 35.469)" fill="#2b98d3" stroke="#2b98d3" stroke-width="1"/><path d="M5.23,37.4A1.876,1.876,0,0,0,3.11,35.88,1.876,1.876,0,0,0,1.61,38q.3,1.876.732,3.752a1.876,1.876,0,0,0,1.876,1.407H4.63A1.876,1.876,0,0,0,6,40.963,29.716,29.716,0,0,1,5.23,37.4Z" transform="translate(0.344 30.367)" fill="#2b98d3" stroke="#2b98d3" stroke-width="1"/><path d="M1.222,60.863A1.876,1.876,0,0,0,3.1,62.645h0a1.876,1.876,0,0,0,1.876-1.876V59.118h0A54.2,54.2,0,0,1,58.982,4.848h1.876a1.876,1.876,0,0,0,0-3.658H58.982A57.853,57.853,0,0,0,1.2,58.837h0C1.185,59.531,1.2,60.169,1.222,60.863Z" fill="#2b98d3" stroke="#2b98d3" stroke-width="1"/></g></svg>