<svg xmlns="http://www.w3.org/2000/svg" width="117.184" height="105" viewBox="0 0 117.184 105"><g transform="translate(-13 -16.836)"><path d="M47.983,121.325a2,2,0,0,1-.43,0,1.591,1.591,0,0,1-1.1-1.957c0-.175,4.662-17.06-1.861-26.21C39.042,85.375,30.832,66.835,30.88,51.78a34.076,34.076,0,0,1,10.166-23.3c7.748-7.591,18.742-11.315,32.854-11.14,7.955.143,34.222,2.721,37.563,30.062a44.81,44.81,0,0,1-.175,7.718c-.286,3.644-.6,7.782.111,9.978A134.626,134.626,0,0,0,118,80.553c.6,1.194,2.227,4.329.955,6.588a4.009,4.009,0,0,1-3.5,1.91H114.6c-1.591,0-2.068,0-2.243,1.91a10.871,10.871,0,0,1-1.464,3.819c-.3.6-.652,1.257-.97,1.957a16.284,16.284,0,0,0,0,5.6c.1.987.175,1.878.175,2.562a5.108,5.108,0,0,1-4.518,5.634,50.135,50.135,0,0,1-8.432,0,53.6,53.6,0,0,0-6.364,0s-3.182.3-3.182,2.292v6.891a1.591,1.591,0,1,1-3.182,0v-6.875c0-3.39,3.182-5.2,6.046-5.459a56.332,56.332,0,0,1,6.714,0,52.348,52.348,0,0,0,7.828,0c1.1-.175,1.83-.652,1.814-2.467,0-.621-.08-1.416-.159-2.292-.239-2.53-.509-5.395.3-7.193.334-.78.7-1.48,1.05-2.148a9.327,9.327,0,0,0,1.114-2.658,4.773,4.773,0,0,1,5.473-4.774h.589c.589,0,.875-.175.939-.286s.366-.907-1.018-3.565a140.463,140.463,0,0,1-6.793-15.914c-.907-2.8-.589-7.082-.27-11.219a43.187,43.187,0,0,0,.207-7.082c-.986-8.037-6.364-26.767-34.476-27.261-13.126-.239-23.451,3.183-30.563,10.153A30.766,30.766,0,0,0,34,51.7c0,13.766,7.589,31.828,13.126,39.562,7.414,10.392,2.546,28.152,2.323,28.916A1.591,1.591,0,0,1,47.983,121.325Z" transform="translate(10.271)" fill="#2b98d3" stroke="#2b98d3" stroke-width="1"/><path d="M43.97,30.343H29.89a5.027,5.027,0,0,1-3.9-1.846l-2.148-2.53a1.594,1.594,0,0,1,2.466-2.021l2.148,2.609a1.846,1.846,0,0,0,1.432.684H43.97a1.591,1.591,0,1,1,0,3.182Z" transform="translate(5.9 3.562)" fill="#2b98d3" stroke="#2b98d3" stroke-width="1"/><path d="M24.718,30.137a5.568,5.568,0,1,1,5.568-5.568,5.568,5.568,0,0,1-5.568,5.568Zm0-7.955A2.386,2.386,0,1,0,27.1,24.568,2.386,2.386,0,0,0,24.718,22.182Z" transform="translate(3.339 0.983)" fill="#2b98d3" stroke="#2b98d3" stroke-width="1"/><path d="M33.812,41.112H27.591a1.591,1.591,0,1,1,0-3.182h6.284a1.591,1.591,0,1,1,0,3.182Z" transform="translate(7.387 12.18)" fill="#2b98d3" stroke="#2b98d3" stroke-width="1"/><path d="M26.068,46.567A5.568,5.568,0,1,1,31.637,41a5.568,5.568,0,0,1-5.568,5.568Zm0-7.955A2.386,2.386,0,1,0,28.455,41,2.386,2.386,0,0,0,26.068,38.612Z" transform="translate(4.137 10.702)" fill="#2b98d3" stroke="#2b98d3" stroke-width="1"/><path d="M67.415,60.572H56.008a8.1,8.1,0,0,1-8.1-8.1V41.082A8.114,8.114,0,0,1,56.008,33H67.4a8.114,8.114,0,0,1,8.1,8.1V52.489a8.114,8.114,0,0,1-8.082,8.082ZM56.008,36.182A4.916,4.916,0,0,0,51.092,41.1V52.489a4.916,4.916,0,0,0,4.916,4.9H67.4a4.932,4.932,0,0,0,4.916-4.916V41.082a4.932,4.932,0,0,0-4.9-4.9Z" transform="translate(20.335 9.266)" fill="#2b98d3" stroke="#2b98d3" stroke-width="1"/><path d="M64.479,53.413H55.06a3.85,3.85,0,0,1-3.85-3.834V40.16a3.866,3.866,0,0,1,3.85-3.85h9.419a3.85,3.85,0,0,1,3.9,3.85v9.419a3.834,3.834,0,0,1-3.9,3.834ZM55.06,39.492a.668.668,0,0,0-.668.668v9.419a.652.652,0,0,0,.668.652h9.419a.652.652,0,0,0,.652-.652V40.16a.668.668,0,0,0-.652-.668Z" transform="translate(22.285 11.223)" fill="#2b98d3" stroke="#2b98d3" stroke-width="1"/><path d="M62.171,37.478a1.591,1.591,0,0,1-1.591-1.591v-4.3a1.591,1.591,0,1,1,3.182,0v4.3A1.591,1.591,0,0,1,62.171,37.478Z" transform="translate(27.823 7.49)" fill="#2b98d3" stroke="#2b98d3" stroke-width="1"/><path d="M58.841,37.478a1.591,1.591,0,0,1-1.591-1.591v-4.3a1.591,1.591,0,1,1,3.182,0v4.3A1.591,1.591,0,0,1,58.841,37.478Z" transform="translate(25.855 7.49)" fill="#2b98d3" stroke="#2b98d3" stroke-width="1"/><path d="M55.511,37.478a1.591,1.591,0,0,1-1.591-1.591v-4.3a1.591,1.591,0,1,1,3.182,0v4.3A1.591,1.591,0,0,1,55.511,37.478Z" transform="translate(23.887 7.49)" fill="#2b98d3" stroke="#2b98d3" stroke-width="1"/><path d="M52.181,37.478a1.591,1.591,0,0,1-1.591-1.591v-4.3a1.591,1.591,0,1,1,3.182,0v4.3A1.591,1.591,0,0,1,52.181,37.478Z" transform="translate(21.919 7.49)" fill="#2b98d3" stroke="#2b98d3" stroke-width="1"/><path d="M62.171,56.292A1.591,1.591,0,0,1,60.58,54.7v-4.28a1.591,1.591,0,1,1,3.182,0V54.7A1.591,1.591,0,0,1,62.171,56.292Z" transform="translate(27.823 18.627)" fill="#2b98d3" stroke="#2b98d3" stroke-width="1"/><path d="M58.841,56.292A1.591,1.591,0,0,1,57.25,54.7v-4.28a1.591,1.591,0,1,1,3.182,0V54.7A1.591,1.591,0,0,1,58.841,56.292Z" transform="translate(25.855 18.627)" fill="#2b98d3" stroke="#2b98d3" stroke-width="1"/><path d="M55.511,56.292A1.591,1.591,0,0,1,53.92,54.7v-4.28a1.591,1.591,0,1,1,3.182,0V54.7A1.591,1.591,0,0,1,55.511,56.292Z" transform="translate(23.887 18.627)" fill="#2b98d3" stroke="#2b98d3" stroke-width="1"/><path d="M52.181,56.292A1.591,1.591,0,0,1,50.59,54.7v-4.28a1.591,1.591,0,1,1,3.182,0V54.7A1.591,1.591,0,0,1,52.181,56.292Z" transform="translate(21.919 18.627)" fill="#2b98d3" stroke="#2b98d3" stroke-width="1"/><path d="M69.641,38.962h-4.28a1.591,1.591,0,1,1,0-3.182h4.28a1.591,1.591,0,1,1,0,3.182Z" transform="translate(29.708 10.908)" fill="#2b98d3" stroke="#2b98d3" stroke-width="1"/><path d="M69.641,42.282h-4.28a1.591,1.591,0,1,1,0-3.182h4.28a1.591,1.591,0,1,1,0,3.182Z" transform="translate(29.708 12.872)" fill="#2b98d3" stroke="#2b98d3" stroke-width="1"/><path d="M69.641,45.612h-4.28a1.591,1.591,0,1,1,0-3.182h4.28a1.591,1.591,0,0,1,0,3.182Z" transform="translate(29.708 14.841)" fill="#2b98d3" stroke="#2b98d3" stroke-width="1"/><path d="M69.641,48.942h-4.28a1.591,1.591,0,1,1,0-3.182h4.28a1.591,1.591,0,0,1,0,3.182Z" transform="translate(29.708 16.81)" fill="#2b98d3" stroke="#2b98d3" stroke-width="1"/><path d="M50.575,38.962H46.311a1.591,1.591,0,1,1,0-3.182h4.264a1.591,1.591,0,1,1,0,3.182Z" transform="translate(18.45 10.908)" fill="#2b98d3" stroke="#2b98d3" stroke-width="1"/><path d="M50.575,42.282H46.311a1.591,1.591,0,1,1,0-3.182h4.264a1.591,1.591,0,1,1,0,3.182Z" transform="translate(18.45 12.872)" fill="#2b98d3" stroke="#2b98d3" stroke-width="1"/><path d="M50.575,45.612H46.311a1.591,1.591,0,1,1,0-3.182h4.264a1.591,1.591,0,0,1,0,3.182Z" transform="translate(18.45 14.841)" fill="#2b98d3" stroke="#2b98d3" stroke-width="1"/><path d="M50.575,48.942H46.311a1.591,1.591,0,0,1,0-3.182h4.264a1.591,1.591,0,1,1,0,3.182Z" transform="translate(18.45 16.81)" fill="#2b98d3" stroke="#2b98d3" stroke-width="1"/><path d="M20.051,52.266a1.591,1.591,0,0,1-1.034-2.8l4.009-3.437A5.059,5.059,0,0,1,26.3,44.82H39.811a1.591,1.591,0,1,1,0,3.182H26.3a1.861,1.861,0,0,0-1.209.445l-4.009,3.437A1.591,1.591,0,0,1,20.051,52.266Z" transform="translate(2.931 16.255)" fill="#2b98d3" stroke="#2b98d3" stroke-width="1"/><path d="M19.068,57.527a5.568,5.568,0,1,1,5.568-5.568A5.568,5.568,0,0,1,19.068,57.527Zm0-7.955a2.386,2.386,0,1,0,2.386,2.386,2.386,2.386,0,0,0-2.386-2.386Z" transform="translate(0 17.184)" fill="#2b98d3" stroke="#2b98d3" stroke-width="1"/><path d="M41.487,36.217h-15.1a5.059,5.059,0,0,1-3.277-1.209L19.1,31.571a1.591,1.591,0,1,1,2.068-2.339l4.009,3.436a1.861,1.861,0,0,0,1.209.445h15.1a1.591,1.591,0,1,1,0,3.182Z" transform="translate(2.846 6.666)" fill="#2b98d3" stroke="#2b98d3" stroke-width="1"/><path d="M19.068,35.957a5.568,5.568,0,1,1,5.568-5.568A5.568,5.568,0,0,1,19.068,35.957Zm0-7.955a2.386,2.386,0,1,0,2.386,2.386A2.386,2.386,0,0,0,19.068,28Z" transform="translate(0 4.423)" fill="#2b98d3" stroke="#2b98d3" stroke-width="1"/><path d="M25.086,58.032a1.6,1.6,0,0,1-1.241-2.609l2.148-2.609A5.028,5.028,0,0,1,29.89,51h10.9a1.591,1.591,0,0,1,0,3.182H29.89a1.846,1.846,0,0,0-1.432.684l-2.148,2.609A1.591,1.591,0,0,1,25.086,58.032Z" transform="translate(5.899 19.91)" fill="#2b98d3" stroke="#2b98d3" stroke-width="1"/><path d="M24.718,63.887a5.568,5.568,0,1,1,5.568-5.568,5.568,5.568,0,0,1-5.568,5.568Zm0-7.955A2.386,2.386,0,1,0,27.1,58.318,2.386,2.386,0,0,0,24.718,55.932Z" transform="translate(3.339 20.946)" fill="#2b98d3" stroke="#2b98d3" stroke-width="1"/></g></svg>