<svg xmlns="http://www.w3.org/2000/svg" width="101.822" height="116.162" viewBox="0 0 101.822 116.162"><g transform="translate(-5.466 -1.739)"><g transform="translate(5.718 2)"><path d="M105.4,25.32,57.211,2.19a1.932,1.932,0,0,0-1.668,0L7.355,25.32a1.922,1.922,0,0,0-1.075,1.472c-.1.71-9.18,71.2,49.487,90.759a1.913,1.913,0,0,0,1.22,0C115.654,98,106.574,27.5,106.474,26.792A1.922,1.922,0,0,0,105.4,25.32ZM56.377,113.688C5.161,96.141,9.138,36.83,9.985,28.334L56.377,6.065,102.77,28.333C103.624,36.828,107.645,96.124,56.377,113.688Z" transform="translate(-5.718 -2)" fill="#2b98d3" stroke="#2b98d3" stroke-width="0.5"/><path d="M71.9,41.114V33.13A1.926,1.926,0,0,0,69.97,31.2H59.765a13.518,13.518,0,0,0-11-9.484V19.638h6.056a7.71,7.71,0,1,0,0-3.855H46.84a1.926,1.926,0,0,0-1.928,1.928v4.009A13.5,13.5,0,0,0,33.348,35.058a13.325,13.325,0,0,0,4.337,9.894L35.35,56.275c-.026,0-.048-.015-.075-.015H25.638V50.2a7.71,7.71,0,1,0-3.855,0v7.984a1.926,1.926,0,0,0,1.928,1.928H34.558l-3.1,15.031a1.927,1.927,0,0,0,1.888,2.317h15.42v6.056a7.71,7.71,0,1,0,3.855,0V77.463h7.71a1.927,1.927,0,0,0,1.888-2.317L56,44.951a13.325,13.325,0,0,0,4.337-9.894h7.71v6.056a7.71,7.71,0,1,0,3.855,0ZM62.26,13.855a3.855,3.855,0,1,1-3.855,3.855A3.86,3.86,0,0,1,62.26,13.855ZM19.855,42.768a3.855,3.855,0,1,1,3.855,3.855A3.86,3.86,0,0,1,19.855,42.768Zm34.7,48.188A3.855,3.855,0,1,1,50.7,87.1,3.86,3.86,0,0,1,54.55,90.956ZM52.707,42.681a1.927,1.927,0,0,0-.719,1.922l5.978,29H35.714L41.692,44.6a1.927,1.927,0,0,0-.719-1.922,9.514,9.514,0,0,1-3.77-7.623,9.638,9.638,0,1,1,19.275,0A9.514,9.514,0,0,1,52.707,42.681ZM69.97,52.405a3.855,3.855,0,1,1,3.855-3.855A3.86,3.86,0,0,1,69.97,52.405Z" transform="translate(3.819 5.419)" fill="#2b98d3" stroke="#2b98d3" stroke-width="0.5"/></g></g></svg>