<svg xmlns="http://www.w3.org/2000/svg" width="256.191" height="57.134" viewBox="0 0 256.191 57.134">
  <g id="Group_560" data-name="Group 560" transform="translate(4306.065 -11490.996)">
    <g id="Group_68" data-name="Group 68" transform="translate(-5236.492 10899.597)">
      <g id="Group_38" data-name="Group 38" transform="translate(988.171 595.79)">
        <path id="Path_3" data-name="Path 3" d="M1069.11,501.346V491.6c1.576-.266,3.114-.512,4.766-.8v1.1c0,9.256-.019,18.513.019,27.769,0,.778-.209,1.081-.987,1.252a24.658,24.658,0,0,1-9.115.683,9.238,9.238,0,0,1-8.279-9.124,19.832,19.832,0,0,1,.551-5.8c1.557-5.861,7.045-7.284,11.507-5.9C1068.05,500.929,1068.5,501.119,1069.11,501.346Zm-.11,15.877a1.544,1.544,0,0,0,.095-.323c0-3.243.019-6.506.019-9.75,0-1.992,0-1.992-1.956-2.561-.038,0-.057-.019-.095-.038-3.418-.948-5.811.512-6.513,3.964a10.754,10.754,0,0,0-.228,2.068,7.294,7.294,0,0,0,1.614,5.292C1063.95,518.1,1066.47,517.659,1069,517.223Z" transform="translate(-972.706 -490.8)" fill="#fff"/>
        <path id="Path_4" data-name="Path 4" d="M639.924,527.141c.456,1.385.892,2.693,1.405,4.248-1.652.474-3.19,1.005-4.785,1.328a17.97,17.97,0,0,1-7.254.019,10.982,10.982,0,0,1-8.906-8.193,17.215,17.215,0,0,1,.816-12.916c2.184-4.343,5.868-6.486,10.634-6.828a15.733,15.733,0,0,1,8.45,1.631c.551.284.722.55.456,1.157-.437,1.005-.779,2.048-1.12,2.959a52.283,52.283,0,0,0-5.07-1.29c-5.07-.778-8.925,2.219-9.609,7.321a14.681,14.681,0,0,0,.665,7.188,7.323,7.323,0,0,0,7.007,4.874,14.875,14.875,0,0,0,7.311-1.5Z" transform="translate(-619.513 -502.102)" fill="#fff"/>
        <path id="Path_5" data-name="Path 5" d="M1196.24,552.961h-13.388a4.854,4.854,0,0,0,4.235,4.937,17.732,17.732,0,0,0,7.235-.57c.19,1.158.418,2.279.57,3.437a.637.637,0,0,1-.361.532c-4.14,1.2-8.26,1.69-12.248-.475a7.539,7.539,0,0,1-3.532-4.083,13.145,13.145,0,0,1,.437-11.109c3.114-6.077,11.318-5.963,14.584-2.412a10.107,10.107,0,0,1,2.45,6.228C1196.32,550.569,1196.24,551.708,1196.24,552.961Zm-13.406-3.494h8.659c.057-2.62-1.519-4.519-3.8-4.652-2.653-.133-4.533,1.652-4.863,4.652Z" transform="translate(-1071.732 -531.31)" fill="#fff"/>
        <path id="Path_6" data-name="Path 6" d="M1492.27,552.846h-13.425a4.959,4.959,0,0,0,4.311,4.956,17.951,17.951,0,0,0,7.216-.57c.19,1.139.418,2.241.551,3.361a.782.782,0,0,1-.38.608c-3.969,1.177-7.937,1.614-11.83-.266a7.542,7.542,0,0,1-3.817-4.064,13.069,13.069,0,0,1,.361-11.375c2.772-5.336,10.52-6.551,14.584-2.355a9.643,9.643,0,0,1,2.431,6.134C1492.35,550.415,1492.27,551.554,1492.27,552.846Zm-4.785-3.475a4.147,4.147,0,0,0-3.836-4.652,4.584,4.584,0,0,0-4.766,4.728h8.146c.171-.019.321-.057.461-.076Z" transform="translate(-1311.555 -531.194)" fill="#fff"/>
        <path id="Path_7" data-name="Path 7" d="M830.629,551.6c-.114,3.076-.855,5.925-3.171,8.089-2.867,2.7-6.323,3.19-9.969,2.07-3.684-1.139-5.659-3.931-6.342-7.6-.627-3.361-.342-6.665,1.747-9.514,2.563-3.532,6.19-4.481,10.273-3.589,4.007.873,6.229,3.646,7.1,7.539a25.931,25.931,0,0,1,.362,3Zm-4.975-.133a7.845,7.845,0,0,0-1.044-4.367,4.529,4.529,0,0,0-7.691-.076,8.489,8.489,0,0,0,0,8.925,4.5,4.5,0,0,0,7.672-.057,7.782,7.782,0,0,0,1.063-4.428Z" transform="translate(-774.519 -531.294)" fill="#fff"/>
        <path id="Path_8" data-name="Path 8" d="M951.33,543.1h4.709c.019.323.057.627.057.93,0,5.982,0,11.944.019,17.926,0,.684-.171.968-.893,1.12a33.381,33.381,0,0,1-8.45.873c-4.292-.133-7.159-2.582-7.482-7.121-.323-4.519-.076-9.1-.076-13.691h4.672v1.006c0,3.361-.019,6.7.019,10.064a12.94,12.94,0,0,0,.323,2.716,3.28,3.28,0,0,0,3.437,2.81c1.2.057,2.393.019,3.684.019C951.33,554.095,951.33,548.645,951.33,543.1Z" transform="translate(-878.433 -533.203)" fill="#fff"/>
        <path id="Path_9" data-name="Path 9" d="M1295.13,557.524c2.2.285,4.273.589,6.361.8a5.163,5.163,0,0,0,1.69-.209,1.653,1.653,0,0,0,1.424-1.329,1.718,1.718,0,0,0-.779-1.9c-.95-.551-1.956-.987-2.962-1.462a30.874,30.874,0,0,1-3.741-1.8,5.69,5.69,0,0,1,.494-9.608,10.9,10.9,0,0,1,6.646-1.026c1.367.133,2.715.475,4.2.741-.323,1.405-.589,2.658-.835,3.684-1.8-.228-3.475-.494-5.146-.646a4.04,4.04,0,0,0-1.747.342,1.783,1.783,0,0,0-.513,3.133,12.347,12.347,0,0,0,2.317,1.253c1.253.589,2.563,1.044,3.817,1.671,2.469,1.234,3.3,3.361,3.038,6a5.127,5.127,0,0,1-4.2,4.671,17.179,17.179,0,0,1-10.254-.4c-.209-.076-.494-.437-.456-.627C1294.66,559.613,1294.94,558.455,1295.13,557.524Z" transform="translate(-1166.311 -531.41)" fill="#fff"/>
        <path id="Path_10" data-name="Path 10" d="M1399.52,510.9v6.069h7.178v3.983h-7.178v8.5c0,.417,0,.815.038,1.233.228,2.257,1.272,3.243,3.532,3.148a32.8,32.8,0,0,0,3.684-.569,2.581,2.581,0,0,1,.133.341c.228,1.043.437,2.086.665,3.205-3.133,1.2-6.228,1.612-9.343.285-2.506-1.062-3.285-3.338-3.4-5.8-.152-3.509-.095-7.017-.114-10.526-.019-2.75.019-5.5-.019-8.25,0-.683.19-.948.873-1.043C1396.86,511.336,1398.14,511.109,1399.52,510.9Z" transform="translate(-1247.498 -507.083)" fill="#fff"/>
        <path id="Path_11" data-name="Path 11" d="M760.292,490.9v23.16a8.974,8.974,0,0,0,.076,1.233,2.254,2.254,0,0,0,1.918,2.162c.361.1.722.171,1.139.247-.228,1.328-.437,2.6-.665,3.926a8.382,8.382,0,0,1-5.279-1.271c-1.728-1.214-1.975-3.111-1.975-4.989-.038-7.663-.019-15.345,0-23.027a1.011,1.011,0,0,1,.551-.759C757.405,491.317,758.792,491.128,760.292,490.9Z" transform="translate(-729.665 -490.881)" fill="#fff"/>
        <path id="Path_12" data-name="Path 12" d="M1610.72,541.83c-.266,1.234-.532,2.45-.8,3.76a12.882,12.882,0,0,0-6.893-.152v16.407h-4.709c-.019-.266-.057-.532-.057-.817V543.2c0-.418-.114-.854.513-1.044,3.855-1.139,7.729-1.633,11.66-.475C1610.47,541.659,1610.53,541.716,1610.72,541.83Z" transform="translate(-1412.401 -531.515)" fill="#fff"/>
      </g>
      <g id="Group_37" data-name="Group 37" transform="translate(930.492 591.403)">
        <path id="Path_13" data-name="Path 13" d="M329.6,497.5h-6.19a3.934,3.934,0,0,1-3.361-4.117c0-3.244,1.69-5.407,5.2-5.407h2.431s-1.063-14.532,11.982-14.532c11.2,0,11.337,10.3,11.337,11.629h2.488s7.159-.341,7.159,5.938a5.826,5.826,0,0,1-5.678,6.184h-2.621v5.445h2.621s10.9-.531,10.9-11.212-9.8-10.908-9.8-10.908-1.785-12.824-16.5-12.824-16.786,13.223-16.786,15.2c0,0-8.184,1.233-8.184,10.6,0,7.835,6.02,9.637,9.229,9.637h5.849Z" transform="translate(-314.6 -467.7)" fill="#2b98d3"/>
        <rect id="Rectangle_5" data-name="Rectangle 5" width="7.482" height="4.861" transform="translate(20.698 30.139)" fill="#2b98d3"/>
        <rect id="Rectangle_6" data-name="Rectangle 6" width="5.545" height="4.861" transform="translate(28.18 24.548)" fill="#2b98d3"/>
        <rect id="Rectangle_7" data-name="Rectangle 7" width="8.032" height="4.747" transform="translate(28.769 35.001)" fill="#2b98d3"/>
      </g>
    </g>
    <path id="AN_ISO_27001_certified_company" data-name="AN ISO 27001 certified company" d="M7.124-2.106H2.574L1.677,0H-.065l4.1-9.1H5.694L9.8,0H8.034ZM6.565-3.432,4.849-7.41l-1.7,3.978ZM19.695-9.1V0H18.3L13.286-6.162V0H11.609V-9.1H13l5.018,6.162V-9.1Zm7.332,0h1.69V0h-1.69ZM34.645.13a6.943,6.943,0,0,1-2.035-.3,4.246,4.246,0,0,1-1.553-.793l.585-1.313a4.608,4.608,0,0,0,1.371.722,4.987,4.987,0,0,0,1.632.28A2.819,2.819,0,0,0,36.16-1.6a.985.985,0,0,0,.5-.858.831.831,0,0,0-.279-.643,1.962,1.962,0,0,0-.708-.4q-.429-.143-1.17-.325a13.639,13.639,0,0,1-1.684-.494,2.771,2.771,0,0,1-1.1-.774,2.084,2.084,0,0,1-.462-1.424,2.428,2.428,0,0,1,.41-1.372A2.771,2.771,0,0,1,32.9-8.866a5,5,0,0,1,2.021-.364,6.529,6.529,0,0,1,1.638.208,4.528,4.528,0,0,1,1.391.6l-.533,1.313a5.258,5.258,0,0,0-1.248-.533,4.668,4.668,0,0,0-1.261-.182,2.634,2.634,0,0,0-1.489.338,1.043,1.043,0,0,0-.487.9.811.811,0,0,0,.279.637,2.019,2.019,0,0,0,.708.39q.429.143,1.17.325a12.312,12.312,0,0,1,1.664.488,2.85,2.85,0,0,1,1.112.773,2.039,2.039,0,0,1,.461,1.4,2.4,2.4,0,0,1-.41,1.365,2.786,2.786,0,0,1-1.242.975A5.051,5.051,0,0,1,34.645.13ZM44.9.13a5.189,5.189,0,0,1-2.509-.6,4.477,4.477,0,0,1-1.755-1.677A4.607,4.607,0,0,1,40-4.55a4.607,4.607,0,0,1,.637-2.4,4.477,4.477,0,0,1,1.755-1.677,5.189,5.189,0,0,1,2.509-.6,5.189,5.189,0,0,1,2.509.6,4.491,4.491,0,0,1,1.755,1.67A4.6,4.6,0,0,1,49.8-4.55a4.6,4.6,0,0,1-.637,2.405,4.491,4.491,0,0,1-1.755,1.67A5.189,5.189,0,0,1,44.9.13Zm0-1.482a3.283,3.283,0,0,0,1.638-.41,2.962,2.962,0,0,0,1.144-1.144A3.278,3.278,0,0,0,48.1-4.55a3.278,3.278,0,0,0-.416-1.645A2.962,2.962,0,0,0,46.54-7.339,3.283,3.283,0,0,0,44.9-7.748a3.283,3.283,0,0,0-1.638.409A2.962,2.962,0,0,0,42.12-6.195,3.278,3.278,0,0,0,41.7-4.55a3.278,3.278,0,0,0,.416,1.645,2.962,2.962,0,0,0,1.144,1.144A3.283,3.283,0,0,0,44.9-1.352ZM62.426-1.43V0H55.718V-1.131l3.614-3.432a3.971,3.971,0,0,0,.826-1.021,1.944,1.944,0,0,0,.215-.865,1.168,1.168,0,0,0-.429-.975,2.007,2.007,0,0,0-1.261-.338,2.544,2.544,0,0,0-2.132.949l-1.183-.91A3.5,3.5,0,0,1,56.8-8.834a4.979,4.979,0,0,1,2.021-.4,3.7,3.7,0,0,1,2.366.7,2.31,2.31,0,0,1,.884,1.911,3.173,3.173,0,0,1-.312,1.391,5.429,5.429,0,0,1-1.2,1.482L58.136-1.43Zm8.45-7.67v1.131L67.34,0H65.533l3.419-7.67H65.377v1.547H63.8V-9.1ZM76.1.13a3.523,3.523,0,0,1-1.95-.553A3.731,3.731,0,0,1,72.8-2.035a5.907,5.907,0,0,1-.494-2.516A5.907,5.907,0,0,1,72.8-7.066a3.731,3.731,0,0,1,1.352-1.612A3.523,3.523,0,0,1,76.1-9.23a3.555,3.555,0,0,1,1.956.553,3.714,3.714,0,0,1,1.358,1.612,5.907,5.907,0,0,1,.494,2.516,5.907,5.907,0,0,1-.494,2.516A3.714,3.714,0,0,1,78.059-.423,3.555,3.555,0,0,1,76.1.13Zm0-1.469a1.785,1.785,0,0,0,1.54-.806,4.193,4.193,0,0,0,.565-2.405,4.193,4.193,0,0,0-.565-2.405,1.785,1.785,0,0,0-1.54-.806,1.773,1.773,0,0,0-1.528.806,4.193,4.193,0,0,0-.565,2.405,4.193,4.193,0,0,0,.565,2.405A1.773,1.773,0,0,0,76.1-1.339ZM85.5.13a3.523,3.523,0,0,1-1.95-.553A3.731,3.731,0,0,1,82.2-2.035a5.907,5.907,0,0,1-.494-2.516A5.907,5.907,0,0,1,82.2-7.066a3.731,3.731,0,0,1,1.352-1.612A3.523,3.523,0,0,1,85.5-9.23a3.555,3.555,0,0,1,1.956.553,3.714,3.714,0,0,1,1.358,1.612A5.907,5.907,0,0,1,89.31-4.55a5.907,5.907,0,0,1-.494,2.516A3.714,3.714,0,0,1,87.458-.423,3.555,3.555,0,0,1,85.5.13Zm0-1.469a1.785,1.785,0,0,0,1.54-.806,4.193,4.193,0,0,0,.565-2.405,4.193,4.193,0,0,0-.565-2.405,1.785,1.785,0,0,0-1.54-.806,1.773,1.773,0,0,0-1.528.806,4.193,4.193,0,0,0-.565,2.405,4.193,4.193,0,0,0,.565,2.405A1.773,1.773,0,0,0,85.5-1.339ZM94.185-9.1V0H92.5V-7.683H90.571V-9.1ZM105.742.13a5.125,5.125,0,0,1-2.489-.6,4.456,4.456,0,0,1-1.742-1.67,4.634,4.634,0,0,1-.631-2.405,4.6,4.6,0,0,1,.637-2.405,4.5,4.5,0,0,1,1.748-1.67,5.125,5.125,0,0,1,2.49-.6,5.193,5.193,0,0,1,2.041.39,4.163,4.163,0,0,1,1.56,1.131l-1.092,1.027a3.185,3.185,0,0,0-2.431-1.066,3.409,3.409,0,0,0-1.677.409A2.95,2.95,0,0,0,103-6.2a3.268,3.268,0,0,0-.416,1.651A3.268,3.268,0,0,0,103-2.9a2.95,2.95,0,0,0,1.157,1.138,3.409,3.409,0,0,0,1.677.41,3.167,3.167,0,0,0,2.431-1.079l1.092,1.04A4.152,4.152,0,0,1,107.789-.26,5.24,5.24,0,0,1,105.742.13Zm12.714-1.547V0h-6.825V-9.1h6.643v1.417h-4.953v2.366h4.394v1.391h-4.394v2.509ZM126.945,0l-1.859-2.665a3.466,3.466,0,0,1-.351.013h-2.054V0h-1.69V-9.1h3.744a5.038,5.038,0,0,1,2.061.39,3,3,0,0,1,1.345,1.118,3.128,3.128,0,0,1,.468,1.729,3.083,3.083,0,0,1-.5,1.768,2.978,2.978,0,0,1-1.436,1.105L128.765,0Zm-.039-5.863a1.631,1.631,0,0,0-.572-1.339,2.6,2.6,0,0,0-1.677-.468h-1.976v3.627h1.976a2.571,2.571,0,0,0,1.677-.475A1.65,1.65,0,0,0,126.906-5.863ZM132.86-7.67h-3.016V-9.1h7.722v1.43H134.55V0h-1.69Zm6.63-1.43h1.69V0h-1.69Zm6.487,1.417v2.769h4.394v1.43h-4.394V0h-1.69V-9.1h6.643v1.417ZM153.218-9.1h1.69V0h-1.69ZM164.84-1.417V0h-6.825V-9.1h6.643v1.417H159.7v2.366H164.1v1.391H159.7v2.509ZM167.375-9.1h3.978a5.708,5.708,0,0,1,2.587.566,4.185,4.185,0,0,1,1.755,1.6,4.524,4.524,0,0,1,.624,2.385,4.524,4.524,0,0,1-.624,2.386,4.185,4.185,0,0,1-1.755,1.6A5.708,5.708,0,0,1,171.353,0h-3.978Zm3.9,7.67a3.862,3.862,0,0,0,1.762-.383,2.744,2.744,0,0,0,1.17-1.092,3.227,3.227,0,0,0,.41-1.645,3.227,3.227,0,0,0-.41-1.645,2.744,2.744,0,0,0-1.17-1.092,3.862,3.862,0,0,0-1.762-.384h-2.21v6.24ZM187.213.13a5.125,5.125,0,0,1-2.49-.6,4.456,4.456,0,0,1-1.742-1.67,4.634,4.634,0,0,1-.63-2.405,4.6,4.6,0,0,1,.637-2.405,4.5,4.5,0,0,1,1.749-1.67,5.125,5.125,0,0,1,2.49-.6,5.193,5.193,0,0,1,2.041.39,4.163,4.163,0,0,1,1.56,1.131l-1.092,1.027A3.185,3.185,0,0,0,187.3-7.748a3.409,3.409,0,0,0-1.677.409A2.95,2.95,0,0,0,184.47-6.2a3.268,3.268,0,0,0-.416,1.651A3.268,3.268,0,0,0,184.47-2.9a2.95,2.95,0,0,0,1.157,1.138,3.409,3.409,0,0,0,1.677.41,3.167,3.167,0,0,0,2.431-1.079l1.092,1.04A4.152,4.152,0,0,1,189.26-.26,5.24,5.24,0,0,1,187.213.13Zm9.945,0a5.189,5.189,0,0,1-2.509-.6,4.477,4.477,0,0,1-1.755-1.677,4.607,4.607,0,0,1-.637-2.4,4.607,4.607,0,0,1,.637-2.4,4.477,4.477,0,0,1,1.755-1.677,5.189,5.189,0,0,1,2.509-.6,5.189,5.189,0,0,1,2.509.6,4.491,4.491,0,0,1,1.755,1.67,4.6,4.6,0,0,1,.637,2.405,4.6,4.6,0,0,1-.637,2.405,4.491,4.491,0,0,1-1.755,1.67A5.189,5.189,0,0,1,197.158.13Zm0-1.482a3.283,3.283,0,0,0,1.638-.41,2.962,2.962,0,0,0,1.144-1.144,3.278,3.278,0,0,0,.416-1.645,3.278,3.278,0,0,0-.416-1.645A2.962,2.962,0,0,0,198.8-7.339a3.283,3.283,0,0,0-1.638-.409,3.283,3.283,0,0,0-1.638.409,2.962,2.962,0,0,0-1.144,1.144,3.278,3.278,0,0,0-.416,1.645,3.278,3.278,0,0,0,.416,1.645,2.962,2.962,0,0,0,1.144,1.144A3.283,3.283,0,0,0,197.158-1.352ZM212.862,0l-.013-6.032-2.99,4.992H209.1l-2.99-4.914V0H204.5V-9.1h1.391l3.614,6.032L213.057-9.1h1.391l.013,9.1Zm8.45-9.1a5.038,5.038,0,0,1,2.061.39,3,3,0,0,1,1.345,1.118,3.128,3.128,0,0,1,.468,1.729,3.136,3.136,0,0,1-.468,1.723,2.981,2.981,0,0,1-1.345,1.125,5.038,5.038,0,0,1-2.061.39h-2.054V0h-1.69V-9.1Zm-.078,5.044a2.6,2.6,0,0,0,1.677-.468,1.631,1.631,0,0,0,.572-1.339,1.631,1.631,0,0,0-.572-1.339,2.6,2.6,0,0,0-1.677-.468h-1.976v3.614Zm11.739,1.95h-4.55L227.526,0h-1.742l4.1-9.1h1.664L235.651,0h-1.768Zm-.559-1.326L230.7-7.41l-1.7,3.978ZM245.544-9.1V0h-1.391l-5.018-6.162V0h-1.677V-9.1h1.391l5.018,6.162V-9.1Zm7.02,5.889V0h-1.69V-3.185L247.3-9.1h1.807l2.665,4.433L254.462-9.1h1.664Z" transform="translate(-4306 11548)" fill="#d5d5d5"/>
  </g>
</svg>
