<svg xmlns="http://www.w3.org/2000/svg" width="36.524" height="24.41" viewBox="0 0 36.524 24.41"><path d="M4.555,41.836H36.97a2.041,2.041,0,0,0,1.072-.3L25.9,30.455l-2.881,2.629a3.331,3.331,0,0,1-4.513,0l-2.881-2.629L3.482,41.533a2.042,2.042,0,0,0,1.073.3ZM2.679,40.618a2.05,2.05,0,0,1-.179-.837V19.48a2.046,2.046,0,0,1,.179-.836L14.721,29.631ZM36.971,17.426a2.044,2.044,0,0,1,1.073.3L22.2,32.185a2.122,2.122,0,0,1-2.872,0L3.482,17.729a2.042,2.042,0,0,1,1.073-.3Zm2.053,2.054v20.3a2.037,2.037,0,0,1-.179.837L26.8,29.631,38.846,18.644a2.034,2.034,0,0,1,.179.836Z" transform="translate(-2.5 -17.426)" fill-rule="evenodd"/></svg>