<svg xmlns="http://www.w3.org/2000/svg" width="34.282" height="34.266" viewBox="0 0 34.282 34.266"><g transform="translate(-9.146 -10.025)"><path d="M88.7,14.237l-3.363-3.363a2.879,2.879,0,0,0-4.083,0l-1.647,1.784a.7.7,0,0,0,0,1l6.314,6.314a.7.7,0,0,0,1,0L88.7,18.183A2.662,2.662,0,0,0,88.7,14.237Z" transform="translate(-46.146 0)"/><path d="M12.425,81.139a.783.783,0,0,0-.926-.069l-.137.137a1.506,1.506,0,0,0-.343.652L9.165,89.649a1.02,1.02,0,0,0,1.2,1.2L18.155,89a1.463,1.463,0,0,0,.652-.343l.137-.137a.783.783,0,0,0-.069-.926Z" transform="translate(0 -46.587)"/><path d="M41.092,25.806a.7.7,0,0,0-1,0L24.106,41.8a.623.623,0,0,0,0,.926l6.383,6.348a.7.7,0,0,0,1,0L47.371,33.115a.7.7,0,0,0,0-1Z" transform="translate(-9.691 -10.23)"/></g></svg>