<svg xmlns="http://www.w3.org/2000/svg" width="32.524" height="32.519" viewBox="0 0 32.524 32.519"><g transform="translate(-435.469 -51.828)"><g transform="translate(435.469 51.828)"><path d="M441.253,52.062l5.814,5.814a.8.8,0,0,1,.042,1.085c-1,1.165-2.52,2.941-3.3,3.884a2.372,2.372,0,0,0-.524,1.971.8.8,0,0,0,.03.113c.387,1.126,1.506,3.487,4.8,6.778a17.8,17.8,0,0,0,7.547,4.863.812.812,0,0,0,.1.021,2.4,2.4,0,0,0,2.061-.674l3.08-3.08a.8.8,0,0,1,1.13,0l5.731,5.731a.8.8,0,0,1,0,1.13h0c-.833.833-1.994,1.994-3.016,3.009l0,0a5.589,5.589,0,0,1-5.172,1.5,32,32,0,0,1-15.12-8.839A32.079,32.079,0,0,1,435.6,60.253a5.594,5.594,0,0,1,1.5-5.176l3.015-3.015a.8.8,0,0,1,1.13,0Z" transform="translate(-435.469 -51.828)" fill-rule="evenodd"/></g></g></svg>