<svg xmlns="http://www.w3.org/2000/svg" width="28.551" height="32.519" viewBox="0 0 28.551 32.519"><g transform="translate(-14.007 -961.367)"><path d="M17.21,961.367H27.274l4.3,2.312H21.513Z" transform="translate(-1.933)" fill-rule="evenodd"/><path d="M14.115,962.063l4.969,2.67v29.1l-5.077-4.256Z" transform="translate(0 -0.42)" fill-rule="evenodd"/><path d="M28.806,969.2v29.387H39.75V969.2Zm5.3,3.693a.365.365,0,0,1,.149.025.372.372,0,0,1,.223.223.365.365,0,0,1,.025.149v15.7a.4.4,0,1,1-.793,0v-15.7a.382.382,0,0,1,.4-.4Z" transform="translate(-8.929 -4.727)" fill-rule="evenodd"/><path d="M58.4,989.167h5.355l4.4,2.34H58.4v-2.34Z" transform="translate(-26.784 -16.774)" fill-rule="evenodd"/><path d="M58.4,997.076v18.356H69.343V997.076Zm3.334,2.677a.379.379,0,0,1,.149.025.373.373,0,0,1,.223.223.365.365,0,0,1,.025.149v.607a.4.4,0,1,1-.793,0v-.607a.38.38,0,0,1,.112-.273.421.421,0,0,1,.285-.124Zm4.35,0a.442.442,0,0,1,.161.025.367.367,0,0,1,.124.087.417.417,0,0,1,.087.136.378.378,0,0,1,.037.149v.607a.414.414,0,0,1-.124.285.373.373,0,0,1-.273.112.382.382,0,0,1-.4-.4v-.607a.38.38,0,0,1,.112-.273.392.392,0,0,1,.273-.124Zm-4.35,2.987a.378.378,0,0,1,.149.025.372.372,0,0,1,.223.223.365.365,0,0,1,.025.149v.595a.4.4,0,0,1-.112.285.39.39,0,0,1-.57,0,.4.4,0,0,1-.112-.285v-.595a.382.382,0,0,1,.4-.4Zm4.35,0a.377.377,0,0,1,.409.4v.595a.373.373,0,0,1-.4.409.382.382,0,0,1-.4-.409v-.595A.362.362,0,0,1,66.084,1002.74Zm-4.35,2.975a.392.392,0,0,1,.149.037.417.417,0,0,1,.136.087.367.367,0,0,1,.087.124.426.426,0,0,1,.025.161v.595a.4.4,0,1,1-.793,0v-.595a.408.408,0,0,1,.112-.285.421.421,0,0,1,.285-.124Zm4.35,0a.455.455,0,0,1,.161.037.435.435,0,0,1,.211.211.438.438,0,0,1,.037.161v.595a.414.414,0,0,1-.124.285.373.373,0,0,1-.273.112.382.382,0,0,1-.4-.4v-.595a.408.408,0,0,1,.112-.285.392.392,0,0,1,.273-.124Zm-4.35,2.987a.379.379,0,0,1,.149.025.373.373,0,0,1,.223.223.365.365,0,0,1,.025.149v.607a.4.4,0,1,1-.793,0v-.607a.38.38,0,0,1,.112-.273.421.421,0,0,1,.285-.124Zm4.35,0a.442.442,0,0,1,.161.025.367.367,0,0,1,.124.087.417.417,0,0,1,.087.136.378.378,0,0,1,.037.149v.607a.414.414,0,0,1-.124.285.373.373,0,0,1-.273.112.382.382,0,0,1-.4-.4v-.607a.38.38,0,0,1,.112-.273.392.392,0,0,1,.273-.124Zm-4.35,2.975a.391.391,0,0,1,.149.037.418.418,0,0,1,.136.087.367.367,0,0,1,.087.124.427.427,0,0,1,.025.161v.595a.4.4,0,0,1-.112.285.39.39,0,0,1-.57,0,.4.4,0,0,1-.112-.285v-.595a.408.408,0,0,1,.112-.285.421.421,0,0,1,.285-.124Zm4.35,0a.454.454,0,0,1,.161.037.435.435,0,0,1,.211.211.439.439,0,0,1,.037.161v.595a.414.414,0,0,1-.124.285.385.385,0,0,1-.273.124.414.414,0,0,1-.285-.124.4.4,0,0,1-.112-.285v-.595a.408.408,0,0,1,.112-.285.392.392,0,0,1,.273-.124Z" transform="translate(-26.786 -21.546)" fill-rule="evenodd"/></g></svg>