<svg xmlns="http://www.w3.org/2000/svg" width="300.284" height="300.467" fill="#2b98d3" xmlns:v="https://vecta.io/nano"><path d="M154.971 0a5.3 5.3 0 0 0 .772.185c4.988.439 9.994.736 14.963 1.329a138.73 138.73 0 0 1 32.759 8.256 149.06 149.06 0 0 1 27.692 13.961 151.61 151.61 0 0 1 43.2 42 148.78 148.78 0 0 1 13.1 23.507c3.791 8.431 6.747 17.212 8.826 26.219 1.107 4.9 1.956 9.866 2.675 14.838a120.41 120.41 0 0 1 1.111 12.021c.211 4.868.291 9.754.13 14.623a140.47 140.47 0 0 1-2.449 21.209c-9.737 51.51-45.613 94.222-94.667 112.708a142.32 142.32 0 0 1-21.986 6.4c-4.656.946-9.368 1.677-14.085 2.244-3.9.469-7.85.611-11.781.8-2.894.138-5.8.226-8.691.134q-5.2-.165-10.4-.693c-3.938-.4-7.878-.856-11.78-1.509a143.46 143.46 0 0 1-19.813-4.839 149.14 149.14 0 0 1-49.609-27.012c-5.593-4.52-10.817-9.479-15.62-14.831-3.722-4.226-7.306-8.594-10.681-13.1a139.05 139.05 0 0 1-14.738-25 152.93 152.93 0 0 1-6.869-17.671c-2.004-6.251-3.577-12.633-4.707-19.1-.676-3.868-1.121-7.78-1.551-11.686-.3-2.721-.4-5.464-.593-8.2a2.05 2.05 0 0 0-.179-.507v-12.05c.082-.158.142-.326.179-.5.257-3.405.4-6.823.78-10.214.406-3.628.928-7.251 1.583-10.842a144.63 144.63 0 0 1 4.854-19.057 149.28 149.28 0 0 1 9.164-22 132.08 132.08 0 0 1 13.117-20.931c3.185-4.076 6.435-8.113 9.862-11.985 4.75-5.268 9.909-10.153 15.428-14.61a150.86 150.86 0 0 1 16.836-12 147.79 147.79 0 0 1 32.765-14.994 144.12 144.12 0 0 1 25.018-5.62A129.28 129.28 0 0 1 144.831.189a2.79 2.79 0 0 0 .684-.184zm-4.59 292.845l9.4-.487c3.614-.287 7.227-.65 10.823-1.112a128.8 128.8 0 0 0 18.261-3.841 137.08 137.08 0 0 0 37.425-16.771c3.321-2.135 6.6-4.366 9.7-6.8 3.8-2.99 7.425-6.205 11.061-9.4 2.226-1.955 4.426-3.958 6.47-6.1 12.408-13.037 22.226-28.313 28.933-45.015 2.336-5.705 4.253-11.573 5.736-17.557 1.157-4.792 2.048-9.658 2.843-14.525a108.03 108.03 0 0 0 1.271-11.267c.252-4.4.269-8.813.218-13.219a99.25 99.25 0 0 0-1.237-15.349l-1.706-9.752c-.492-2.539-1.1-5.058-1.7-7.574-.4-1.659-.825-3.316-1.35-4.938q-1.23-3.809-2.619-7.566a133.92 133.92 0 0 0-2.652-6.7q-1.715-3.992-3.6-7.912c-1.05-2.166-2.147-4.318-3.378-6.384q-2.564-4.3-5.369-8.46c-2.056-3.052-4.14-6.094-6.381-9.009a136.27 136.27 0 0 0-14.614-16.113 144.52 144.52 0 0 0-15.088-12.428 122.53 122.53 0 0 0-13.572-8.545c-2.636-1.406-5.244-2.875-7.948-4.138-3.192-1.492-6.45-2.854-9.724-4.157-2.791-1.111-5.624-2.126-8.479-3.06-2.26-.739-4.578-1.3-6.878-1.921-1.857-.5-3.712-1.022-5.592-1.421-2.27-.482-4.561-.871-6.851-1.252-2.171-.362-4.345-.733-6.531-.97-2.569-.278-5.149-.528-7.73-.591l-16.273-.175a42.4 42.4 0 0 0-4.509.234c-2.227.23-4.445.56-6.667.844-2.069.264-4.159.419-6.2.811-2.939.563-5.862 1.233-8.761 1.976-3.385.868-6.764 1.772-10.093 2.829-3.13.994-6.244 2.079-9.267 3.355-4.113 1.737-8.224 3.522-12.167 5.6-4.5 2.377-8.882 5-13.194 7.705A120.54 120.54 0 0 0 58.52 42.105a126.17 126.17 0 0 0-15.66 15.634c-3.336 4.034-6.45 8.26-9.541 12.489a108.61 108.61 0 0 0-9.786 16.4c-1.935 3.954-3.749 7.981-5.364 12.075-1.602 3.976-2.99 8.036-4.157 12.161-1.372 4.992-2.469 10.068-3.464 15.151-.736 3.763-1.207 7.585-1.628 11.4a97.38 97.38 0 0 0-.553 8.938c-.06 3.234.006 6.477.176 9.708.2 3.838.508 7.674.893 11.5.295 2.935.656 5.875 1.214 8.77.7 3.641 1.561 7.258 2.494 10.848.8 3.078 1.726 6.129 2.734 9.146.9 2.7 1.975 5.34 3 8a112.46 112.46 0 0 0 8.222 16.909c2.643 4.46 5.463 8.837 8.5 13.036 2.926 4.043 6.188 7.847 9.4 11.675.941 1.121 1.736 2.434 3.3 3.013.715.265 1.155 1.221 1.775 1.8l8.381 7.785a120.46 120.46 0 0 0 14.388 10.955c3.445 2.269 6.963 4.451 10.586 6.417 3.545 1.924 7.217 3.639 10.923 5.236 3.928 1.692 7.9 3.328 11.966 4.638 4.423 1.425 8.96 2.513 13.477 3.629 6.338 1.485 12.786 2.455 19.28 2.9 3.711.309 7.452.359 11.305.527zM209.609 32.06l5.046 3.067a.91.91 0 0 1 .444 1.2l-3.462 14.863 2.964-2.494q4.315-3.7 8.615-7.426a.83.83 0 0 1 1.161-.154l.019.015 5.1 3.152-10.407 16.911-3.485-2.166 8.466-13.827-.1-.1-5.122 4.171q-3.856 3.169-7.693 6.364a.72.72 0 0 1-1.015.07l-.033-.031c-.239-.191-.514-.336-.769-.508-.627-.423-1.56-.726-1.792-1.309s.195-1.467.362-2.212l3.085-14.512-8.513 13.808-3.256-1.984zm-167.94 90.589l-7.787-2.027c-1.185-.284-2.457-.577-3.347.709a2.36 2.36 0 0 0 .826 3.67 41.35 41.35 0 0 0 4.849 1.621l3.464.93c.522.124.634.382.5.85l-.681 2.477c-.141.682-.4.8-1.082.62l-11.1-2.942-1.442-.367.949-3.483c.048-.152.432-.272.663-.276.404.038.803.112 1.193.222a5.64 5.64 0 0 1-.767-4.956c.371-1.74 1.727-3.101 3.466-3.479a5.88 5.88 0 0 1-1.331-4.059c.135-2.548 1.636-4.72 3.778-4.911 1.343-.046 2.685.118 3.978.485l7.373 1.941-1.063 3.961-7.452-1.966a13.5 13.5 0 0 0-1.532-.279c-1.586-.218-2.311.746-2.631 1.989a2.3 2.3 0 0 0 1.585 2.841h.015l6.433 1.873c2.261.59 2.272.547 1.656 2.742l-.513 1.814zm219.215 9.182l-.42-4.043 13.8-1.413.36 3.879-1.78.362c1.753 1.198 2.707 3.262 2.484 5.374-.044 1.443-.819 2.765-2.058 3.506a5.3 5.3 0 0 1 2.828 3.878c.6 3.6-.9 5.852-4.675 6.218l-8.7.867-.407-3.413c-.06-.482.064-.719.62-.766l7.706-.75c2.519-.292 3.075-1.771 2.375-3.723-.412-1.15-1.875-1.617-3.49-1.423l-7.72.756-.45-4.052 4.432-.443 4.039-.409c1.883-.295 2.593-1.15 2.487-2.8a2.57 2.57 0 0 0-2.751-2.371c-.049 0-.1.008-.149.015-1.717.036-3.43.279-5.145.435l-3.386.316zM88.433 49.339l3.373-1.809a.86.86 0 0 1 .794.2c.631 1.024 1.839 1.539 3.015 1.284a4.42 4.42 0 0 0 3.52-2.931c.237-.657.118-1.389-.313-1.937s-1.114-.837-1.808-.763c-1.546.14-3.059.624-4.6.789-1.485.183-2.985.219-4.478.109-2.464-.223-4.323-3.867-3.452-6.357.891-2.33 2.72-4.179 5.041-5.094a12.7 12.7 0 0 1 3.854-1.093c2.253-.26 3.757.99 4.86 2.97l-3.5 1.848a.84.84 0 0 1-.726-.251 2.61 2.61 0 0 0-3-.839c-1.257.316-2.239 1.297-2.557 2.554a2.02 2.02 0 0 0 2.533 2.356l4.528-.8a15.28 15.28 0 0 1 4.122-.147c3.21.514 4.527 4.6 3.449 7.181a9.58 9.58 0 0 1-5.616 5.182 10.74 10.74 0 0 1-4.178.875c-2.283-.048-3.568-1.106-4.861-3.327zm160.485 49.493l1.53 3.434c-1.335 1.241-1.476 2.153-.615 3.693a2.6 2.6 0 0 0 3.389 1.425l.077-.033a13.1 13.1 0 0 0 2.246-.953 5.89 5.89 0 0 1-1.429-10.439c1.986-1.615 4.608-2.219 7.1-1.635 2.936.751 5.176 4.733 3.536 8.251l1.632-.644 1.584 3.573-6.652 2.916-5.072 2.169c-4.121 1.483-6.871.333-8.753-3.628-.863-1.817-1.513-3.718-.919-5.776.332-1.132 1.215-2.018 2.346-2.353zm14.433 2.219a3 3 0 0 0-2.59-2.853c-1.985-.11-3.915.669-5.268 2.126a2.37 2.37 0 0 0-.644 2.6c.263 1.033 1.096 1.823 2.142 2.031 2.294.24 4.54-.769 5.883-2.644a8.59 8.59 0 0 0 .477-1.261zM115.383 270.363a5.97 5.97 0 0 1-5.487 3.124 10.96 10.96 0 0 1-7.729-3.413 7.7 7.7 0 0 1-1.9-7.688 14.2 14.2 0 0 1 3.92-7.087 8.81 8.81 0 0 1 11.144-.961 12.74 12.74 0 0 1 2.8 2.361c1.66 1.874 1.862 4.02.746 6.472l-3.685-1.846a.74.74 0 0 1-.209-.619 3.57 3.57 0 0 0-3.917-4.209c-1.245.072-2.412.628-3.251 1.551-2.138 1.963-3.383 4.714-3.446 7.616a4.2 4.2 0 0 0 4.28 4.119 4.15 4.15 0 0 0 .586-.053c.611-.171 1.171-.49 1.63-.928a.92.92 0 0 1 1.218-.163l3.3 1.724zm84.491-18.524l8.318 18.013-3.652 1.678-.792-1.35-.417.859c-.838 1.621-2.389 2.754-4.188 3.061a5.81 5.81 0 0 1-4.965-1.503 9.53 9.53 0 0 1-2.877-7.772c.3-3.635 4.378-5.463 6.846-4.781.288.079.584.127 1.067.23l-1.514-3.365-1.554-3.353zm-4.684 13.12c.102 1.979.949 3.846 2.369 5.227.832.741 2.023.923 3.038.465s1.667-1.471 1.662-2.586a7.03 7.03 0 0 0-2.188-5.023 2.8 2.8 0 0 0-3.3-.663 2.4 2.4 0 0 0-1.581 2.58zm37.869-202.577a16.58 16.58 0 0 0 1.066-1.431 1.74 1.74 0 0 0-.541-2.363c-.562-.693-1.58-.799-2.273-.237a1.5 1.5 0 0 0-.117.1c-.452.391-.693.3-1.069-.057l-2.477-2.184c.805-1.148 2.209-1.716 3.586-1.45a9.82 9.82 0 0 1 6.1 4.6c1.058 1.669.6 3.345-.58 4.785l-5.4 6.325-.973 1.246-2.513-2.278c-.149-.239-.188-.531-.106-.8a4.33 4.33 0 0 1 .523-.932 5.14 5.14 0 0 1-4.625-1.551c-1.118-.909-1.766-2.273-1.764-3.714.137-2.333 2.14-4.114 4.473-3.977a4.3 4.3 0 0 1 .686.1 11.63 11.63 0 0 1 4.452 2.528l1.552 1.29zm-1.288 1.392c-1.042-.704-2.129-1.338-3.254-1.9a2.42 2.42 0 0 0-1.817.171c-.808.415-1.188 1.36-.893 2.219.384.924 1.214 1.587 2.2 1.758 1.649.151 2.576-.944 3.764-2.248zm18.509 17.02a4 4 0 0 1 5.071.433 10.84 10.84 0 0 1 3.45 5.557 3.36 3.36 0 0 1-.982 3.369c-.736.699-1.54 1.322-2.4 1.861l-6.751 4.426a25.08 25.08 0 0 1-1.808-2.878c-.14-.294.379-.9.524-1.211a17.53 17.53 0 0 1-2.875-2.055c-1.316-1.181-1.89-2.981-1.5-4.706a4.2 4.2 0 0 1 6.167-2.564 12.48 12.48 0 0 1 3.932 4.219l.68 1.069c.341-.173.655-.396.929-.663a4.23 4.23 0 0 0 1.029-1.82 1.88 1.88 0 0 0-1.4-1.862 2.24 2.24 0 0 0-1.3.073c-.433.143-.654.11-.9-.294l-1.866-2.954zm2.044 8.662a33.29 33.29 0 0 0-2.667-2.89c-.413-.343-.945-.508-1.479-.459a2.02 2.02 0 0 0-1.37.722l-.1.125a1.98 1.98 0 0 0 .053 2.4 2.39 2.39 0 0 0 2.551 1.276 27.94 27.94 0 0 0 3.012-1.174zM50.247 99.63l-1.538-.224c.818 2.828 0 5.575-2.046 6.987a3.91 3.91 0 0 1-4.426.047c-1.256-.661-2.035-1.971-2.016-3.39.022-1.758.43-3.489 1.194-5.072l.655-1.51c-1.173-1-2.61-1.078-3.358-.181-.958 1.149-.749 2.18.737 3.378l-1.685 3.6c-1.589-.531-2.598-2.093-2.429-3.76a11.07 11.07 0 0 1 2.414-6.18c1.16-1.522 3.133-1.87 5.3-.956l5.463 2.465 3.3 1.362zm-6.285-2.335l-.927 2.259a2.92 2.92 0 0 0 .085 2.271 2.07 2.07 0 0 0 2.066 1.241c1.066-.293 1.833-1.224 1.916-2.327.1-1.5-1.094-2.856-3.136-3.449zm-5.419 53.71c0 3.4-1.442 5.829-4.1 6.9-3.477 1.394-7.551.272-9.291-2.558a8.97 8.97 0 0 1 .382-9.5c1.595-2.1 3.888-2.537 6.354-2.417 4.497.209 6.748 3.503 6.655 7.575zm-7.248-3.476a24.09 24.09 0 0 0-2.924.676 2.8 2.8 0 0 0-1.873 2.881 2.97 2.97 0 0 0 2.072 2.657c1.811.633 3.788.606 5.581-.077 1.163-.345 1.938-1.443 1.874-2.655a2.78 2.78 0 0 0-1.9-2.846 28.55 28.55 0 0 0-2.83-.636zm30.017-68.753c-3.24.227-7.581-3.437-7.538-7.313.043-3.946 3.921-7.966 7.7-8.076 3.074-.089 7.556 3.07 7.593 7.31.035 4.172-4.265 8.304-7.755 8.079zm4.467-6.385a6.28 6.28 0 0 0-.362-1.315 7.53 7.53 0 0 0-4.878-4.044 2.56 2.56 0 0 0-2.7.97 2.5 2.5 0 0 0-.578 2.815 7.72 7.72 0 0 0 4.683 4.3 2.9 2.9 0 0 0 3.835-2.731zm52.35-34.436a5.14 5.14 0 0 1-2.434 5.721c-1.899 1.355-4.252 1.913-6.557 1.554-1.256-.227-2.387-.902-3.184-1.9a9.5 9.5 0 0 1-2.1-6.979c.255-2.668 2.476-4.8 5.575-5.549 3.056-.959 6.333.611 7.5 3.594.3.635.527 1.3.827 2.049l-9.271 3.315c.474 2.09 2.556 3.735 4.74 2.377.806-.376 1.283-1.225 1.185-2.109-.1-.7.216-.909.782-1.082l2.937-.991zm-10.4-.516l4.826-1.664c.572-.192.6-.47.324-.96a2.68 2.68 0 0 0-3.525-1.384l-.19.092a2.9 2.9 0 0 0-1.473 3.828l.041.088zm83.397 233.443l-9.3 2.709c.38 2.319 2.241 3.532 4.193 2.83 1.058-.341 1.775-1.326 1.776-2.437.02-.241.2-.613.39-.674l3.341-.934a4.5 4.5 0 0 1-.918 3.95c-1.949 2.257-4.925 3.349-7.871 2.888-2.035-.267-3.757-1.635-4.478-3.557a8.8 8.8 0 0 1-.782-6.177c.841-2.923 3.076-4.2 5.882-4.757 4.507-.884 7.134 2.216 7.767 6.159zm-9.9.354l5.476-1.6c-.4-1.29-1.014-2.29-2.324-2.472-1.062-.166-2.128.27-2.769 1.132a2.5 2.5 0 0 0-.388 2.94zm86.138-104.658l.687-9.9c-1.167-.21-2.365.119-3.262.894a2.99 2.99 0 0 0-.78 2.989 2.33 2.33 0 0 0 1.584 1.663c.22.09.521.377.514.564l-.265 3.527a4.8 4.8 0 0 1-3.855-3.062c-.948-2.442-.791-5.176.431-7.493a5.12 5.12 0 0 1 3.694-2.8c2.116-.475 4.328-.265 6.317.6 2.965 1.318 3.845 4.361 3.49 7.264a6.13 6.13 0 0 1-3.018 5c-1.724.964-3.582.901-5.537.754zm2.684-3.837c1.141.266 2.329-.189 3-1.15a2.95 2.95 0 0 0-.006-3.231c-.529-.904-1.524-1.43-2.569-1.357l-.425 5.738zm-7.246-47.854c-2.047.417-3.125 1.754-2.927 3.549.176 1.584 1.273 2.448 3.185 2.446l1.122 3.674a4.63 4.63 0 0 1-4.234-1.006 8.92 8.92 0 0 1-2.409-8.951c.735-1.766 2.242-3.096 4.086-3.607 2.429-.852 4.839-1.138 7.156.385 2.6 1.708 4.577 7.188 1.686 10.4a8.95 8.95 0 0 1-4.3 2.347c-.16.049-.6-.321-.675-.569l-2.413-7.822-.277-.846zm4.031 4.85c1.814-.6 2.682-1.668 2.441-2.926-.375-1.96-1.543-2.928-3.337-2.825-.655.038-.784.3-.6.886l1.5 4.865zm-136.82 154.765l-9.373-2.831c-.894 2.176-.032 3.819 1.074 4.313 1.548.692 2.708.89 4-1.208l3.729 1.144a4.67 4.67 0 0 1-2.807 2.823c-3.39.973-7.032-.193-9.226-2.954-1.325-1.966-1.1-4.089-.406-6.189.846-2.544 2.26-4.6 5.114-5.141 2.941-.562 7.6.98 8.45 4.62a9.43 9.43 0 0 1-.555 5.423zm-8.649-5.149l5.518 1.667c.633-1.929.062-3.276-1.58-3.865-1.692-.602-3.156.163-3.938 2.198zM83.361 60.202l-3.146 2.649-4.3-5.118a22.62 22.62 0 0 0-1.616-1.776c-.719-.826-1.931-1.009-2.862-.432a2.47 2.47 0 0 0-1.2 2.817c.375 1.72 1.675 2.838 2.7 4.13l3.164 3.775-3.146 2.658-8.937-10.635 3.088-2.549 1.264 1.413a5.74 5.74 0 0 1 2.883-5.1 4.36 4.36 0 0 1 6.038.906l6.07 7.262zm159.177 4.365l2.563 3.061-1.367 1.28a5.75 5.75 0 0 1 4.14 1.7c2.476 2.641 2.326 5.329-.451 7.637l-6.3 5.277c-.137.115-.3.2-.515.355l-2.62-3.111 4.238-3.563 2.682-2.406a2.12 2.12 0 0 0 .376-2.841c-.553-1.004-1.729-1.488-2.829-1.165-1.706.412-2.822 1.706-4.114 2.73l-3.79 3.137-2.618-3.157zm16.351 112.572l6 1.272a25.21 25.21 0 0 0 3.174.492 2.01 2.01 0 0 0 2.205-1.318 2.31 2.31 0 0 0-.65-2.918 12.64 12.64 0 0 0-2.99-1.325c-1.061-.302-2.137-.549-3.224-.741l-3.374-.706.842-3.986 4.062.82 8.806 1.854c.5.1.687.349.581.829l-.724 3.222-1.728-.194.383.731c1.283 2.206.871 4.348-.393 6.355-1.1 1.737-2.915 1.892-4.7 1.571l-8.632-1.855a.84.84 0 0 1-.369-.71l.731-3.393zm-217.053 1.392l1 3.953-13.454 3.394-.939-3.866 1.788-.537a5.4 5.4 0 0 1-3.044-3.553 10.5 10.5 0 0 1-.276-2.275 3.43 3.43 0 0 1 2.288-3.482c3.373-1.081 6.818-1.935 10.315-2.9l1.029 4.032-4.411 1.145c-1.362.357-2.734.682-4.079 1.1-1.543.476-2.034 1.25-1.856 2.723.032.592.297 1.146.738 1.542s1.021.6 1.613.568c.04 0 .081-.005.121-.01a34.38 34.38 0 0 0 4.878-.771c1.41-.287 2.793-.688 4.289-1.063zM144.05 24.539l4.071-.294 1.061 13.809-3.958.294-.323-1.707a1.22 1.22 0 0 0-.25.183c-1.676 2.1-3.9 2.464-6.33 1.865-1.409-.297-2.499-1.415-2.761-2.831a39.93 39.93 0 0 1-.546-4.388l-.406-5.622c-.012-.178 0-.357 0-.607l4.034-.3.363 4.138.365 4.32c.285 2.1.957 2.688 2.709 2.593a2.68 2.68 0 0 0 2.513-2.837c0-.05-.007-.1-.013-.148-.006-1.6-.178-3.194-.282-4.79l-.247-3.678zm34.263 22.66a27.47 27.47 0 0 1 2.462-2.947 3.28 3.28 0 0 0 .869-3.316l-1.445-10.3-.385-2.808 3.947 1.155c.248.128.421.366.467.641l.375 5.618.233 4.451c.174-.14.336-.294.484-.462l5.342-7.536c.3-.426.507-.571 1.031-.384 1.029.368 2.094.636 3.3.99l-3.272 4.046-8.9 11.1a1.4 1.4 0 0 1-1.884.583c-.823-.32-1.686-.531-2.624-.831zm-46.342-16.88l-3.662.835a9.6 9.6 0 0 0-1.108-1.652c-.702-.653-1.75-.764-2.573-.273a2.57 2.57 0 0 0-1.549 2.232 9.74 9.74 0 0 0 .953 5.1c.434 1.282 1.735 2.059 3.07 1.834 1.123-.092 1.981-1.041 1.959-2.167v-1.3l3.933-.882c.591 1.466.276 3.142-.807 4.294a8.41 8.41 0 0 1-8.571 2.479 5.33 5.33 0 0 1-3.449-2.721 8.8 8.8 0 0 1-1.061-6.481c.716-3.074 2.976-4.5 5.9-5.089 1.867-.521 3.87-.144 5.419 1.022a4.29 4.29 0 0 1 1.546 2.769zM24.936 163.075l-.306-3.07 2.3-.319c.15-.009.428.371.468.6.134.782.188 1.578.284 2.483l11.063-1.337.522 4.052-11.091 1.375.331 2.6-2.672.391-.23-1.868c-.04-.639-.3-.832-.948-.743a8.13 8.13 0 0 1-2.293.071c-1.831-.183-3.261-1.664-3.381-3.5-.19-1.053-.209-2.136-.315-3.311l2.685-.325c.673 3.296.673 3.296 3.583 2.901zm142.619 119.379l-4.053.461-1.19-11.024-2.625.168-.323-2.632a16.21 16.21 0 0 1 1.85-.23c.65-.008.857-.181.746-.879a7.1 7.1 0 0 1-.034-2.3c.38-2.185 1.748-3.263 4.331-3.483.82-.07 1.652-.011 2.545-.011l.275 2.408a10.08 10.08 0 0 0-2.69.885c-.956.657-.292 1.761-.281 2.827l1.522-.176 1.6-.007.3 2.537-3.123.418 1.15 11.038zM46.341 84.139l5.993 3.656c.9.523 1.432.329 2.02-.556.288-.433.535-.894.844-1.417l2.359 1.447-2 3.36c-1.329 1.911-2.748 2.184-4.756.979l-5.654-3.483-.922-.532-1.414 2.2-2.3-1.435 1.28-2.2c-.1-.11-.154-.211-.231-.239-1.42-.507-1.768-1.47-1.333-2.869.194-.788.342-1.586.441-2.391l3.271 1.983 1.747-2.666 2.338 1.345zm210.602 108.18l-2.167-.807a.72.72 0 0 1-.229-.657 38.5 38.5 0 0 1 1.544-4.208c.569-1.054 1.817-1.541 2.949-1.149l7.759 2.587c.114.038.235.056.442.1l.929-2.4 2.521.854-.749 2.444c.131.079.2.155.287.167 1.65.242 2.1 1.261 1.893 2.79-.05.707-.055 1.416-.015 2.124l-2.75-.972c-.569-.214-.911-.11-1.091.519-.21.732-.493 1.443-.778 2.263l-2.586-.869.817-2.36c.188-.5.146-.753-.443-.944l-5.556-1.93c-1.432-.484-1.851-.275-2.393 1.122-.14.365-.225.756-.384 1.326zm-114.348 79.152v-2.683l2.657.139a.74.74 0 0 0 .079-.219c.128-2.031.126-2.034 2.116-2.675l2.084-.64-.168 2.958c-.086.713.223.957.849.988l2.3.106-.216 2.716-3.172-.172-.27 2.537-.216 4.151c-.1 1.689.564 1.834 2.174 1.963.255-.006.508-.036.757-.09a6.86 6.86 0 0 1 .056.691c-.053 2.525.027 2-2.29 2.131a9.8 9.8 0 0 1-2.452-.327 2.6 2.6 0 0 1-2.271-2.808l.416-8.481zM171.49 29.004l-2.577-.52.508-2.672 2.5.448c.034-.058.09-.109.091-.162a2.23 2.23 0 0 1 2.529-2.461c.704-.066 1.402-.186 2.087-.36l-.655 3.744 3.14.684-.516 2.655-3.184-.6-1.348 7.027c-.146.693.297 1.374.99 1.521l.043.008a18.44 18.44 0 0 0 1.822.378l-.486 2.653-3.522-.574c-2.835-.638-3.283-1.975-2.835-4.492l1.413-7.277zM26.654 196.222l-1.484-4.153 18.674-6.67 1.489 4.148zM155.86 38.266h-4.048q.288-7 .563-13.719h3.885v2.307a4.79 4.79 0 0 1 4.9-2.118v3.577l-1.532-.14c-.838-.059-1.665.218-2.299.769s-1.023 1.332-1.081 2.17a3.28 3.28 0 0 0 0 .392l-.388 6.762zM27.313 136.552a4.77 4.77 0 0 1-1.9-4.24c.042-.642.185-.945.958-.768.877.148 1.763.238 2.652.27l-.1 1.9c-.127 1.416.857 2.692 2.259 2.929a38.66 38.66 0 0 0 4.011.55l3.76.361-.426 4.054-13.722-1.25.261-3.417c.088-.23.287-.4.528-.451.574-.014 1.148.007 1.719.062zm103.25 144.217l2.306-13.635 3.794.632-.17 2.153a4.74 4.74 0 0 1 5.169-1.3l-.627 3.486-1.038-.247c-1.608-.575-3.377.263-3.952 1.871-.068.192-.118.391-.148.593l-1.126 6.226c-.12.789-.416.96-1.146.791-.979-.234-1.979-.374-3.062-.57zM58.334 86.22l-11.293-8.136 2.426-3.336 11.251 8.112zm112.382 181.779l4.036-.718 2.512 13.654-4.036.726zm-7.414-242.912l4.08.5-1.667 13.752-4.061-.465 1.648-13.787zm-9.5 244.306h4.077l.427 13.75h-4.116l-.388-13.75zm3.966-5.94l.181 3.139h-4.312q-.067-1.392-.15-3.139zM42.167 74.656l2.518-3.445 2.684 1.925-2.508 3.455zm131.597 186.75l.564 3.219-4.171.778-.582-3.21zm-6.009-238.454l-4.2-.545.39-3.187 4.218.45-.408 3.282z"/><path d="M148.432 251.532a52.21 52.21 0 0 1-1.678-.026l-6.977-.464-7.887-1.01a96.5 96.5 0 0 1-13.3-3.245 99.61 99.61 0 0 1-33.275-18.119 90.81 90.81 0 0 1-10.481-9.953c-2.591-2.942-5-5.891-7.15-8.769a93.51 93.51 0 0 1-9.9-16.789 103.03 103.03 0 0 1-4.6-11.846c-1.344-4.196-2.399-8.478-3.158-12.818-.438-2.5-.73-5.024-1.04-7.823-.132-1.232-.207-2.479-.28-3.683l-.111-1.716c0-.017-.127-.26-.127-.26v-8.476l.109-.211c.069-.7.117-1.435.165-2.173l.369-4.6c.279-2.49.636-4.935 1.063-7.268a97.11 97.11 0 0 1 3.257-12.787 100.42 100.42 0 0 1 6.146-14.753 88.89 88.89 0 0 1 8.806-14.05c2.59-3.316 4.623-5.786 6.6-8.015a90.83 90.83 0 0 1 10.365-9.817 101.74 101.74 0 0 1 11.285-8.043 99.26 99.26 0 0 1 21.98-10.058 97.07 97.07 0 0 1 16.785-3.771 86.9 86.9 0 0 1 10.167-.866.84.84 0 0 0 .172-.052l.178-.072h6.63l.145.048a2.49 2.49 0 0 0 .366.087l3.188.258 6.716.619c7.531.946 14.919 2.808 22 5.543 25.124 9.559 45.399 28.743 56.332 53.3 2.542 5.658 4.525 11.551 5.921 17.594.662 2.93 1.248 6.179 1.792 9.936a81.59 81.59 0 0 1 .747 8.085c.158 3.623.186 6.826.086 9.788a94.35 94.35 0 0 1-1.644 14.238 100.79 100.79 0 0 1-63.5 75.6 95.87 95.87 0 0 1-14.752 4.29c-2.951.6-6.124 1.1-9.437 1.5-2.292.277-4.627.385-6.884.49l-1.011.048a87.53 87.53 0 0 1-4.178.109zm-66.513-36.059c.459.226.85.571 1.129 1 .096.132.201.258.315.375l1.1 1.029 4.456 4.128a79.3 79.3 0 0 0 9.438 7.185c2.607 1.717 4.818 3.059 6.966 4.225 2.093 1.134 4.44 2.259 7.176 3.438 2.463 1.061 5.12 2.164 7.862 3.049 2.67.859 5.459 1.548 8.158 2.213l.73.181c4.155.972 8.382 1.607 12.639 1.9 1.646.126 3.262.18 4.971.237l2.528.095 1.642-.077 4.48-.245c2.6-.211 4.94-.451 7.14-.734a84.72 84.72 0 0 0 11.987-2.521 89.99 89.99 0 0 0 24.6-11.021c2.563-1.648 4.586-3.067 6.368-4.468 2.319-1.823 4.584-3.815 6.776-5.741l.532-.468c1.308-1.15 2.836-2.524 4.236-3.992a93.03 93.03 0 0 0 19.023-29.59 83.93 83.93 0 0 0 3.769-11.534c.657-2.718 1.252-5.761 1.872-9.57a71.27 71.27 0 0 0 .834-7.387c.18-3.142.171-6.3.143-8.71a65.13 65.13 0 0 0-.809-10.056l-.164-.972-.965-5.474c-.329-1.7-.749-3.447-1.121-4.987-.23-.96-.513-2.091-.875-3.208a129.31 129.31 0 0 0-1.728-4.99c-.606-1.64-1.169-3.066-1.744-4.4a130.29 130.29 0 0 0-2.375-5.217c-.567-1.168-1.33-2.7-2.2-4.164a117.5 117.5 0 0 0-3.538-5.573c-1.3-1.937-2.711-4-4.2-5.937-2.915-3.778-6.125-7.318-9.6-10.587a95.37 95.37 0 0 0-9.923-8.172 80.71 80.71 0 0 0-8.912-5.612l-1.222-.658c-1.305-.7-2.654-1.433-4.006-2.064-1.883-.88-3.918-1.749-6.406-2.738-1.761-.7-3.637-1.379-5.576-2.013-1.157-.374-2.375-.7-3.552-1.006l-1.634-.435c-.984-.266-2-.542-3-.752-1.488-.317-2.982-.57-4.51-.824l-.237-.04c-1.329-.222-2.7-.45-4.047-.6-1.882-.2-3.461-.348-5.052-.384l-9.615-.11-1.175-.006-.023-.973v.973a27.35 27.35 0 0 0-2.865.15c-1.014.105-2.021.24-3.03.376l-1.377.183-1.326.154c-.949.105-1.845.2-2.736.375a95.2 95.2 0 0 0-5.761 1.3c-1.992.511-4.34 1.13-6.651 1.863-2.377.754-4.306 1.452-6.07 2.2-2.608 1.1-5.373 2.292-8.008 3.687-2.61 1.379-5.374 2.993-8.7 5.082a79.44 79.44 0 0 0-9.093 6.828A83.28 83.28 0 0 0 78.67 89.968c-2.286 2.765-4.51 5.8-6.3 8.246a71.41 71.41 0 0 0-6.409 10.745c-1.377 2.813-2.532 5.414-3.533 7.955-1.053 2.61-1.964 5.275-2.731 7.983-.779 2.837-1.505 6.013-2.283 9.988-.492 2.522-.8 5.09-1.069 7.492-.2 1.828-.323 3.8-.361 5.847a87.83 87.83 0 0 0 .115 6.378c.128 2.409.326 4.964.589 7.593.232 2.332.478 4.1.794 5.739.415 2.152.952 4.491 1.641 7.147.5 1.917 1.086 3.883 1.8 6.011.457 1.366.994 2.743 1.513 4.074l.465 1.2a73.95 73.95 0 0 0 5.389 11.086c1.818 3.072 3.7 5.961 5.6 8.586 1.712 2.365 3.638 4.654 5.5 6.869l.745.884.036.059a4.51 4.51 0 0 0 1.748 1.627zm150.241-74.162c.091 7-1.4 13.111-5.083 18.589a26.31 26.31 0 0 1-11.845 9.708 37.58 37.58 0 0 1-18.107 2.659 30.48 30.48 0 0 1-16-5.858 27.93 27.93 0 0 1-9.961-14.014 34.19 34.19 0 0 1-1.489-15.16 28.9 28.9 0 0 1 10.628-19.448c3.594-2.922 7.831-4.947 12.362-5.909a38.91 38.91 0 0 1 14.517-.372 29.72 29.72 0 0 1 14.345 6.07 27.88 27.88 0 0 1 8.935 13.109 29.95 29.95 0 0 1 1.698 10.626zm-45.433.678c.248 2.665.413 5.342.771 7.992.209 2.135 1.121 4.139 2.592 5.7 3.755 3.997 9.454 5.515 14.7 3.915 5.819-1.538 9.066-5.147 9.581-10.939.308-3.457.25-6.952.255-10.43a18.4 18.4 0 0 0-2.259-8.936 10.73 10.73 0 0 0-6.848-5.376 17.03 17.03 0 0 0-8.5-.078c-4.744 1.113-7.542 4.218-8.973 8.645a30.48 30.48 0 0 0-1.319 9.506zm-60.08 22.341l.017 5.412c.027.805-.2 1.066-1.032 1.056l-10.564-.021c-.272 0-.544-.031-.888-.051l-.058-.933-.014-18.628c0-.74.172-1.033.97-1.025h10.472c.559-.073 1.095.244 1.3.769 1.386 3.088 3.642 5.705 6.491 7.531 3.551 2.132 7.721 2.991 11.825 2.437a16.56 16.56 0 0 0 5.963-1.537c3.749-1.933 4.634-6.821 1.584-9.416a9.6 9.6 0 0 0-3.717-1.916 62.03 62.03 0 0 0-7.443-1.329c-4.114-.354-8.191-1.056-12.187-2.1a21.29 21.29 0 0 1-12.7-9.835c-3.246-5.6-1.893-11.708 2.484-16.273 2.786-2.856 6.29-4.91 10.143-5.946a28.25 28.25 0 0 1 12.908-.511 20.64 20.64 0 0 1 11.621 6.106 3.61 3.61 0 0 0 .542.343v-3.882c0-2.078 0-2.073 2.039-2.07l8.9-.015c.858-.013 1.092.266 1.09 1.111q-.021 8.432.061 16.862c.007.82-.211 1.155-1.094 1.143q-4.819-.066-9.637 0a1.81 1.81 0 0 1-1.683-1c-1.23-1.948-2.612-3.796-4.133-5.527-2.433-2.513-5.766-3.955-9.263-4.009a21.24 21.24 0 0 0-7.251.578 5.35 5.35 0 0 0-3.477 2.4 5.72 5.72 0 0 0 2.512 7.517 22.33 22.33 0 0 0 6.91 1.9c3.686.51 7.4.9 11.025 1.713 5.082 1.144 9.812 3.171 13.472 7.086 2.334 2.378 3.801 5.47 4.167 8.782.794 7.807-2.684 13.446-9.1 17.465a24.28 24.28 0 0 1-14.149 3.445 25.75 25.75 0 0 1-17.062-6.766l-1.044-.866zm-41.419-40.237h-1.267c-2.842 0-5.683-.026-8.525.01-.764.01-1.014-.228-1-1v-9.544c-.011-.825.265-1.06 1.059-1.057H91.34q8.34 0 16.679.009c1.347 0 1.349 0 1.349 1.315l.014 9.174c.011.841-.237 1.121-1.094 1.106-2.872-.047-5.745.007-8.617-.032-.8-.011-1.057.232-1.055 1.052q.037 16.449 0 32.9c0 .939.345 1.154 1.177 1.145l8.431-.016h1.127l.073.817.016 9.915c.007.679-.189.907-.889.906q-16.633-.03-33.267 0c-.689 0-.924-.211-.918-.893q.037-4.865.008-9.73c-.007-.82.312-1.036 1.112-1.023l8.617.025c.824.007 1.16-.206 1.158-1.143l-.023-32.99zm120.112-17.727a15.05 15.05 0 0 1-2.322-.032 1.77 1.77 0 0 1-.976-.706c-2.596-3.637-5.558-6.999-8.84-10.032-1.2-1.1-2.472-2.127-3.758-3.129-.311-.186-.693-.213-1.027-.071-1.772 1.051-3.5 2.168-5.386 3.349a59.33 59.33 0 0 1 7 10.364c-.486.301-1.072.396-1.629.265s-1.038-.478-1.339-.965a.93.93 0 0 1-.032-.053l-5.572-7.828c-.135-.27-.378-.469-.669-.548s-.602-.029-.854.136c-3.157 1.271-6.357 2.433-9.583 3.65l2.05 5.364c-1.66.6-2.352.289-2.9-1.174-.388-1.038-.856-2.046-1.243-3.084a.8.8 0 0 0-.956-.6c-.04.009-.08.021-.118.036-4.658 1.065-9.413 1.648-14.19 1.74-.73.018-1.1.279-1 1.055a6.24 6.24 0 0 1 0 .833c-.007 1.429-.376 1.734-1.776 1.383-.226-.101-.391-.303-.445-.544a8.22 8.22 0 0 1-.021-1.294c-.007-1.419-.007-1.424-1.442-1.454a63.63 63.63 0 0 1-12.111-1.344c-.57-.121-1.152-.191-1.714-.34-.6-.157-.853.157-1.043.635l-1.133 2.819c-.649 1.683-1.042 1.886-2.994 1.4l1.893-4.769c.216-.521.282-.734-.408-.969-2.96-1.007-5.889-2.1-8.816-3.2-.737-.277-1.3-.358-1.821.406-1.712 2.484-3.538 4.894-5.184 7.42-.589.9-1.129 1.473-2.242 1.283a10.7 10.7 0 0 0-1.119-.059 62.8 62.8 0 0 1 7.034-10.448l-5.7-3.545c-.17-.1-.622.108-.851.288a63.9 63.9 0 0 0-11.173 11.4c-.243.319-.5.63-.724.962-1.042 1.521-1.581 1.72-3.567 1.227a63.74 63.74 0 0 1 15.585-16.649 62.54 62.54 0 0 1 28.708-12.083 63.77 63.77 0 0 1 41.9 7.56c9.192 5.15 16.436 12.438 22.508 21.345zm-71.347-24.945l-.1.352a16.63 16.63 0 0 0 1.447.922c3.476 1.664 7.263 2.581 11.115 2.692a54.16 54.16 0 0 0 12.717-.475 27.7 27.7 0 0 0 7.281-2.219 11.3 11.3 0 0 0 1.455-1l-.1-.3a64.12 64.12 0 0 0-33.816.028zm15.772 13.032l.009-5.647c.008-.621-.181-.87-.843-.876-1.106-.011-2.21-.16-3.316-.194a3.58 3.58 0 0 0-2.782.582 33.86 33.86 0 0 0-7.689 10.152c-.276.526-.065.732.435.824.572.1 1.137.26 1.713.321l11.568 1.2c.7.073.926-.223.915-.9-.031-1.824-.012-3.641-.01-5.462zm17.145 4.577c-2.2-4.334-4.742-8.184-8.519-11.083a1.58 1.58 0 0 0-.949-.225l-4.8.214c-.655.022-.638.444-.638.889q0 5.513-.016 11.023c0 .681.148 1.02.943.938l10.208-.984c1.229-.135 2.436-.492 3.771-.771zm-26.217-11.935l-4.644-1.4a1.47 1.47 0 0 0-.865.19 35.46 35.46 0 0 0-7.733 4.8c-1.645 1.32-3.183 2.771-4.828 4.215.281.231.381.366.511.411l8.768 3.029c.5.174.678-.019.907-.44a42.88 42.88 0 0 1 5.542-8.315c.73-.815 1.5-1.594 2.342-2.494zm20.519-.014a2.75 2.75 0 0 0 .285.439 37.47 37.47 0 0 1 7.341 10.245.8.8 0 0 0 1 .528.71.71 0 0 0 .1-.038l6.2-2.037c.969-.334 1.9-.786 2.828-1.178-.08-.228-.084-.3-.122-.339a43.14 43.14 0 0 0-12.542-8.962.95.95 0 0 0-.616-.068l-4.471 1.413zm-28.225-2.856a19.35 19.35 0 0 0-1.326-1.516c-.233-.213-.551-.308-.863-.258-2 .75-4.018 1.463-5.944 2.374-2.267 1.074-4.469 2.295-6.654 3.531-1.157.654-2.219 1.477-3.58 2.4 1.936 1.1 3.592 2.083 5.3 2.969.237.123.8-.13 1.073-.365 2.037-1.725 3.963-3.59 6.079-5.211 1.909-1.469 4.017-2.681 5.909-3.923zm35.63-.041c.323.219.563.416.831.559 3.669 2.015 7.063 4.493 10.1 7.374.6.557 1.18 1.47 1.841 1.539.718.075 1.542-.6 2.279-1.024 1.083-.619 2.13-1.3 3.29-2.017-.358-.288-.56-.473-.784-.627a61.57 61.57 0 0 0-15.111-7.548.99.99 0 0 0-.818.134c-.561.474-1.054 1.027-1.634 1.611zm-59.084 107.714c2.86.012 5.618 1.069 7.754 2.971a10.87 10.87 0 0 1 1.252 1.4v-.928l-.543-.3c-1.157-.654-2.219-1.477-3.58-2.4l5.3-2.969c.237-.123.8.13 1.073.365l2.683 2.354h3.4l-4.451-3.894c.281-.231.381-.366.511-.411l8.768-3.029c.5-.174.678.019.906.44 1.243 2.433 2.716 4.742 4.4 6.894h2.964a33.85 33.85 0 0 1-5.033-7.464c-.275-.526-.064-.732.436-.824l1.713-.321 11.568-1.2c.7-.073.926.223.915.9l-.011 5.462v3.206c.736-.156 1.486-.238 2.239-.243l-.013-8.358c0-.681.148-1.02.943-.938l10.208.984c1.229.135 2.436.49 3.771.771h0a32.48 32.48 0 0 1-7.539 10.269 10.93 10.93 0 0 1 1.191 1.2c.793 1.035 1.431 2.18 1.893 3.4l.729.217a13.68 13.68 0 0 1 1.019-2.18l-2.99-.949a2.73 2.73 0 0 1 .284-.439c3.008-2.976 5.49-6.44 7.342-10.245a.8.8 0 0 1 1-.528 1.01 1.01 0 0 1 .1.038l6.2 2.037c.969.334 1.9.786 2.829 1.178-.081.228-.084.3-.123.339a42.81 42.81 0 0 1-3.633 3.324c.923.129 1.826.375 2.687.732.558-.483 1.119-.963 1.655-1.472.6-.557 1.18-1.47 1.841-1.539.718-.075 1.542.6 2.28 1.024 1.083.619 2.129 1.3 3.29 2.017-.359.287-.561.473-.785.627q-1.95 1.338-4 2.514a14.75 14.75 0 0 1 1.26 2.089c8.9-5.13 15.965-12.274 21.9-20.981a15.14 15.14 0 0 0-2.323.032 1.77 1.77 0 0 0-.976.706 65.33 65.33 0 0 1-8.84 10.032c-1.2 1.1-2.472 2.128-3.758 3.129-.311.187-.693.213-1.027.071-1.772-1.051-3.505-2.168-5.386-3.349 2.692-3.198 5.038-6.672 7-10.364-.486-.301-1.072-.396-1.629-.265s-1.038.478-1.339.965c-.011.018-.022.035-.032.053l-5.572 7.828a1.05 1.05 0 0 1-1.407.479.97.97 0 0 1-.116-.067c-3.157-1.271-6.357-2.433-9.583-3.65l2.05-5.364c-1.66-.6-2.352-.289-2.9 1.174-.388 1.038-.856 2.046-1.243 3.084a.8.8 0 0 1-.957.6.79.79 0 0 1-.117-.036 69.7 69.7 0 0 0-14.19-1.74c-.73-.018-1.1-.279-1-1.055a6.26 6.26 0 0 0 .005-.833c-.007-1.429-.376-1.733-1.776-1.383a.79.79 0 0 0-.445.544c-.041.43-.048.863-.02 1.294-.008 1.419-.008 1.424-1.443 1.454a63.72 63.72 0 0 0-12.111 1.344c-.57.122-1.152.191-1.714.34-.6.158-.853-.157-1.043-.634l-1.133-2.82c-.649-1.683-1.042-1.886-2.994-1.4l1.894 4.769c.215.521.281.734-.409.969-2.96 1.007-5.888 2.1-8.816 3.2-.736.277-1.3.357-1.82-.406-1.712-2.485-3.538-4.894-5.185-7.42-.589-.9-1.129-1.473-2.242-1.283-.371.039-.745.058-1.118.059 1.988 3.71 4.344 7.21 7.033 10.448l-5.7 3.545c-.17.1-.622-.108-.852-.289a63.85 63.85 0 0 1-11.173-11.4c-.243-.319-.5-.63-.724-.961-1.042-1.521-1.581-1.721-3.567-1.227a63.73 63.73 0 0 0 13.095 14.687zm63.882 10.13a4.68 4.68 0 0 0-.19.582l-.026.166.416-.162a6.02 6.02 0 0 0-.2-.587zm-31.121-7.267v2.729a11.6 11.6 0 0 1 1.113-1.7c.071-.084.151-.156.225-.238-.356-.104-.694-.264-1-.474l-.338-.317zm9.192 9.485q-.135 1.258-.2 2.518l1.175-.023-.193-2.507-.782.012zm-11.031-.824q-.441-.073-.882-.151l-1.49 2.208q1.047.2 2.1.368l.272-2.425zm-22.733 14.172v4.94H99.077a12.84 12.84 0 0 1 1.818-5.309 35.43 35.43 0 0 1 5.982-6.654 37.63 37.63 0 0 0 4.41-4.543c.685-.951 1.068-2.085 1.1-3.256a3.7 3.7 0 0 0-.956-2.735 4.06 4.06 0 0 0-5.291.047c-.758.943-1.16 2.122-1.136 3.332l-5.3-.53q.474-4.39 2.972-6.3c1.808-1.32 4.008-1.994 6.246-1.912 2.359-.135 4.676.66 6.455 2.215 1.538 1.414 2.393 3.421 2.347 5.509a9.6 9.6 0 0 1-.672 3.567c-.536 1.279-1.253 2.474-2.129 3.549a34.04 34.04 0 0 1-3.483 3.54q-2.517 2.309-3.189 3.066a9.24 9.24 0 0 0-1.088 1.476zm3.6-17.49v-4.94h18.19v3.861c-1.811 1.9-3.352 4.04-4.581 6.36a37.1 37.1 0 0 0-3.549 8.81 32.72 32.72 0 0 0-1.2 8.34h-5.13c.125-4.018.928-7.986 2.375-11.736 1.423-3.858 3.444-7.467 5.991-10.695zm30.55-5.433a7.58 7.58 0 0 1 6.3 2.877q2.707 3.406 2.707 11.3 0 7.875-2.727 11.319a7.57 7.57 0 0 1-6.283 2.839 7.94 7.94 0 0 1-6.53-3.114q-2.48-3.114-2.479-11.1 0-7.836 2.727-11.281a7.57 7.57 0 0 1 6.283-2.839zm0 4.41a2.66 2.66 0 0 0-1.723.615 4.14 4.14 0 0 0-1.173 2.205 45.15 45.15 0 0 0-.058 13.657 4.72 4.72 0 0 0 1.24 2.432c1.003.811 2.438.807 3.436-.01.61-.596 1.02-1.366 1.174-2.205a44.91 44.91 0 0 0 .059-13.638 4.79 4.79 0 0 0-1.24-2.442c-.48-.403-1.088-.621-1.715-.615zm21.559-4.41c2.441-.112 4.786.959 6.3 2.877q2.706 3.406 2.707 11.3 0 7.875-2.727 11.319c-1.516 1.901-3.854 2.958-6.283 2.839a7.94 7.94 0 0 1-6.531-3.114q-2.481-3.114-2.479-11.1 0-7.836 2.727-11.281a7.57 7.57 0 0 1 6.282-2.837zm0 4.41a2.66 2.66 0 0 0-1.722.615c-.61.596-1.02 1.366-1.174 2.205a45.06 45.06 0 0 0-.057 13.657c.164.915.596 1.761 1.24 2.432 1.003.811 2.438.807 3.436-.01a4.14 4.14 0 0 0 1.174-2.205 45 45 0 0 0 .057-13.638c-.167-.917-.598-1.766-1.24-2.442-.481-.402-1.09-.619-1.717-.611zm26.178 23.452h-5.32v-20.039a18.32 18.32 0 0 1-6.871 4.032v-4.832a15.4 15.4 0 0 0 4.524-2.584c1.521-1.126 2.685-2.667 3.35-4.439h4.316z"/></svg>